<?xml version="1.0" encoding="UTF-8" standalone="no"?>
<!-- Generator: Adobe Illustrator 15.0.0, SVG Export Plug-In . SVG Version: 6.00 Build 0)  -->

<svg
   xmlns:dc="http://purl.org/dc/elements/1.1/"
   xmlns:cc="http://creativecommons.org/ns#"
   xmlns:rdf="http://www.w3.org/1999/02/22-rdf-syntax-ns#"
   xmlns:svg="http://www.w3.org/2000/svg"
   xmlns="http://www.w3.org/2000/svg"
   xmlns:sodipodi="http://sodipodi.sourceforge.net/DTD/sodipodi-0.dtd"
   xmlns:inkscape="http://www.inkscape.org/namespaces/inkscape"
   version="1.1"
   id="Layer_1"
   x="0px"
   y="0px"
   style="fill:white"
   viewBox="0 123.307 595.281 595.275"
   enable-background="new 0 123.307 595.281 595.275"
   xml:space="preserve"
   sodipodi:docname="appointment.svg"
   inkscape:version="0.91 r13725"
   inkscape:export-filename="C:\Users\Adrien\Desktop\Documentation\Visioconsult\serveur\nvp-visioconsult\tablet\src\assets\images\icons\appointment.png"
   inkscape:export-xdpi="90"
   inkscape:export-ydpi="90"><metadata
     id="metadata39"><rdf:RDF><cc:Work
         rdf:about=""><dc:format>image/svg+xml</dc:format><dc:type
           rdf:resource="http://purl.org/dc/dcmitype/StillImage" /><dc:title></dc:title></cc:Work></rdf:RDF></metadata><defs
     id="defs37" /><sodipodi:namedview
     pagecolor="#ffffff"
     bordercolor="#666666"
     borderopacity="1"
     objecttolerance="10"
     gridtolerance="10"
     guidetolerance="10"
     inkscape:pageopacity="0"
     inkscape:pageshadow="2"
     inkscape:window-width="1600"
     inkscape:window-height="838"
     id="namedview35"
     showgrid="false"
     inkscape:zoom="0.5"
     inkscape:cx="147.71788"
     inkscape:cy="297.63751"
     inkscape:window-x="-8"
     inkscape:window-y="-8"
     inkscape:window-maximized="1"
     inkscape:current-layer="Layer_1" /><g
     id="g8"
     style="fill:#000000"><g
       id="g6"
       style="fill:#000000"><path
         style="fill:#ff0000"
         d="m 373.19727,411.4375 c -27.09735,0.13428 -55.06645,14.8324 -66.99429,39.87336 -20.15007,37.48214 -11.9073,85.84805 14.51968,118.25945 17.31881,27.42843 18.83292,60.84764 25.40303,91.52657 3.92547,15.52479 8.9606,32.17798 20.85673,43.55351 7.88883,7.049 21.48826,8.52431 28.75391,-0.2168 11.34033,-11.97135 15.51781,-28.63253 19.43945,-44.20507 4.01928,-20.56975 4.04526,-42.74194 15.06624,-61.32413 1.32069,-5.04325 3.33456,1.87379 4.86345,3.84561 11.67847,22.04129 8.24504,48.17715 16.80201,71.21904 4.14376,14.0855 10.33089,30.81865 25.3601,36.16963 13.64792,2.65217 25.24434,-9.093 30.06445,-20.77344 17.52548,-33.73661 11.40392,-75.01561 29.97456,-108.61317 9.08084,-18.95917 23.61741,-35.41398 27.85161,-56.48058 8.18073,-32.62399 1.04456,-70.96102 -24.39258,-94.28906 -22.22129,-19.27789 -54.93064,-22.68531 -82.66406,-14.14062 -3.16664,1.00945 -8.77466,3.08064 -12.21798,5.63582 -4.30882,2.55735 -5.30899,3.77609 -7.99128,5.89843 -4.84887,2.73251 -5.10314,0.50453 -9.93332,-3.81355 -17.35969,-6.89807 -35.74936,-12.5909 -54.76171,-12.125 z m 114.9375,18.83789 c 22.21556,-0.34916 45.09087,11.84531 53.87976,32.86053 14.28422,30.3171 7.14524,67.52711 -13.0868,93.42267 -17.39021,27.00709 -24.26325,58.71459 -27.91838,90.09547 -3.19928,17.41624 -8.80978,34.72043 -19.1324,49.2893 -16.67138,-26.36325 -16.76819,-58.61706 -24.00976,-88.02344 -3.82788,-12.29104 -14.5697,-25.23532 -28.76953,-23.18164 -14.13047,1.78661 -22.4783,15.66514 -24.98962,28.545 -5.63989,22.83311 -5.26421,47.23032 -15.70374,68.81633 -2.0521,4.78959 -4.3835,9.45073 -6.67383,14.12891 -19.00897,-25.48972 -19.79738,-58.48249 -26.07444,-88.40086 -4.79463,-26.26813 -20.33337,-48.91994 -33.47439,-71.80422 -13.45735,-28.96316 -11.45217,-67.07379 11.64648,-90.64844 34.18413,-22.97066 50.88406,-18.51972 74.47657,-8.63867 8.44278,3.4055 16.36692,8.30703 23.38281,13.95117 15.55268,-13.22794 36.05821,-20.51322 56.44727,-20.41211 z"
         id="path2"
         inkscape:connector-curvature="0"
         sodipodi:nodetypes="cccccccccccccccccccccccccccccccccccc" /><path
         style="fill:#ffffff"
         d="m 122.37695,154.50977 c -1.07005,8.37807 -11.33296,9.30968 -17.93554,7.86914 -25.856127,0.24746 -51.71356,0.0932 -77.570316,0.125 0,144.51562 0,289.03125 0,433.54687 96.257816,0 192.515626,0 288.773436,0 -2.21407,-6.6195 -4.92792,-13.15809 -8.98242,-18.88086 -86.97005,0 -173.9401,0 -260.910157,0 0,-93.15104 0,-186.30208 0,-279.45312 125.494137,0 250.988277,0 376.482427,0 -10e-6,35.33333 0,70.66666 0,106 5.50523,1.80637 10.8514,5.07429 16.41601,6.05859 5.39551,-4.75145 1.17756,-12.5309 2.46311,-18.49023 0.002,-76.25782 0.004,-152.51563 0.006,-228.77344 -31.83529,0 -63.67057,0 -95.50586,0 0,-10.40169 0,-20.80339 0,-31.20508 -6.29297,0 -12.58594,0 -18.8789,0 -10e-6,10.40104 0,20.80208 0,31.20313 -61.82618,0 -123.65235,0 -185.47852,0 0,-10.40105 0,-20.80209 0,-31.20313 -6.29297,0 -12.58594,0 -18.87891,0 0,7.73438 0,15.46875 0,23.20313 z m -74.624997,26.8789 c 24.875651,0 49.751302,0 74.626957,0 0,7.54492 0,15.08985 0,22.63477 6.29231,0 12.58463,0 18.87695,0 0,-7.54492 0,-15.08985 0,-22.63477 61.82617,0 123.65234,0 185.47852,0 0,7.54492 0,15.08985 0,22.63477 6.29296,0 12.58593,0 18.8789,0 0,-7.54492 0,-15.08985 0,-22.63477 25.54297,0 51.08594,0 76.62891,0 0,32.48242 0,64.96485 0,97.44727 -125.49675,0 -250.99349,0 -376.490237,0 0,-32.48242 0,-64.96485 0,-97.44727 h 1 z"
         id="path4"
         inkscape:connector-curvature="0" /></g></g><g
     id="g14"
     style="fill:#ffffff"><g
       id="g12"
       style="fill:#ffffff"><rect
         x="113.077"
         y="353.529"
         width="34.879"
         height="34.879"
         id="rect10"
         style="fill:#ffffff" /></g></g><g
     id="g20"
     style="fill:#ffffff"><g
       id="g18"
       style="fill:#ffffff"><rect
         x="182.068"
         y="353.529"
         width="34.878"
         height="34.879"
         id="rect16"
         style="fill:#ffffff" /></g></g><g
     id="g26"
     style="fill:#ffffff"><g
       id="g24"
       style="fill:#ffffff"><rect
         x="251.047"
         y="353.529"
         width="34.878"
         height="34.879"
         id="rect22"
         style="fill:#ffffff" /></g></g><g
     id="g32"
     style="fill:#ffffff"><g
       id="g30"
       style="fill:#ffffff"><rect
         x="320.025"
         y="353.529"
         width="34.879"
         height="34.879"
         id="rect28"
         style="fill:#ffffff" /></g></g></svg>