<?xml version="1.0" encoding="UTF-8" standalone="no"?>
<!-- Generator: Adobe Illustrator 19.0.0, SVG Export Plug-In . SVG Version: 6.00 Build 0)  -->

<svg
   xmlns:dc="http://purl.org/dc/elements/1.1/"
   xmlns:cc="http://creativecommons.org/ns#"
   xmlns:rdf="http://www.w3.org/1999/02/22-rdf-syntax-ns#"
   xmlns:svg="http://www.w3.org/2000/svg"
   xmlns="http://www.w3.org/2000/svg"
   xmlns:sodipodi="http://sodipodi.sourceforge.net/DTD/sodipodi-0.dtd"
   xmlns:inkscape="http://www.inkscape.org/namespaces/inkscape"
   version="1.1"
   id="Layer_1"
   x="0px"
   y="0px"
   viewBox="0 0 512 512"
   style="enable-background:new 0 0 512 512;fill:white"
   xml:space="preserve"
   sodipodi:docname="barcode.svg"
   inkscape:version="0.91 r13725"><metadata
     id="metadata97"><rdf:RDF><cc:Work
         rdf:about=""><dc:format>image/svg+xml</dc:format><dc:type
           rdf:resource="http://purl.org/dc/dcmitype/StillImage" /><dc:title></dc:title></cc:Work></rdf:RDF></metadata><defs
     id="defs95" /><sodipodi:namedview
     pagecolor="#ffffff"
     bordercolor="#666666"
     borderopacity="1"
     objecttolerance="10"
     gridtolerance="10"
     guidetolerance="10"
     inkscape:pageopacity="0"
     inkscape:pageshadow="2"
     inkscape:window-width="1600"
     inkscape:window-height="838"
     id="namedview93"
     showgrid="false"
     inkscape:zoom="0.5"
     inkscape:cx="256"
     inkscape:cy="256"
     inkscape:window-x="-8"
     inkscape:window-y="-8"
     inkscape:window-maximized="1"
     inkscape:current-layer="Layer_1" /><g
     id="g6"
     style="fill:#000000"
     transform="translate(0,10)"><g
       id="g4"
       style="fill:#000000"><path
         style="fill:#ff0000"
         d="M 234.14453,7.6914062 C 166.15737,8.5132409 98.15184,7.5923546 30.171947,8.1563813 24.963826,7.4520316 18.894536,9.4604757 18.263672,15.513672 c -1.057067,13.556832 0.261648,27.280069 -0.214738,40.902343 0.178695,58.324335 -0.744356,116.771615 0.589738,175.019535 4.445544,8.60307 15.720585,5.0689 23.40428,5.54752 66.361098,-0.27948 132.793338,0.67732 199.109388,-0.51627 8.60359,-3.92039 5.58427,-15.08321 5.83333,-22.50976 C 246.65916,147.17381 247.7423,80.300562 246.40625,13.574219 244.54437,8.8232968 238.71509,7.5370346 234.14453,7.6914062 Z M 38,26 c 63.66667,0 127.33333,0 191,0 0,64.333333 0,128.66667 0,193 -64.33333,0 -128.66667,0 -193,0 0,-64.33333 0,-128.666667 0,-193 h 1 z"
         id="path2"
         inkscape:connector-curvature="0" /></g></g><g
     id="g12"
     style="fill:#ffffff"><g
       id="g10"
       style="fill:#ffffff"><path
         style="fill:#ffffff"
         d="m 479.14453,17.691406 c -67.98716,0.821835 -135.99269,-0.09905 -203.97258,0.464975 -5.20812,-0.704349 -11.27741,1.304095 -11.90828,7.357291 -1.05707,13.556832 0.26165,27.280069 -0.21474,40.902343 0.1787,58.324335 -0.74435,116.771615 0.58974,175.019535 4.44555,8.60307 15.72059,5.0689 23.40428,5.54752 66.3611,-0.27948 132.79334,0.67732 199.10939,-0.51627 8.60359,-3.92039 5.58427,-15.08321 5.83333,-22.50976 -0.32651,-66.78323 0.75663,-133.656478 -0.57942,-200.382821 -1.86188,-4.750922 -7.69116,-6.037184 -12.26172,-5.882813 z M 283,36 c 63.66667,0 127.33333,0 191,0 0,64.33333 0,128.66667 0,193 -64.33333,0 -128.66667,0 -193,0 0,-64.33333 0,-128.66667 0,-193 h 1 z"
         id="path8"
         inkscape:connector-curvature="0" /></g></g><g
     id="g18"
     style="fill:#ffffff"><g
       id="g16"
       style="fill:#ffffff"><path
         style="fill:#ffffff"
         d="m 419.07812,77.716797 c -30.15286,1.041898 -60.47027,-0.697525 -90.52539,0.900391 -8.48103,4.447155 -5.13561,15.206728 -5.47265,22.791012 0.28453,26.85422 -1.11911,53.96786 0.83594,80.63086 4.59134,7.70503 15.18345,4.5351 22.56051,4.90955 26.84438,-0.39721 53.90931,1.14905 80.56253,-0.86463 7.70503,-4.59134 4.5351,-15.18345 4.90955,-22.56051 -0.42517,-26.91217 1.21083,-54.06331 -0.91931,-80.771517 -2.21793,-4.208094 -7.66419,-5.142032 -11.95118,-5.035156 z M 343,96 c 23.66667,0 47.33333,0 71,0 0,24.33333 0,48.66667 0,73 -24.33333,0 -48.66667,0 -73,0 0,-24.33333 0,-48.66667 0,-73 h 1 z"
         id="path14"
         inkscape:connector-curvature="0" /></g></g><g
     id="g24"
     style="fill:#000000"><g
       id="g22"
       style="fill:#000000"><path
         style="fill:#ff0000"
         d="m 174.07812,77.716797 c -30.15286,1.041898 -60.47027,-0.697525 -90.525386,0.900391 -8.481039,4.447155 -5.135618,15.206728 -5.472656,22.791012 0.28453,26.85422 -1.119108,53.96786 0.835938,80.63086 4.591349,7.70503 15.183458,4.5351 22.560514,4.90955 26.84438,-0.39721 53.90931,1.14905 80.56253,-0.86463 7.70503,-4.59134 4.5351,-15.18345 4.90955,-22.56051 -0.42517,-26.91217 1.21083,-54.06331 -0.91931,-80.771517 -2.21793,-4.208094 -7.66419,-5.142032 -11.95118,-5.035156 z M 98,96 c 23.66667,0 47.33333,0 71,0 0,24.33333 0,48.66667 0,73 -24.33333,0 -48.66667,0 -73,0 0,-24.33333 0,-48.66667 0,-73 h 1 z"
         id="path20"
         inkscape:connector-curvature="0" /></g></g><g
     id="g30"
     style="fill:#ffffff"
     transform="translate(2,-4)"><g
       id="g28"
       style="fill:#ffffff"><path
         style="fill:#ffffff"
         d="m 172.07812,322.7168 c -30.15286,1.04189 -60.47027,-0.69753 -90.525386,0.90039 -8.481039,4.44715 -5.135618,15.20673 -5.472656,22.79101 0.28453,26.85422 -1.119108,53.96786 0.835938,80.63086 4.591349,7.70503 15.183458,4.5351 22.560511,4.90955 26.844383,-0.39721 53.909313,1.14905 80.562533,-0.86463 7.70503,-4.59134 4.5351,-15.18345 4.90955,-22.56051 -0.42517,-26.91217 1.21083,-54.06331 -0.91931,-80.77152 -2.21793,-4.20809 -7.66419,-5.14203 -11.95118,-5.03515 z M 96,341 c 23.66667,0 47.33333,0 71,0 0,24.33333 0,48.66667 0,73 -24.33333,0 -48.66667,0 -73,0 0,-24.33333 0,-48.66667 0,-73 h 1 z"
         id="path26"
         inkscape:connector-curvature="0" /></g></g><g
     id="g36"
     style="fill:#ffffff"
     transform="translate(10,-10)"><g
       id="g34"
       style="fill:#ffffff"><path
         style="fill:#ffffff"
         d="m 224.14453,268.69141 c -67.98716,0.82183 -135.992686,-0.0991 -203.972583,0.46497 -5.208121,-0.70435 -11.2774108,1.3041 -11.9082751,7.35729 -1.0570672,13.55683 0.2616484,27.28007 -0.2147384,40.90235 0.1786958,58.32433 -0.7443555,116.77161 0.5897384,175.01953 4.4455441,8.60307 15.7205851,5.0689 23.4042801,5.54752 66.361094,-0.27948 132.793338,0.67732 199.109388,-0.51627 8.60359,-3.92039 5.58427,-15.08321 5.83333,-22.50976 -0.32651,-66.78323 0.75663,-133.65648 -0.57942,-200.38282 -1.86188,-4.75092 -7.69116,-6.03719 -12.26172,-5.88281 z M 28,287 c 63.666667,0 127.33333,0 191,0 0,64.33333 0,128.66667 0,193 -64.33333,0 -128.666667,0 -193,0 0,-64.33333 0,-128.66667 0,-193 h 1 z"
         id="path32"
         inkscape:connector-curvature="0" /></g></g><g
     id="g42"
     style="fill:#ffffff"><g
       id="g40"
       style="fill:#ffffff"><path
         style="fill:#ffffff"
         d="m 469.00195,381.87109 c -16.58281,0.94646 -33.41,-1.03381 -49.82617,0.91602 -8.37011,4.78393 -4.20635,15.28673 -5.13672,22.92969 -0.86495,5.09287 -6.348,8.25911 -11.199,6.61585 -24.75934,-0.37879 -49.6673,-0.97533 -74.34397,0.3529 -8.16005,4.08655 -5.25387,14.93347 -5.38476,22.27148 0.4309,16.94832 -1.65185,34.27994 1.26562,50.84961 5.65617,7.20948 15.93594,3.34752 23.74414,4.03516 7.21938,-0.006 17.76297,2.62737 22.1543,-5.0625 2.89963,-6.6571 -3.63966,-14.79822 -10.74401,-12.77203 -6.17681,-0.0946 -12.35483,0.1007 -18.53138,-0.0502 0,-13.97135 0,-27.94271 0,-41.91406 28.63734,-0.68266 57.52777,1.15103 85.97852,-0.92774 8.10329,-4.71274 4.14364,-14.76921 4.73632,-22.20312 1.1817,-5.94886 7.99893,-8.80723 13.45702,-7.18777 14.29474,-0.22608 29.08726,1.97802 43.08009,-1.21457 6.44379,-4.20399 3.76202,-17.08638 -4.7984,-16.13786 -4.80206,-0.45366 -9.63125,-0.51912 -14.4516,-0.50082 z"
         id="path38"
         inkscape:connector-curvature="0" /></g></g><g
     id="g48"
     style="fill:#ffffff"><g
       id="g46"
       style="fill:#ffffff"><path
         style="fill:#ffffff"
         d="m 482.47461,442.01367 c -8.59271,0.49803 -9.94933,11.33018 -8.25586,18.04492 0.92421,5.50988 -1.95196,13.46275 -8.77411,12.4456 -15.67046,-0.53736 -31.71588,-1.54679 -47.12823,0.6169 -7.31829,3.99099 -4.31872,18.06934 4.85937,16.55664 18.81924,0.90109 37.83073,-0.15708 56.71875,0.35352 5.47357,0.50041 12.154,-2.21091 11.79688,-8.69922 1.05909,-10.20363 -0.25192,-20.57364 0.35937,-30.89453 -0.61027,-4.67333 -4.60588,-8.937 -9.57617,-8.42383 z"
         id="path44"
         inkscape:connector-curvature="0" /></g></g><g
     id="g54"
     style="fill:#ffffff"
     transform="translate(-12,-12)"><g
       id="g52"
       style="fill:#ffffff"><path
         style="fill:#ffffff"
         d="m 436.67383,272.7832 c -12.40203,1.65489 -25.34877,-2.24808 -37.06641,2.04492 -6.91056,7.05971 -2.37504,17.60298 -3.60742,26.32227 0,20.64974 0,41.29948 0,61.94922 -34.33333,-5.6e-4 -68.66667,-10e-4 -103,-0.002 0,-24.03256 0,-48.06511 0,-72.09766 13.84961,0 27.69922,0 41.54883,0 2.57053,9.31798 -3.49744,21.00982 4.34765,28.5 6.88264,5.21611 17.08976,-3.59156 14.0293,-11.37891 -1.02138,-10.76955 2.79133,-22.61412 -2.49023,-32.52148 -7.28672,-5.15008 -17.02687,-1.64858 -25.3086,-2.5332 -15.14436,0.29302 -30.67598,-1.21626 -45.55468,1.03125 -8.0709,6.06729 -3.47957,17.47555 -4.54615,25.94528 0.26492,65.47151 -0.71233,131.00627 0.54029,196.43753 2.75038,8.02265 17.58932,6.72841 17.07812,-2.58203 1.11328,-15.0096 -0.36038,-30.05027 0.35547,-45.09766 0,-22.59245 0,-45.18489 0,-67.77734 38.5671,-0.55487 77.30418,0.86349 115.75586,-0.84766 7.90995,-4.28688 4.92674,-14.90895 5.24414,-22.22266 0,-22.13606 0,-44.27213 0,-66.4082 9.85314,-2.97222 21.883,3.5627 30.13281,-4.18164 4.54618,-5.38909 -0.58991,-14.86523 -7.45898,-14.58008 z"
         id="path50"
         inkscape:connector-curvature="0" /></g></g><g
     id="g60"
     style="fill:#ffffff"><g
       id="g58"
       style="fill:#ffffff"><path
         style="fill:#ffffff"
         d="m 482.9082,260.99414 c -8.41655,0.003 -10.41863,10.45182 -8.9082,17.05664 0,14.16602 0,28.33203 0,42.49805 -9.30812,2.57761 -21.03077,-3.51449 -28.50781,4.35742 -5.18954,6.88032 3.59743,17.0875 11.38672,14.01953 10.66356,-1.01158 22.37271,2.71973 32.21875,-2.3418 5.81505,-7.71145 1.78395,-17.94149 2.7703,-26.82028 -0.24403,-14.80371 1.44866,-29.75573 -1.11796,-44.36331 -1.61669,-2.67602 -4.69141,-4.49314 -7.8418,-4.40625 z"
         id="path56"
         inkscape:connector-curvature="0" /></g></g><g
     id="g62"
     style="fill:#ffffff" /><g
     id="g64"
     style="fill:#ffffff" /><g
     id="g66"
     style="fill:#ffffff" /><g
     id="g68"
     style="fill:#ffffff" /><g
     id="g70"
     style="fill:#ffffff" /><g
     id="g72"
     style="fill:#ffffff" /><g
     id="g74"
     style="fill:#ffffff" /><g
     id="g76"
     style="fill:#ffffff" /><g
     id="g78"
     style="fill:#ffffff" /><g
     id="g80"
     style="fill:#ffffff" /><g
     id="g82"
     style="fill:#ffffff" /><g
     id="g84"
     style="fill:#ffffff" /><g
     id="g86"
     style="fill:#ffffff" /><g
     id="g88"
     style="fill:#ffffff" /><g
     id="g90"
     style="fill:#ffffff" /></svg>