<?xml version="1.0" encoding="UTF-8" standalone="no"?>
<!-- Generator: Adobe Illustrator 15.0.0, SVG Export Plug-In . SVG Version: 6.00 Build 0)  -->

<svg
   xmlns:dc="http://purl.org/dc/elements/1.1/"
   xmlns:cc="http://creativecommons.org/ns#"
   xmlns:rdf="http://www.w3.org/1999/02/22-rdf-syntax-ns#"
   xmlns:svg="http://www.w3.org/2000/svg"
   xmlns="http://www.w3.org/2000/svg"
   xmlns:sodipodi="http://sodipodi.sourceforge.net/DTD/sodipodi-0.dtd"
   xmlns:inkscape="http://www.inkscape.org/namespaces/inkscape"
   version="1.1"
   id="Calque_1"
   style="fill:white"
   x="0px"
   y="0px"
   viewBox="0 123.307 595.281 595.275"
   xml:space="preserve"
   sodipodi:docname="battery.svg"
   inkscape:version="0.91 r13725"
   inkscape:export-filename="C:\Users\Adrien\Desktop\Documentation\Visioconsult\serveur\nvp-visioconsult\tablet\src\assets\images\icons\battery.png"
   inkscape:export-xdpi="90"
   inkscape:export-ydpi="90"><metadata
     id="metadata17"><rdf:RDF><cc:Work
         rdf:about=""><dc:format>image/svg+xml</dc:format><dc:type
           rdf:resource="http://purl.org/dc/dcmitype/StillImage" /><dc:title /></cc:Work></rdf:RDF></metadata><defs
     id="defs15" /><sodipodi:namedview
     pagecolor="#ffffff"
     bordercolor="#666666"
     borderopacity="1"
     objecttolerance="10"
     gridtolerance="10"
     guidetolerance="10"
     inkscape:pageopacity="0"
     inkscape:pageshadow="2"
     inkscape:window-width="1920"
     inkscape:window-height="1058"
     id="namedview13"
     showgrid="false"
     inkscape:lockguides="true"
     inkscape:zoom="0.5"
     inkscape:cx="-67.3595"
     inkscape:cy="297.63751"
     inkscape:window-x="1592"
     inkscape:window-y="-8"
     inkscape:window-maximized="1"
     inkscape:current-layer="g8" /><g
     id="g10"
     style="fill:#000000"><g
       id="g8"
       style="fill:#000000"><path
         style="fill:#ff0000"
         d="m 130.48047,315.38867 c -8.21077,0.8144 -11.18616,11.09519 -9.08338,17.98632 0.50586,62.05416 -1.15172,124.26523 0.88807,186.21876 4.76522,8.83846 22.48086,5.8597 20.77825,-5.43911 0.66441,-44.47363 -0.18467,-88.95804 0.46784,-133.43589 -0.1972,-20.24007 0.40148,-40.81588 -1.63086,-60.75781 -2.56903,-3.57703 -7.19254,-4.8006 -11.41992,-4.57227 z"
         id="path2"
         inkscape:connector-curvature="0" /><path
         style="fill:#ff0000"
         d="m 77.419922,315.375 c -8.419157,0.48486 -11.657673,11.01231 -9.460167,18.0039 0.507028,62.04116 -1.129619,124.23344 0.876183,186.17774 4.749864,8.84712 22.513488,5.94695 20.794546,-5.40393 0.668771,-44.28074 -0.191545,-88.57267 0.465219,-132.85779 C 89.906092,360.87157 90.493856,340.17546 88.494141,320 c -2.476883,-3.49091 -6.950664,-4.78813 -11.074219,-4.625 z"
         id="path4"
         inkscape:connector-curvature="0" /><path
         style="fill:#ffffff"
         d="m 459.82422,243.69141 c -147.55256,1.0887 -295.16226,-0.36907 -442.718751,0.73632 -9.1048846,2.96413 -7.5901967,14.12611 -7.092198,21.58984 0.426402,108.57082 -0.9524985,217.24419 0.736729,325.75001 6.437047,9.94464 19.647046,5.22516 29.294912,6.05189 143.275098,-0.35828 286.621458,0.84131 429.851568,-0.6515 9.09823,-4.10931 6.34859,-15.43033 6.26563,-23.30274 0,-25.04101 0,-50.08203 0,-75.12304 34.76363,-1.19786 69.7896,1.78215 104.34766,-1.50781 7.99806,-5.35834 4.19075,-16.52878 4.71133,-24.58007 -0.44645,-41.69325 1.31202,-83.63076 -0.98672,-125.15822 -5.92418,-8.09048 -17.49487,-4.70002 -26.00977,-5.15039 -27.30534,0 -54.61068,0 -81.91602,0 -1.40563,-31.31519 2.05676,-63.04547 -1.73047,-94.02148 -3.59515,-4.20239 -9.57706,-4.71588 -14.7539,-4.63281 z M 36.007812,261.89453 c 140.261718,0 280.523438,0 420.785158,0 -0.44184,105.15691 -0.88813,210.3138 -1.33008,315.4707 -141.59766,0 -283.19531,0 -424.792968,0 1.119852,-105.1569 2.23876,-210.31381 3.359375,-315.4707 h 1 z m 442.154298,98.28906 c 28.37044,0 56.74088,0 85.11133,0 0,40.35352 0,80.70703 0,121.06055 -29.03711,0 -58.07422,0 -87.11133,0 0,-40.35351 0,-80.70703 0,-121.06055 h 1 z"
         id="path6"
         inkscape:connector-curvature="0" /></g></g><path
     style="fill:#ffffff"
     d="m 188.12891,316.80859 c -8.2554,0.77039 -11.25565,11.09276 -9.13807,17.99023 0.50947,62.05458 -1.15782,124.2678 0.89002,186.22071 4.7716,8.83661 22.47828,5.85656 20.77666,-5.44105 0.66237,-44.47623 -0.18567,-88.96327 0.46943,-133.44371 -0.17624,-20.22543 0.35924,-40.75801 -1.60742,-60.71094 -2.55588,-3.59794 -7.15263,-4.82438 -11.39062,-4.61524 z"
     id="path2-6"
     inkscape:connector-curvature="0" /></svg>