<?xml version="1.0" encoding="UTF-8" standalone="no"?>
<!-- Generator: Adobe Illustrator 19.0.0, SVG Export Plug-In . SVG Version: 6.00 Build 0)  -->

<svg
   xmlns:dc="http://purl.org/dc/elements/1.1/"
   xmlns:cc="http://creativecommons.org/ns#"
   xmlns:rdf="http://www.w3.org/1999/02/22-rdf-syntax-ns#"
   xmlns:svg="http://www.w3.org/2000/svg"
   xmlns="http://www.w3.org/2000/svg"
   xmlns:sodipodi="http://sodipodi.sourceforge.net/DTD/sodipodi-0.dtd"
   xmlns:inkscape="http://www.inkscape.org/namespaces/inkscape"
   version="1.1"
   id="Layer_1"
   x="0px"
   y="0px"
   viewBox="0 0 512 512"
   style="enable-background:new 0 0 512 512;fill:white"
   xml:space="preserve"
   sodipodi:docname="bloodpressureSelected.svg"
   inkscape:version="0.91 r13725"
   inkscape:export-filename="C:\Users\Adrien\Desktop\Documentation\Visioconsult\serveur\nvp-visioconsult\tablet\src\assets\images\icons\bloodpressureSelected.png"
   inkscape:export-xdpi="90"
   inkscape:export-ydpi="90"><metadata
     id="metadata55"><rdf:RDF><cc:Work
         rdf:about=""><dc:format>image/svg+xml</dc:format><dc:type
           rdf:resource="http://purl.org/dc/dcmitype/StillImage" /><dc:title></dc:title></cc:Work></rdf:RDF></metadata><defs
     id="defs53" /><sodipodi:namedview
     pagecolor="#ffffff"
     bordercolor="#666666"
     borderopacity="1"
     objecttolerance="10"
     gridtolerance="10"
     guidetolerance="10"
     inkscape:pageopacity="0"
     inkscape:pageshadow="2"
     inkscape:window-width="1920"
     inkscape:window-height="1058"
     id="namedview51"
     showgrid="false"
     inkscape:zoom="0.5"
     inkscape:cx="-109"
     inkscape:cy="256"
     inkscape:window-x="1592"
     inkscape:window-y="-8"
     inkscape:window-maximized="1"
     inkscape:current-layer="g10" /><g
     id="g6"
     style="fill:#000000"><g
       class="red"
       style="fill:#000000"
       id="g4"><path
         style="fill:#ff0000"
         d="m 279.12109,188.87695 c -6.87103,0.131 -13.54661,2.51998 -19.3164,6.17383 -18.59878,-13.9267 -49.12807,-3.01686 -54.45117,19.67969 -4.2618,14.98759 2.57901,31.18682 14.838,40.46893 13.22588,13.2265 26.45175,26.45301 39.67762,39.67951 17.06456,-17.88829 36.1779,-33.98405 51.57031,-53.37305 11.18324,-19.20102 -0.68259,-47.35909 -22.82226,-51.62695 -3.10181,-0.75365 -6.30481,-1.10047 -9.4961,-1.00196 z m -39.57421,17.88282 c 8.84132,-0.0665 14.94183,7.19153 20.32421,13.19921 5.9815,-7.21722 14.48064,-15.4946 24.77149,-12.70312 12.47807,3.00583 18.01061,21.50475 7.42948,29.83916 -10.44687,11.11768 -21.64788,21.49113 -32.24394,32.46357 -11.66758,-13.45969 -26.70651,-24.06162 -36.64843,-38.93945 -4.5311,-10.76007 4.75775,-24.12469 16.36719,-23.85937 z"
         id="path2"
         inkscape:connector-curvature="0" /></g></g><g
     id="g12"
     style="fill:#000000"><g
       id="g10"
       style="fill:#000000"><path
         style="fill:#1c2833;fill-opacity:1"
         d="M 75.107422,6.0253906 C 36.590732,5.9860073 2.9688025,42.393734 5.9700424,80.785949 7.5473476,112.48654 32.551677,141.95095 64.246094,146.69531 c 6.540823,2.6733 3.38595,11.08931 5.115571,16.28132 7.25896,44.56824 46.744135,82.01975 92.054355,85.57025 5.77301,1.61445 2.51332,8.8426 3.35812,12.96282 0.39724,19.81257 -1.7247,40.01055 1.49344,59.50592 4.53731,12.17882 18.48717,18.36345 30.86523,16.34571 52.59115,0 105.18229,0 157.77344,0 -0.85768,-5.50699 2.06543,-13.31627 8.84395,-12.26314 12.83796,0.4929 27.45789,3.15296 38.54863,-5.21733 9.83396,-8.17483 10.1887,-21.88964 9.20957,-33.58783 -0.16837,-12.30752 0.0806,-24.61606 -0.0436,-36.92389 41.58351,3.68896 76.66935,41.856 76.65625,83.64844 1.41145,39.25492 -27.27889,77.80153 -66.09765,85.78515 -23.59045,4.84011 -47.83592,1.18392 -71.61133,2.30665 -49.93294,-10e-6 -99.86589,0 -149.79883,0 -3.7205,-38.97371 -42.18419,-70.77012 -81.3358,-66.7316 -25.710287,0.33651 -53.483975,-4.0581 -76.292735,10.56842 -27.898434,16.68058 -43.41497996,51.60457 -34.8675575,83.26474 7.7621795,31.73564 37.4927765,57.2414 70.4414065,57.59179 18.096386,0.77668 36.614806,-0.0607 54.615236,-0.0684 32.7632,-3.44713 62.11871,-29.99656 66.66992,-62.90626 3.41757,-6.83908 12.64685,-2.65721 18.33199,-3.74757 65.96224,-0.38464 131.9762,0.99775 197.90479,-0.79149 46.35534,-5.58864 85.64194,-45.91 89.49233,-92.28537 4.53271,-40.93153 -17.43717,-84.02004 -54.51622,-102.84744 -12.20556,-6.51756 -25.80636,-10.53 -39.47656,-11.8457 -1.23783,-20.22965 2.03471,-40.7489 -1.77539,-60.70703 -4.68625,-12.42973 -19.25034,-18.382 -31.79883,-16.17383 -7.53646,0 -15.07292,0 -22.60938,0 -1.22746,-4.03837 0.85812,-8.28129 -0.39257,-12.2461 -39.48788,1.23451 -79.0082,0.0703 -118.50976,0.43455 -17.8214,0.2179 -35.77832,-0.45679 -53.51173,0.97756 -13.15534,3.61665 -20.66782,18.44653 -18.32031,31.54297 0,18.56836 0,37.13672 0,55.70508 -39.12298,-2.55816 -73.516764,-35.49431 -78.080079,-74.36914 -1.814149,-5.0224 1.8964,-11.23264 7.577716,-10.55302 C 130.2224,137.78995 155.2687,97.941876 146.5293,61.912109 139.58447,29.745475 108.37289,4.1981774 75.107422,6.0253906 Z M 77.029297,23.986328 C 106.79586,23.080715 133.24664,51.789891 129.93164,81.396484 127.97825,109.12021 101.40965,132.63491 73.488281,129.99219 47.367212,128.40691 24.170951,105.37754 23.935547,78.925781 22.948524,53.823213 41.675359,29.12964 66.785156,24.994141 c 3.372467,-0.65969 6.808578,-0.986468 10.244141,-1.007813 z M 190.04883,160.66406 c 49.03125,0 98.0625,0 147.09375,0 0,52.9017 0,105.80339 0,158.70508 -49.89589,-0.3318 -99.98749,0.62423 -149.76563,-0.48047 -7.58938,-3.92551 -3.92242,-13.36923 -4.7066,-19.99217 0.48972,-44.7005 -1.04168,-89.56783 0.79645,-134.16408 1.22425,-2.42869 3.8552,-4.07732 6.58203,-4.06836 z m 187.83008,11.61719 c 5.72047,-0.31678 14.84993,-0.28671 15.65429,7.28125 -0.4478,41.04695 0.43195,82.14977 -0.34179,123.21875 -4.25438,7.66514 -13.87351,4.27965 -20.79297,4.49219 -5.63988,0.54767 -14.70096,2.56002 -16.92969,-4.67188 -0.81574,-43.39615 -0.0367,-86.80968 -0.32422,-130.21289 7.57759,0.2149 15.15835,0.12006 22.73438,-0.10742 z M 117.70508,372.02148 c 16.31565,-0.46813 33.62717,3.05698 45.79297,14.67188 19.55633,16.95787 25.80405,47.62335 12.96875,70.40039 -10.69613,20.16925 -33.78252,33.24456 -56.66209,30.78434 -18.51856,-0.39841 -37.558462,2.12083 -55.699241,-2.55582 -27.766558,-8.65531 -46.157157,-40.25377 -38.660157,-68.6211 6.270339,-26.97159 33.697686,-47.4035 61.470615,-44.36948 10.264173,0.0963 20.525043,-0.30484 30.789153,-0.31021 z"
         id="path8"
         inkscape:connector-curvature="0" /></g></g><g
     id="g18"
     style="fill:#1c2833;fill-opacity:1"><g
       id="g16"
       style="fill:#1c2833;fill-opacity:1"><path
         style="fill:#1c2833;fill-opacity:1"
         d="m 55.998047,94 c 14.32487,0 28.649739,0 42.974613,0 0,-8.667318 0,-17.334635 0,-26.001953 -5.15657,-1.167656 -15.08772,2.439279 -16.97266,-2 -1.484109,-4.84011 3.637686,-16.286124 -4,-14.972656 -7.333984,0 -14.667969,0 -22.001953,0 0,14.324869 0,28.649739 0,42.974609 z"
         id="polygon14"
         inkscape:connector-curvature="0" /></g></g><g
     id="g20"
     style="fill:#000000" /><g
     id="g22"
     style="fill:#000000" /><g
     id="g24"
     style="fill:#000000" /><g
     id="g26"
     style="fill:#000000" /><g
     id="g28"
     style="fill:#000000" /><g
     id="g30"
     style="fill:#000000" /><g
     id="g32"
     style="fill:#000000" /><g
     id="g34"
     style="fill:#000000" /><g
     id="g36"
     style="fill:#000000" /><g
     id="g38"
     style="fill:#000000" /><g
     id="g40"
     style="fill:#000000" /><g
     id="g42"
     style="fill:#000000" /><g
     id="g44"
     style="fill:#000000" /><g
     id="g46"
     style="fill:#000000" /><g
     id="g48"
     style="fill:#000000" /></svg>