<?xml version="1.0" encoding="UTF-8" standalone="no"?>
<!-- Generator: Adobe Illustrator 15.0.0, SVG Export Plug-In . SVG Version: 6.00 Build 0)  -->

<svg
   xmlns:dc="http://purl.org/dc/elements/1.1/"
   xmlns:cc="http://creativecommons.org/ns#"
   xmlns:rdf="http://www.w3.org/1999/02/22-rdf-syntax-ns#"
   xmlns:svg="http://www.w3.org/2000/svg"
   xmlns="http://www.w3.org/2000/svg"
   xmlns:sodipodi="http://sodipodi.sourceforge.net/DTD/sodipodi-0.dtd"
   xmlns:inkscape="http://www.inkscape.org/namespaces/inkscape"
   version="1.1"
   id="Layer_1"
   x="0px"
   y="0px"
   style="fill:white"
   viewBox="0 123.307 595.281 595.275"
   enable-background="new 0 123.307 595.281 595.275"
   xml:space="preserve"
   sodipodi:docname="caducet.svg"
   inkscape:version="0.91 r13725"
   inkscape:export-filename="C:\Users\Adrien\Desktop\Documentation\Visioconsult\serveur\nvp-visioconsult\tablet\src\assets\images\icons\caducet.png"
   inkscape:export-xdpi="90"
   inkscape:export-ydpi="90"><metadata
     id="metadata15"><rdf:RDF><cc:Work
         rdf:about=""><dc:format>image/svg+xml</dc:format><dc:type
           rdf:resource="http://purl.org/dc/dcmitype/StillImage" /><dc:title></dc:title></cc:Work></rdf:RDF></metadata><defs
     id="defs13" /><sodipodi:namedview
     pagecolor="#ffffff"
     bordercolor="#666666"
     borderopacity="1"
     objecttolerance="10"
     gridtolerance="10"
     guidetolerance="10"
     inkscape:pageopacity="0"
     inkscape:pageshadow="2"
     inkscape:window-width="1920"
     inkscape:window-height="1058"
     id="namedview11"
     showgrid="false"
     inkscape:zoom="0.88"
     inkscape:cx="90.254136"
     inkscape:cy="336.44939"
     inkscape:window-x="1592"
     inkscape:window-y="-8"
     inkscape:window-maximized="1"
     inkscape:current-layer="g6" /><g
     id="g8"
     style="fill:#000000"><g
       id="g6"
       style="fill:#000000"><path
         style="fill:#ff0000"
         d="m 244.33203,131.31641 c -23.19849,0.10495 -48.86616,9.46953 -60.51953,30.64453 0.20263,4.88536 -7.55065,5.50826 -5.55078,10.74804 0.187,7.9698 -0.36754,16.15571 2.95898,23.70313 7.49333,3.26282 9.71149,12.52949 17.29069,15.79631 27.50558,19.2561 65.98534,18.77101 93.82064,0.81892 14.57169,-9.95772 24.70738,-29.54819 17.24414,-46.85546 -10.11151,-25.30032 -40.04708,-35.37462 -65.24414,-34.85547 z m 1.43945,24.38867 c 15.46862,0.0943 33.96931,4.69647 41.25977,19.79492 2.27331,10.77584 -8.26742,18.81529 -17.32813,21.91992 -20.89407,8.38376 -48.05783,6.22687 -63.65039,-11.36719 -5.55587,-8.77422 1.43743,-19.67791 10.07422,-23.09375 8.90627,-5.26393 19.41859,-7.12903 29.64453,-7.2539 z"
         id="path2"
         inkscape:connector-curvature="0" /><path
         style="fill:#ffffff"
         d="m 152.82812,180.65784 c -38.77439,15.63787 -75.787702,38.63927 -97.404292,75.43786 -19.488326,36.32245 -24.294342,78.9973 -20.43164,119.375 6.25016,48.82511 38.866883,92.61679 82.544922,114.80078 41.80671,21.48959 89.52422,26.98598 135.87137,31.49177 21.32488,2.12436 43.13305,2.82972 64.14035,6.28558 6.67907,5.62312 1.95789,14.89833 3.38281,22.15039 v 44.12305 c -32.18448,4.59686 -65.13713,4.48987 -96.81641,11.47851 -8.12732,5.85557 -4.72678,22.23464 6.31055,21.67969 13.63484,0.78 26.97284,-3.35633 40.59208,-3.47901 16.6386,-1.67343 33.27701,-3.34879 49.91573,-5.02099 v 65.125 c -38.00593,1.00095 -76.30423,-1.60632 -114.10351,1.33203 -9.11369,4.50261 -8.15255,21.64581 3.11523,22.45508 12.52796,2.26774 26.00044,-0.49382 39.07223,0.64191 70.02557,-0.50612 140.19735,1.37727 210.12894,-1.05597 9.01264,-4.17793 8.8453,-20.83608 -2.00976,-22.39844 -12.82081,-2.74853 -25.97897,0.40779 -38.93555,-0.89453 h -72.87109 v -67.38282 c 26.47102,-4.96506 54.2866,-1.75259 79.4375,-12.04882 24.83724,-13.14832 34.60319,-49.04969 17.60547,-72.17579 -9.70099,-14.64077 -27.40579,-23.04272 -44.89986,-22.6304 -17.36765,-1.74334 -34.78802,-2.75021 -52.14507,-4.69186 10e-6,-30.12826 0,-60.25651 0,-90.38477 63.01111,-2.50781 128.71273,-17.18737 178.85938,-57.55468 17.43782,-14.74324 35.00766,-33.52686 37.63281,-56.91797 0.0928,-20.68937 -20.38008,-38.63744 -40.94726,-35.24365 -126.6536,-0.0609 -253.32891,-0.34781 -379.96861,0.11648 -22.71641,-1.91904 -41.555192,22.81078 -35.20327,44.32053 9.9612,25.87845 31.12798,45.98463 54.0592,60.66567 47.9469,30.68521 105.16738,42.24547 161.16932,44.62925 v 88.45703 C 258.711,496.32644 193.64848,497.2009 135.08594,471.87479 91.477463,452.22846 58.392433,407.55981 58.222656,358.92969 c -1.067874,-32.4604 2.529123,-63.87086 18.939276,-92.28402 12.958903,-33.13091 63.217398,-59.74609 95.045658,-65.81147 18.9339,-2.45604 9.01311,-4.42209 6.05413,-28.12522 -1.125,0.44206 -24.30859,7.50681 -25.4336,7.94886 z M 470,289.41211 c 20.33405,0.34996 40.90588,-0.54968 61.08984,1.25195 8.24425,4.04763 6.82295,15.94581 1.11719,21.58594 -21.51694,33.34377 -59.13329,51.57758 -95.83606,63.10105 -80.31658,24.24997 -169.9772,20.22407 -246.21061,-15.70446 -24.36262,-12.35096 -47.8001,-29.9277 -60.21309,-54.85948 -2.69591,-7.47006 3.62201,-17.16527 12.05273,-15.18861 109.33301,-0.36002 218.66675,-0.0171 328,-0.18639 z M 347.33008,530.77539 c 22.06483,1.76912 44.82112,0.90291 66.20312,7.30078 17.09149,8.74404 16.95652,38.14869 -1.41797,45.34375 -14.16499,5.90055 -29.93739,3.36826 -44.71235,6.35721 -7.35761,0.73955 -14.71512,1.48011 -22.0728,2.21896 v -61.2207 h 1 z"
         id="path4"
         inkscape:connector-curvature="0"
         sodipodi:nodetypes="cccccccccccccccccccccccccccccccccccccccccccccccccccccccc" /></g></g></svg>