<?xml version="1.0" encoding="UTF-8" standalone="no"?>
<!-- Generator: Adobe Illustrator 16.0.0, SVG Export Plug-In . SVG Version: 6.00 Build 0)  -->

<svg
   xmlns:dc="http://purl.org/dc/elements/1.1/"
   xmlns:cc="http://creativecommons.org/ns#"
   xmlns:rdf="http://www.w3.org/1999/02/22-rdf-syntax-ns#"
   xmlns:svg="http://www.w3.org/2000/svg"
   xmlns="http://www.w3.org/2000/svg"
   xmlns:sodipodi="http://sodipodi.sourceforge.net/DTD/sodipodi-0.dtd"
   xmlns:inkscape="http://www.inkscape.org/namespaces/inkscape"
   version="1.1"
   id="Capa_1"
   x="0px"
   y="0px"
   viewBox="0 0 419.251 419.251"
   style="enable-background:new 0 0 419.251 419.251;fill:white"
   xml:space="preserve"
   sodipodi:docname="calendar.svg"
   inkscape:version="0.91 r13725"><metadata
     id="metadata45"><rdf:RDF><cc:Work
         rdf:about=""><dc:format>image/svg+xml</dc:format><dc:type
           rdf:resource="http://purl.org/dc/dcmitype/StillImage" /><dc:title></dc:title></cc:Work></rdf:RDF></metadata><defs
     id="defs43" /><sodipodi:namedview
     pagecolor="#ffffff"
     bordercolor="#666666"
     borderopacity="1"
     objecttolerance="10"
     gridtolerance="10"
     guidetolerance="10"
     inkscape:pageopacity="0"
     inkscape:pageshadow="2"
     inkscape:window-width="1600"
     inkscape:window-height="838"
     id="namedview41"
     showgrid="false"
     inkscape:zoom="0.5"
     inkscape:cx="209.6255"
     inkscape:cy="209.6255"
     inkscape:window-x="-8"
     inkscape:window-y="-8"
     inkscape:window-maximized="1"
     inkscape:current-layer="g6" /><g
     id="g8"><g
       id="g6"><path
         style="fill:#ffffff"
         d="m 164.04883,3.9355469 c -7.22468,0.6952267 -9.32194,8.8063261 -7.67383,14.7695311 -0.50581,6.601843 -9.24116,4.757298 -13.56641,4.388672 -19.91476,0.525038 -39.90995,0.07027 -59.855465,0.222656 C 83.729137,16.562574 84.634824,5.1368179 75.488281,4.0449219 67.101239,3.0538061 64.761617,13.060619 66.021484,19.458984 64.512569,25.335832 56.8154,23.452891 52.4375,23.105469 40.510748,22.98527 26.328301,21.961593 17.425781,31.712891 6.3433843,42.095755 9.2352425,58.400945 9.2171631,71.945268 c 0.477051,13.155996 -2.2933186,26.982699 2.6636959,39.421922 3.393915,7.0832 9.799231,12.56432 17.228516,15.05078 0.200315,88.26011 -0.405376,176.54336 0.3125,264.78906 2.050623,15.86032 19.03254,26.6611 34.21289,24.04379 100.791665,-0.18899 201.604385,0.3912 302.382815,-0.3016 15.43617,-2.00519 26.40908,-18.09979 24.12304,-33.22461 0,-85.11393 10e-6,-170.22787 0,-255.3418 14.2441,-4.18222 22.31498,-20.07778 19.95735,-34.286565 -0.686,-16.404971 1.74781,-33.133463 -1.36555,-49.33062 -4.34971,-13.590118 -19.43752,-21.584827 -33.11523,-19.449219 -7.54623,0 -15.09245,0 -22.63867,0 0.66989,-6.846306 1.68473,-17.9814674 -7.41602,-19.3242185 -7.54313,-0.8135242 -11.38959,8.0351035 -9.17969,14.2929685 0.19336,5.845245 -7.20215,5.802467 -11.26304,4.968831 -20.66644,0.06912 -41.43452,0.07663 -62.14125,0.06242 0.66989,-6.846306 1.68473,-17.9814674 -7.41602,-19.3242185 -7.54313,-0.8135242 -11.38959,8.0351035 -9.17969,14.2929685 0.19336,5.845245 -7.20215,5.802467 -11.26304,4.968831 -20.66644,0.06912 -41.43452,0.07663 -62.14125,0.06242 0.71133,-7.25368 1.64337,-19.6435145 -8.92969,-19.3808591 z M 89.326172,39.988281 c 17.529328,1.092303 35.190968,-0.104622 52.800778,0.328125 4.1467,1.499118 15.47,-3.39921 13.87147,3.221898 -1.17814,6.528221 1.59586,16.196347 9.86291,14.948024 6.8491,-1.122226 8.14988,-8.682852 7.30078,-14.375 1.45841,-6.08982 9.44002,-3.718864 13.83398,-3.523437 19.73393,-0.633546 39.59142,-0.09062 59.37305,-0.271485 -1.25697,6.698999 -1.04435,17.545729 7.79102,18.214844 7.36835,0.44107 10.42794,-7.977362 8.94922,-14.041016 0.8157,-5.947295 8.52144,-4.51438 12.6875,-3.982422 20.13026,-0.405449 40.39035,-0.09412 60.57226,-0.191406 -1.25697,6.698999 -1.04435,17.545729 7.79102,18.214844 7.36835,0.44107 10.42794,-7.977362 8.94922,-14.041016 0.8157,-5.947295 8.52144,-4.51438 12.6875,-3.982422 8.27572,0.486879 19.44309,-3.18023 25.34374,4.785157 4.40708,8.833759 0.96816,19.107946 1.90821,28.52539 -0.77633,10.367123 2.21145,21.514713 -1.64258,31.447261 -5.76494,8.46211 -17.47121,4.60702 -25.86328,5.3194 -110.30048,-0.22643 -220.655,0.48863 -330.921876,-0.37213 -7.937141,-1.92912 -9.801158,-11.372802 -8.480191,-18.325923 0.485288,-14.765569 -1.150738,-29.772371 0.800503,-44.392826 2.598865,-7.026893 11.178132,-8.179007 17.640625,-7.177735 7.26237,0 14.52474,0 21.78711,0 -1.256968,6.698999 -1.044346,17.545729 7.791015,18.214844 7.368359,0.44107 10.427947,-7.977362 8.949219,-14.041016 0.200064,-3.165942 3.357661,-4.647443 6.216797,-4.501953 z M 48.109375,127.58984 c 108.344405,0 216.688805,0 325.033205,0 -0.27325,87.41429 0.53678,174.88827 -0.4082,262.26563 -1.99972,7.87449 -11.35998,9.62068 -18.27344,8.39502 -99.96037,-0.24681 -199.97718,0.50761 -299.902346,-0.38916 -7.904509,-1.97329 -9.684951,-11.35996 -8.449219,-18.29102 0,-83.99349 0,-167.98698 0,-251.98047 h 1 z"
         id="path2"
         inkscape:connector-curvature="0" /><path
         style="fill:#ff0000"
         d="m 184.33203,174.74609 c -8.40407,1.15256 -18.7614,-2.05119 -25.71484,4.03321 -7.3569,9.24294 -2.27988,21.6819 -3.47276,32.31245 0.11301,15.09571 -2.33793,31.09522 2.58799,45.5645 9.22279,8.60601 22.69765,3.38319 33.8125,4.73365 15.92443,0.0627 31.84896,-0.003 47.77344,0.0222 0,14.4974 0,28.99479 0,43.49219 -26.23356,0.94908 -53.01767,-2.40698 -79.04883,1.9414 -9.72027,5.9357 -4.47592,24.23419 7.28906,22.8418 29.68499,-0.2633 59.63737,1.27745 89.21094,-0.91797 8.67257,-3.68707 8.05024,-14.89497 7.48047,-22.61719 -0.61085,-20.50421 1.48079,-41.21162 -1.10156,-61.58984 -3.2749,-9.2662 -15.22113,-8.81594 -23.11414,-8.26966 -19.95482,0.65996 -40.07663,-0.18269 -60.10071,0.0919 0,-12.20573 0,-24.41146 0,-36.61719 26.22255,-0.95035 52.99377,2.39828 79.01563,-1.92774 9.75022,-5.93082 4.50742,-24.2526 -7.27734,-22.86718 -22.42306,-0.37605 -44.90013,0.12232 -67.33985,-0.22657 z"
         id="path4"
         inkscape:connector-curvature="0" /></g></g><g
     id="g10" /><g
     id="g12" /><g
     id="g14" /><g
     id="g16" /><g
     id="g18" /><g
     id="g20" /><g
     id="g22" /><g
     id="g24" /><g
     id="g26" /><g
     id="g28" /><g
     id="g30" /><g
     id="g32" /><g
     id="g34" /><g
     id="g36" /><g
     id="g38" /></svg>