<?xml version="1.0" encoding="UTF-8" standalone="no"?>
<!-- Generator: Adobe Illustrator 19.0.0, SVG Export Plug-In . SVG Version: 6.00 Build 0)  -->

<svg
   xmlns:dc="http://purl.org/dc/elements/1.1/"
   xmlns:cc="http://creativecommons.org/ns#"
   xmlns:rdf="http://www.w3.org/1999/02/22-rdf-syntax-ns#"
   xmlns:svg="http://www.w3.org/2000/svg"
   xmlns="http://www.w3.org/2000/svg"
   xmlns:sodipodi="http://sodipodi.sourceforge.net/DTD/sodipodi-0.dtd"
   xmlns:inkscape="http://www.inkscape.org/namespaces/inkscape"
   version="1.1"
   id="Layer_1"
   x="0px"
   y="0px"
   viewBox="0 0 511.999 511.999"
   style="enable-background:new 0 0 511.999 511.999;fill:white"
   xml:space="preserve"
   inkscape:version="0.91 r13725"
   sodipodi:docname="chat.svg"
   inkscape:export-filename="C:\Users\Adrien\Desktop\Documentation\Visioconsult\serveur\nvp-visioconsult\tablet\src\assets\images\icons\chat.png"
   inkscape:export-xdpi="90"
   inkscape:export-ydpi="90"><metadata
     id="metadata79"><rdf:RDF><cc:Work
         rdf:about=""><dc:format>image/svg+xml</dc:format><dc:type
           rdf:resource="http://purl.org/dc/dcmitype/StillImage" /></cc:Work></rdf:RDF></metadata><defs
     id="defs77" /><sodipodi:namedview
     pagecolor="#ffffff"
     bordercolor="#666666"
     borderopacity="1"
     objecttolerance="10"
     gridtolerance="10"
     guidetolerance="10"
     inkscape:pageopacity="0"
     inkscape:pageshadow="2"
     inkscape:window-width="756"
     inkscape:window-height="480"
     id="namedview75"
     showgrid="false"
     inkscape:zoom="1.3037307"
     inkscape:cx="252.97039"
     inkscape:cy="254.26931"
     inkscape:window-x="2049"
     inkscape:window-y="242"
     inkscape:window-maximized="0"
     inkscape:current-layer="g5" /><g
     id="g3"
     transform="matrix(0.85798655,0,0,0.85798655,36.355371,36.355442)"
     style="opacity:1;fill:#1c2833;fill-opacity:1"><g
       id="g5"
       style="fill:#1c2833;fill-opacity:1"><path
         style="fill:#ffffff;fill-opacity:1"
         d="M 28.113281,52.767578 C 13.402824,52.701376 0.6058375,66.837589 2,81.613281 2.1485082,150.76566 1.7047364,219.94319 2.21875,289.08008 c 1.5029128,14.62933 16.276234,25.30806 30.636719,23.39453 6.748698,0 13.497396,0 20.246093,0 0.249761,27.0914 -0.485379,54.26957 0.341797,81.31055 1.821122,8.16685 13.726248,10.06326 18.312668,3.07799 28.129499,-28.12887 56.259013,-56.25771 84.388503,-84.38659 8.05988,-1.17305 17.67929,2.6702 24.68164,-2.5957 7.33522,-5.9304 1.46703,-18.94209 -7.80078,-17.56147 -8.44431,0.77068 -17.41422,-1.44683 -25.57812,1.07319 -13.81612,12.04815 -26.14013,25.94973 -39.4068,38.67918 -11.593556,11.59328 -23.187231,23.18644 -34.780704,34.7798 -0.265186,-22.40957 0.479363,-44.91945 -0.41211,-67.26953 -2.004399,-7.72618 -11.291508,-8.00205 -17.726562,-7.26367 -9.602907,-0.55927 -19.520162,1.01066 -28.978516,-0.56641 -7.003159,-3.57133 -2.893355,-13.05986 -3.986328,-19.10742 0.106771,-64.82806 -0.212681,-129.68741 0.158203,-194.496092 1.770761,-7.388148 11.128067,-4.978981 16.515625,-5.234376 111.628882,0.105885 223.289042,-0.211492 334.898442,0.158204 7.39027,1.766884 4.98004,11.129287 5.23632,16.515625 0.22481,23.854659 -0.44241,47.783729 0.32032,71.593749 1.92203,9.57915 17.01163,9.93632 19.38281,0.45703 1.07041,-23.92329 0.13737,-48.04795 0.45117,-72.046873 0.93304,-10.507071 -0.19267,-22.602321 -8.81836,-29.871094 -10.66874,-10.312174 -26.5861,-6.179196 -40.03711,-6.962891 -107.38344,0.0065 -214.76706,-0.01303 -322.150389,0.0098 z"
         id="path7"
         inkscape:connector-curvature="0" /></g></g><g
     class="green"
     style="fill:#ff0000"
     id="g9"
     transform="matrix(0.85798655,0,0,0.85798655,36.355371,36.355442)"><g
       id="g11"><path
         d="m 242.03711,200.50195 c -15.27449,-0.0242 -27.88929,14.79217 -26.11328,29.8418 0.15241,46.99398 -0.30055,94.0138 0.21875,140.99219 1.52169,14.59795 16.25828,25.33092 30.63672,23.38867 49.10547,0 98.21093,0 147.3164,0 21.24818,20.94442 41.94445,42.53942 63.52539,63.0918 7.22498,4.78721 16.85351,-2.56108 15.2461,-10.68946 0,-17.4681 0,-34.93619 0,-52.40429 10.37101,0.83113 22.30401,0.0554 29.69726,-8.3125 9.07823,-8.77517 7.60316,-22.05312 7.4336,-33.53907 -0.15352,-42.99393 0.30204,-86.01387 -0.21875,-128.99218 -1.49563,-14.64823 -16.28522,-25.28414 -30.63477,-23.38672 -79.03578,0.007 -158.07175,-0.013 -237.10742,0.01 z m 0.7168,20.14649 c 80.61784,0.10627 161.26659,-0.21201 241.86523,0.1582 7.37992,1.7819 4.96585,11.12854 5.22461,16.51563 -0.1886,44.14292 0.37305,88.35815 -0.27344,132.45703 -2.38951,7.33119 -11.82071,4.18574 -17.40039,4.78711 -6.65206,-0.40464 -16.53852,-1.17823 -18.95312,6.96484 -1.11695,14.33034 -0.18111,28.88291 -0.50782,43.29687 -16.49594,-16.17254 -32.40735,-33.02998 -49.23828,-48.81054 -7.8427,-3.33217 -16.94311,-0.5292 -25.24218,-1.45117 -45.77775,-0.18831 -91.62748,0.37266 -137.36133,-0.27344 -7.32942,-2.3917 -4.18682,-11.82042 -4.78711,-17.40039 0.18869,-43.80958 -0.37318,-87.6915 0.27344,-131.45703 0.77629,-2.78133 3.51104,-4.83028 6.40039,-4.78711 z"
         id="path13"
         inkscape:connector-curvature="0" /></g></g><g
     id="g15"
     transform="matrix(0.85798655,0,0,0.85798655,36.355371,36.355442)"
     style="opacity:1;fill:#ffffff;fill-opacity:1"><g
       id="g17"
       style="fill:#ffffff;fill-opacity:1"><path
         style="fill:#ffffff;fill-opacity:1"
         d="m 362.43164,287.54492 c -9.5724,-0.0512 -13.10723,14.18686 -4.70312,18.67383 7.80833,5.40577 18.63518,-4.08339 14.52734,-12.51367 -1.57367,-3.84928 -5.66207,-6.43846 -9.82422,-6.16016 z"
         id="path19"
         inkscape:connector-curvature="0" /></g></g><g
     id="g21"
     transform="matrix(0.85798655,0,0,0.85798655,36.355371,36.355442)"
     style="opacity:1;fill:#ffffff;fill-opacity:1"><g
       id="g23"
       style="fill:#ffffff;fill-opacity:1"><path
         style="fill:#ffffff;fill-opacity:1"
         d="m 90.117188,132.62695 c -9.568334,-0.0526 -13.089303,14.15789 -4.730469,18.65625 7.842806,3.43246 16.998141,0.52626 25.314451,1.48438 67.25922,-0.13595 134.5539,0.27154 201.79102,-0.20313 9.19455,-1.35602 10.94575,-15.40456 2.34375,-18.96289 -10.15573,-2.35773 -21.00543,-0.29956 -31.41406,-0.99023 -64.43483,0.0104 -128.87022,-0.0208 -193.304692,0.0156 z"
         id="path25"
         inkscape:connector-curvature="0" /></g></g><g
     id="g27"
     transform="matrix(0.85798655,0,0,0.85798655,36.355371,36.355442)"
     style="opacity:1;fill:#ffffff;fill-opacity:1"><g
       id="g29"
       style="fill:#ffffff;fill-opacity:1"><path
         style="fill:#ffffff;fill-opacity:1"
         d="m 90.117188,212.48047 c -9.576872,-0.0506 -13.088982,14.19279 -4.703126,18.67383 8.191933,3.35933 17.634648,0.54164 26.287108,1.46679 21.77499,-0.32169 43.6784,0.63186 65.37695,-0.45507 9.23894,-2.32005 9.21698,-16.92503 0,-19.2461 -25.2593,-1.0731 -50.71935,-0.14342 -76.05468,-0.45508 -3.635283,0.0125 -7.271347,-0.0237 -10.906252,0.0156 z"
         id="path31"
         inkscape:connector-curvature="0" /></g></g><g
     id="g33"
     transform="matrix(0.85798655,0,0,0.85798655,36.355371,36.355442)"
     style="opacity:1;fill:#ffffff;fill-opacity:1"><g
       id="g35"
       style="fill:#ffffff;fill-opacity:1"><path
         style="fill:#ffffff;fill-opacity:1"
         d="m 306.30469,287.54492 c -9.31733,-0.0331 -13.10251,13.66142 -5.0918,18.42383 7.7206,5.88916 19.1666,-3.58867 14.91602,-12.26367 -1.57477,-3.85514 -5.65877,-6.43741 -9.82422,-6.16016 z"
         id="path37"
         inkscape:connector-curvature="0" /></g></g><g
     id="g39"
     transform="matrix(0.85798655,0,0,0.85798655,36.355371,36.355442)"
     style="opacity:1;fill:#ffffff;fill-opacity:1"><g
       id="g41"
       style="fill:#ffffff;fill-opacity:1"><path
         style="fill:#ffffff;fill-opacity:1"
         d="m 418.54492,287.54492 c -9.55994,-0.0478 -13.1481,14.183 -4.70117,18.67383 8.16072,5.64352 19.29705,-4.91921 14.12109,-13.36914 -1.78758,-3.38878 -5.58393,-5.55438 -9.41992,-5.30469 z"
         id="path43"
         inkscape:connector-curvature="0" /></g></g><g
     id="g45"
     transform="matrix(0.85798655,0,0,0.85798655,36.355371,36.355442)"
     style="opacity:1;fill:#1c2833;fill-opacity:1" /><g
     id="g47"
     transform="matrix(0.85798655,0,0,0.85798655,36.355371,36.355442)"
     style="opacity:1;fill:#1c2833;fill-opacity:1" /><g
     id="g49"
     transform="matrix(0.85798655,0,0,0.85798655,36.355371,36.355442)"
     style="opacity:1;fill:#1c2833;fill-opacity:1" /><g
     id="g51"
     transform="matrix(0.85798655,0,0,0.85798655,36.355371,36.355442)"
     style="opacity:1;fill:#1c2833;fill-opacity:1" /><g
     id="g53"
     transform="matrix(0.85798655,0,0,0.85798655,36.355371,36.355442)"
     style="opacity:1;fill:#1c2833;fill-opacity:1" /><g
     id="g55"
     transform="matrix(0.85798655,0,0,0.85798655,36.355371,36.355442)"
     style="opacity:1;fill:#1c2833;fill-opacity:1" /><g
     id="g57"
     transform="matrix(0.85798655,0,0,0.85798655,36.355371,36.355442)"
     style="opacity:1;fill:#1c2833;fill-opacity:1" /><g
     id="g59"
     transform="matrix(0.85798655,0,0,0.85798655,36.355371,36.355442)"
     style="opacity:1;fill:#1c2833;fill-opacity:1" /><g
     id="g61"
     transform="matrix(0.85798655,0,0,0.85798655,36.355371,36.355442)"
     style="opacity:1;fill:#1c2833;fill-opacity:1" /><g
     id="g63"
     transform="matrix(0.85798655,0,0,0.85798655,36.355371,36.355442)"
     style="opacity:1;fill:#1c2833;fill-opacity:1" /><g
     id="g65"
     transform="matrix(0.85798655,0,0,0.85798655,36.355371,36.355442)"
     style="opacity:1;fill:#1c2833;fill-opacity:1" /><g
     id="g67"
     transform="matrix(0.85798655,0,0,0.85798655,36.355371,36.355442)"
     style="opacity:1;fill:#1c2833;fill-opacity:1" /><g
     id="g69"
     transform="matrix(0.85798655,0,0,0.85798655,36.355371,36.355442)"
     style="opacity:1;fill:#1c2833;fill-opacity:1" /><g
     id="g71"
     transform="matrix(0.85798655,0,0,0.85798655,36.355371,36.355442)"
     style="opacity:1;fill:#1c2833;fill-opacity:1" /><g
     id="g73"
     transform="matrix(0.85798655,0,0,0.85798655,36.355371,36.355442)"
     style="opacity:1;fill:#1c2833;fill-opacity:1" /></svg>