<?xml version="1.0" encoding="UTF-8" standalone="no"?>
<!-- Generator: Adobe Illustrator 15.0.0, SVG Export Plug-In . SVG Version: 6.00 Build 0)  -->

<svg
   xmlns:dc="http://purl.org/dc/elements/1.1/"
   xmlns:cc="http://creativecommons.org/ns#"
   xmlns:rdf="http://www.w3.org/1999/02/22-rdf-syntax-ns#"
   xmlns:svg="http://www.w3.org/2000/svg"
   xmlns="http://www.w3.org/2000/svg"
   xmlns:sodipodi="http://sodipodi.sourceforge.net/DTD/sodipodi-0.dtd"
   xmlns:inkscape="http://www.inkscape.org/namespaces/inkscape"
   version="1.1"
   id="Layer_1"
   x="0px"
   y="0px"
   style="fill:white"
   viewBox="0 123.307 595.281 595.275"
   enable-background="new 0 123.307 595.281 595.275"
   xml:space="preserve"
   sodipodi:docname="dicton.svg"
   inkscape:version="0.91 r13725"><metadata
     id="metadata15"><rdf:RDF><cc:Work
         rdf:about=""><dc:format>image/svg+xml</dc:format><dc:type
           rdf:resource="http://purl.org/dc/dcmitype/StillImage" /><dc:title></dc:title></cc:Work></rdf:RDF></metadata><defs
     id="defs13" /><sodipodi:namedview
     pagecolor="#ffffff"
     bordercolor="#666666"
     borderopacity="1"
     objecttolerance="10"
     gridtolerance="10"
     guidetolerance="10"
     inkscape:pageopacity="0"
     inkscape:pageshadow="2"
     inkscape:window-width="1600"
     inkscape:window-height="838"
     id="namedview11"
     showgrid="false"
     showguides="false"
     inkscape:zoom="0.46029145"
     inkscape:cx="455.77892"
     inkscape:cy="-19.847648"
     inkscape:window-x="-8"
     inkscape:window-y="-8"
     inkscape:window-maximized="1"
     inkscape:current-layer="g6" /><g
     id="g8"
     style="fill:#000000"><g
       id="g6"
       style="fill:#000000"><path
         style="fill:#ffffff;stroke-width:1.02853966"
         d="m 195.36049,208.21758 c -36.50336,0.45708 -73.00992,0.0908 -109.514684,0.20191 -0.57743,14.66925 2.206879,30.06393 -1.955552,44.27475 -7.281218,7.76646 -18.602042,2.79421 -27.671255,4.22332 l -47.1837797,0 0,405.18263 C 121.20651,662.02409 242.61134,661.99302 354.78244,661.6884 c 2.67297,-5.17946 3.94251,-10.97651 -0.1384,-15.99819 -2.19264,-1.24646 -15.04334,-0.17645 -18.03696,-0.81608 l -26.52148,0 0,-55.51825 c 68.35361,0.37955 136.70883,0.29513 205.06193,-0.0991 0.32789,-105.03685 0.0525,-210.07423 0.14582,-315.1113 l 58.06272,0 0,370.72863 -123.43031,-1.35784 c -5.75264,-0.0633 -23.31201,0.70493 -5.73634,17.931 43.58365,0 104.47297,0.65289 148.05661,0.6529 l 0,-405.18075 -76.95454,0 0,-48.442 c -43.06426,0.56796 -86.24772,-1.55518 -129.2179,1.33299 -36.1986,4.54302 -69.17824,28.40958 -85.47223,60.83526 -18.9909,-39.08439 -62.21175,-63.41391 -105.24087,-62.42811 z m -4.73372,17.29523 c 21.37593,-0.25245 43.58259,3.61526 61.26339,16.35298 25.86637,17.28597 42.13719,48.67299 39.28513,79.91404 0.008,68.98402 0.0158,137.96804 0.0222,206.95206 -20.97719,-22.82071 -53.23261,-32.25498 -83.45498,-29.34264 l -102.86467,0 0,-273.77361 c 28.58264,0.21787 57.16636,-0.0479 85.74891,-0.10283 z m 210.61077,0.11218 c 31.7213,0.056 63.44265,0.0119 95.16398,0.0261 l 0,273.66143 c -45.6108,1.13758 -91.43118,-2.01811 -136.86623,1.8303 -18.62863,3.64666 -35.59623,14.04494 -49.52446,26.97204 0.82907,-75.86309 -1.28337,-151.77867 1.09753,-227.60905 6.42627,-42.51657 47.79302,-75.00098 90.12918,-74.88089 z m -371.399803,48.52051 56.152024,0 0,315.21224 205.205889,0 0,55.51639 -263.272336,0 0,-370.72863 0.957211,0 z M 217.84934,516.46948 c 19.60268,-0.44739 40.11488,5.1217 54.0881,19.53298 9.98106,9.63027 16.82407,22.44455 19.15164,36.12923 l -186.21122,0 0,-55.52573 c 37.65698,-0.0408 75.31557,0.21147 112.97148,-0.13648 z m 158.47079,0.14396 c 40.02713,9.5e-4 80.05427,0.003 120.08139,0.004 l 0,55.51451 -186.16822,0 c 4.7191,-31.35554 34.68416,-55.66401 66.08683,-55.51825 z"
         id="path4"
         inkscape:connector-curvature="0"
         sodipodi:nodetypes="cccccccccccccccsccccccccccccccccccccccccccccccccccccccccccccccc" /><path
         style="fill:#ff0000"
         d="m 426.34563,588.17512 0,94.75005 c -9.94041,1.57522 -19.22122,-3.32613 -27.68808,-7.84091 -9.27598,4.41987 -18.55294,8.83768 -27.82829,13.25887 l -1.6294,-102.00543 c -5.40828,0.59921 -13.00444,-0.38599 -16.87038,1.7177 0.33194,25.42098 0.47514,59.16168 1.33541,85.68839 -0.71556,13.95034 0.64414,28.23977 -0.36644,41.98268 9.95681,-4.17738 19.58144,-9.64379 29.54474,-14.02817 5.52222,-2.06314 11.04242,-6.36763 16.56593,-7.10525 l 46.60294,20.75716 c 0.0318,-43.0301 -2.14803,-82.29693 -2.72195,-126.4332 -1.66282,-0.0676 -8.78389,-0.75907 -16.94448,-0.74189 z"
         id="path2"
         inkscape:connector-curvature="0"
         sodipodi:nodetypes="ccccccccccccc" /></g></g></svg>