<?xml version="1.0" encoding="UTF-8" standalone="no"?>
<!-- Generator: Adobe Illustrator 15.0.0, SVG Export Plug-In . SVG Version: 6.00 Build 0)  -->

<svg
   xmlns:dc="http://purl.org/dc/elements/1.1/"
   xmlns:cc="http://creativecommons.org/ns#"
   xmlns:rdf="http://www.w3.org/1999/02/22-rdf-syntax-ns#"
   xmlns:svg="http://www.w3.org/2000/svg"
   xmlns="http://www.w3.org/2000/svg"
   xmlns:sodipodi="http://sodipodi.sourceforge.net/DTD/sodipodi-0.dtd"
   xmlns:inkscape="http://www.inkscape.org/namespaces/inkscape"
   version="1.1"
   id="Layer_1"
   style="fill:white"
   x="0px"
   y="0px"
   viewBox="0 123.307 595.281 595.275"
   xml:space="preserve"
   sodipodi:docname="doctor.svg"
   inkscape:version="0.91 r13725"
   inkscape:export-filename="C:\Users\Adrien\Desktop\Documentation\Visioconsult\serveur\nvp-visioconsult\tablet\src\assets\images\icons\doctor.png"
   inkscape:export-xdpi="90"
   inkscape:export-ydpi="90"><metadata
     id="metadata23"><rdf:RDF><cc:Work
         rdf:about=""><dc:format>image/svg+xml</dc:format><dc:type
           rdf:resource="http://purl.org/dc/dcmitype/StillImage" /><dc:title /></cc:Work></rdf:RDF></metadata><defs
     id="defs21" /><sodipodi:namedview
     pagecolor="#ffffff"
     bordercolor="#666666"
     borderopacity="1"
     objecttolerance="10"
     gridtolerance="10"
     guidetolerance="10"
     inkscape:pageopacity="0"
     inkscape:pageshadow="2"
     inkscape:window-width="1920"
     inkscape:window-height="1058"
     id="namedview19"
     showgrid="false"
     inkscape:zoom="1.4142136"
     inkscape:cx="67.148506"
     inkscape:cy="208.62206"
     inkscape:window-x="1592"
     inkscape:window-y="-8"
     inkscape:window-maximized="1"
     inkscape:current-layer="g8" /><g
     id="g16"><g
       id="g8"
       style="fill:#000000"><path
         d="M174.987,473.263v56.387c-18.041,7.011-30.869,24.549-30.869,45.039c0,26.638,21.672,48.31,48.31,48.31    s48.31-21.672,48.31-48.31c0-20.49-12.829-38.029-30.869-45.039v-56.387h8.817c-19.903-7.672-36.196-19.85-49.745-34.811    c-0.31,0.013-0.62,0.026-0.93,0.038c5.759,7.668,6.106,23.072,6.127,34.772H174.987z M192.427,561.262    c7.404,0,13.429,6.023,13.429,13.428c0,7.403-6.024,13.429-13.429,13.429c-7.405,0-13.428-6.023-13.428-13.429    C179,567.286,185.023,561.262,192.427,561.262z"
         id="path2"
         style="fill:none" /><path
         style="fill:#ffffff"
         d="m 426.41602,441.96094 c -1.24515,6.4653 -3.46987,12.73333 -4.63477,19.12695 39.76002,3.35428 75.85462,30.48454 92.5918,66.31055 11.56411,27.20215 6.29125,57.34281 7.2832,85.95898 0.005,26.11591 0.24436,52.23179 0.0918,78.34766 -149.42123,0 -298.84245,0 -448.263675,0 0.885759,-47.78899 -1.595613,-95.68857 1.349609,-143.4082 7.120174,-38.22808 35.810226,-71.04972 71.531246,-85.60743 8.22935,-3.23322 17.23115,-4.94422 25.8711,-5.52343 -0.0689,-4.44652 1.35893,-10.44137 -1.89844,-13.78516 -6.2606,-0.95659 -12.62144,1.9499 -18.81047,2.7949 -41.57544,11.18143 -78.233626,42.49027 -91.77707,83.98224 -9.268728,32.031 -3.476992,65.6305 -5.105819,98.55489 0,27.29037 0,54.58073 0,81.87109 161.987629,0 323.975259,0 485.962889,0 -0.59988,-54.42901 1.46321,-108.97339 -1.21875,-163.32226 -6.73835,-40.85712 -36.13249,-77.46721 -74.1582,-93.17774 -12.88977,-4.31667 -26.21731,-7.3043 -38.67774,-12.88281 z"
         id="path4"
         inkscape:connector-curvature="0" /><path
         style="fill:#ffffff"
         d="m 295.36523,135.26768 c -71.89437,-0.18329 -140.9138,49.63227 -163.73391,117.72537 -21.01272,59.12722 -7.37423,129.57963 35.60306,175.64573 14.51144,17.23876 32.01605,32.42365 53.189,40.79135 38.78609,17.82752 85.67059,20.23062 126.96447,8.52103 22.98096,-6.05166 45.1019,-17.77387 62.13873,-30.51198 6.80026,-4.27898 14.88309,-13.00553 21.26662,-21.77492 C 473.28624,377.45 485.19504,305.0007 460.98991,245.67117 435.93988,182.81856 372.82485,137.23067 304.89462,135.39796 c -3.17449,-0.12984 -6.35252,-0.1686 -9.52939,-0.13028 z m 4.54102,18.81055 c 53.46181,0.39534 105.56595,30.63122 132.55664,76.76172 -2.3527,10.61038 -14.43915,12.96056 -22.24805,18.16601 -51.2792,25.12245 -118.58687,12.18089 -155.92382,-31.29297 -2.03629,-2.19083 -3.98445,2.69541 -6.04493,3.45704 -22.95588,19.63401 -54.17233,30.18087 -84.30669,25.26046 -4.10911,-0.80901 -11.78396,0.18842 -6.77675,-5.49423 26.03427,-52.78374 83.75683,-88.39434 142.7436,-86.85803 z m -46.7832,89.08398 c 47.40536,42.86415 123.26876,49.63799 177.27903,16.42186 4.36747,-1.30301 7.6663,-7.57838 12.66042,-5.72654 4.10627,5.49303 4.914,13.06249 7.04761,19.52813 14.62719,58.45902 -7.55904,124.65495 -55.78003,161.22773 -45.15296,35.54536 -110.48802,43.9674 -162.50906,18.8489 -50.42962,-23.30446 -87.23201,-74.64602 -90.58617,-130.42635 -1.56809,-20.38659 0.89437,-41.05402 7.10109,-60.53193 35.25402,9.17121 74.2767,1.71468 103.59765,-20.31445 l 0.77413,0.63303 z"
         id="path6"
         inkscape:connector-curvature="0"
         sodipodi:nodetypes="ccccccccccccccccccccccccccccc" /></g><g
       class="blue"
       style="fill:red"
       id="g14"><path
         style="fill:#ff0000"
         d="m 181.94141,454.6875 c 2.0959,24.20226 0.64772,48.50224 1.03125,72.75781 -25.78652,5.11308 -39.8581,39.17809 -24.71094,60.83985 11.9391,19.27468 41.27047,25.32615 58.89844,10.30273 16.2949,-12.5365 21.2256,-38.479 8.06445,-55.25977 -5.50656,-7.74325 -13.98945,-13.60858 -23.35547,-15.98242 0,-20.33398 0,-40.66797 0,-61.00195 -7.11215,-3.5778 -13.7612,-8.02547 -20.00976,-12.94531 l 0.0635,0.99798 z m 11.21289,90.44922 c 16.57131,-0.20941 27.34991,22.39549 16.16406,34.92187 -9.68792,13.37489 -34.26064,8.83035 -37.67383,-7.66406 -3.72255,-13.22573 7.5159,-28.18294 21.50977,-27.25781 z"
         id="path10"
         inkscape:connector-curvature="0" /><path
         style="fill:#ff0000"
         d="m 414.30273,448.25391 c -6.76936,5.93546 -14.08181,11.63 -20.91406,17.25586 0.69732,9.24672 -0.96503,18.49556 0.13477,27.72656 0.80952,4.80937 -0.21159,12.22092 -6.84571,11.5 -35.36236,7.0866 -62.83762,42.84276 -59.91122,79.25354 -0.26598,15.74752 0.38248,31.49862 -0.079,47.24451 -3.86699,1.5301 -8.00016,0.4525 -11.99414,0.47656 0.4923,6.36105 0.19487,12.74578 0.19726,19.11718 14.19597,10e-6 28.39193,0 42.5879,0 -0.2544,-6.03555 0.7216,-13.09859 -0.34375,-18.5 -6.51467,0.30113 -13.84007,-5.21815 -11.78517,-12.33096 2.15569,-23.12344 -4.60175,-48.99066 8.31446,-70.15341 14.5933,-25.02838 49.68691,-35.92037 75.33008,-21.61914 20.96679,10.81682 33.84411,35.05856 31.03956,58.49414 0.0234,14.83267 0.008,29.66536 0.009,44.49805 -3.89534,1.565 -8.0705,0.45608 -12.0957,0.48632 0.50962,6.36289 0.19479,12.75113 0.19921,19.125 14.19662,10e-6 28.39323,0 42.58985,0 -0.24592,-6.0416 0.70496,-13.07658 -0.33203,-18.5039 -6.45665,0.27833 -13.58298,-5.01825 -11.96314,-12.06817 -0.10096,-25.34404 4.63732,-52.52202 -7.9021,-75.80878 -11.02037,-21.40427 -32.1929,-36.72319 -55.96679,-40.75782 -4.8111,-3.85668 -0.95094,-10.75713 -2.24233,-15.86495 -0.21284,-13.66249 -0.87892,-27.73962 3.51381,-40.89481 -0.51367,0.4414 -1.02734,0.88281 -1.54102,1.32422 z"
         id="path12"
         inkscape:connector-curvature="0" /></g></g></svg>