<?xml version="1.0" encoding="UTF-8" standalone="no"?>
<!-- Generator: Adobe Illustrator 18.0.0, SVG Export Plug-In . SVG Version: 6.00 Build 0)  -->

<svg
   xmlns:dc="http://purl.org/dc/elements/1.1/"
   xmlns:cc="http://creativecommons.org/ns#"
   xmlns:rdf="http://www.w3.org/1999/02/22-rdf-syntax-ns#"
   xmlns:svg="http://www.w3.org/2000/svg"
   xmlns="http://www.w3.org/2000/svg"
   xmlns:sodipodi="http://sodipodi.sourceforge.net/DTD/sodipodi-0.dtd"
   xmlns:inkscape="http://www.inkscape.org/namespaces/inkscape"
   version="1.1"
   id="Capa_1"
   x="0px"
   y="0px"
   viewBox="0 0 294.516 294.516"
   style="fill:white"
   xml:space="preserve"
   sodipodi:docname="donation.svg"
   inkscape:version="0.91 r13725"><metadata
     id="metadata43"><rdf:RDF><cc:Work
         rdf:about=""><dc:format>image/svg+xml</dc:format><dc:type
           rdf:resource="http://purl.org/dc/dcmitype/StillImage" /><dc:title></dc:title></cc:Work></rdf:RDF></metadata><defs
     id="defs41" /><sodipodi:namedview
     pagecolor="#ffffff"
     bordercolor="#666666"
     borderopacity="1"
     objecttolerance="10"
     gridtolerance="10"
     guidetolerance="10"
     inkscape:pageopacity="0"
     inkscape:pageshadow="2"
     inkscape:window-width="1920"
     inkscape:window-height="1058"
     id="namedview39"
     showgrid="false"
     inkscape:zoom="0.5"
     inkscape:cx="-217.742"
     inkscape:cy="147.258"
     inkscape:window-x="1592"
     inkscape:window-y="-8"
     inkscape:window-maximized="1"
     inkscape:current-layer="g6" /><g
     id="g6"
     style="fill:#000000"><path
       style="fill:#ff0000"
       d="m 103.54102,21.839844 c -10.126254,-0.14604 -19.873,4.82626 -26.621098,12.21289 C 63.661028,18.216097 35.60946,17.632652 23.185547,34.833984 12.157119,48.108519 13.883889,68.62958 24.79879,81.440726 37.321632,99.40798 55.509571,112.89911 74.419922,123.3457 c 9.674486,1.53736 15.872314,-7.84983 23.57171,-11.86318 17.267238,-12.752426 35.263328,-28.569616 39.803288,-50.550879 3.0005,-19.816868 -14.09935,-39.649622 -34.2539,-39.091797 z m -53.121098,15.875 c 11.706057,0.100781 19.740415,12.229441 19.289062,23.044922 3.916995,7.614796 17.520262,2.432339 15.025391,-5.878907 0.714234,-14.700959 21.882095,-23.286274 31.753905,-11.53125 7.81853,7.676914 6.7518,20.438739 -0.17383,28.296875 -9.92477,14.804905 -24.745603,25.298 -39.457028,34.906246 C 58.810448,94.780335 39.06925,81.128325 31.744141,59.970703 29.682735,49.110667 39.183859,37.264126 50.419922,37.714844 Z"
       id="path2"
       inkscape:connector-curvature="0" /><path
       style="fill:#ffffff;stroke-width:0.95757359"
       d="m 213.10156,136.37891 c -34.3489,1.29866 -68.89726,-1.50279 -103.13281,1.47265 -15.820632,4.63855 -20.627073,28.22748 -7.57422,38.44922 12.56347,9.70953 29.06834,4.00579 43.46485,5.61328 2.04989,-0.0712 5.14621,-0.61675 2.23828,1.54883 -7.94698,8.64582 -20.07965,14.40165 -31.85663,10.98951 -29.507578,-3.06847 -58.739177,-9.16342 -88.412905,-10.46217 -10.368649,0.39315 -23.4000806,5.02543 -25.6796875,16.42188 -0.8120853,10.64008 10.4509795,16.78162 19.2714845,19.28516 31.38102,11.11187 61.404003,26.21228 93.611328,34.86718 22.5795,2.39933 44.12872,-6.81799 65.83463,-11.09093 12.72687,-3.2808 24.82454,-9.82168 37.63412,-11.97743 11.97602,2.40398 17.88806,14.3175 26.63477,21.64258 6.905,7.0194 13.52788,15.28182 22.375,19.70899 8.07258,0.84038 11.64186,-11.81472 4.05273,-15.02735 -14.28791,-13.01894 -25.86628,-29.54713 -42.82812,-39.33203 -13.34992,-5.23901 -27.30841,1.06369 -39.49803,6.37715 -21.99286,7.21223 -44.49764,12.74505 -67.43752,15.17168 C 100.7761,237.96931 82.683041,225.6263 62.625094,219.4978 47.511391,213.47944 32.289902,207.86126 17.304688,201.56641 c 16.674864,-6.21272 34.273828,0.38896 51.108866,1.63907 21.462066,2.8261 43.138656,7.40893 64.871606,6.23397 14.80883,-3.57696 27.32524,-14.24033 35.63672,-26.64062 3.10012,-7.57313 -3.75281,-15.94421 -11.66993,-15.56836 -12.95579,-1.44233 -25.95887,0.55219 -38.91211,-0.39844 -6.89479,0.12003 -10.58296,-8.80144 -5.02148,-13.24414 5.47657,-4.44223 13.08626,-0.79798 19.53703,-1.84321 31.88552,0.35846 64.05793,-1.73433 95.71492,1.3979 16.51685,6.03399 26.40468,21.6267 39.83487,32.09885 5.22864,4.82395 11.05511,12.14177 18.81943,11.36209 6.79175,-2.08698 6.49199,-12.85356 -0.0762,-15.03516 -17.08785,-14.191 -31.08938,-33.33242 -52.03516,-42.16797 -7.08086,-2.31898 -14.58488,-3.13219 -22.01172,-3.02148 z"
       id="path4"
       inkscape:connector-curvature="0" /></g><g
     id="g8"
     style="fill:#000000" /><g
     id="g10"
     style="fill:#000000" /><g
     id="g12"
     style="fill:#000000" /><g
     id="g14"
     style="fill:#000000" /><g
     id="g16"
     style="fill:#000000" /><g
     id="g18"
     style="fill:#000000" /><g
     id="g20"
     style="fill:#000000" /><g
     id="g22"
     style="fill:#000000" /><g
     id="g24"
     style="fill:#000000" /><g
     id="g26"
     style="fill:#000000" /><g
     id="g28"
     style="fill:#000000" /><g
     id="g30"
     style="fill:#000000" /><g
     id="g32"
     style="fill:#000000" /><g
     id="g34"
     style="fill:#000000" /><g
     id="g36"
     style="fill:#000000" /></svg>