<?xml version="1.0" encoding="UTF-8" standalone="no"?>
<!-- Generator: Adobe Illustrator 18.0.0, SVG Export Plug-In . SVG Version: 6.00 Build 0)  -->

<svg
   xmlns:dc="http://purl.org/dc/elements/1.1/"
   xmlns:cc="http://creativecommons.org/ns#"
   xmlns:rdf="http://www.w3.org/1999/02/22-rdf-syntax-ns#"
   xmlns:svg="http://www.w3.org/2000/svg"
   xmlns="http://www.w3.org/2000/svg"
   xmlns:sodipodi="http://sodipodi.sourceforge.net/DTD/sodipodi-0.dtd"
   xmlns:inkscape="http://www.inkscape.org/namespaces/inkscape"
   version="1.1"
   id="Capa_1"
   x="0px"
   y="0px"
   viewBox="0 0 474.474 474.474"
   style="enable-background:new 0 0 474.474 474.474;fill:white"
   xml:space="preserve"
   sodipodi:docname="fitness-braceletSelected.svg"
   inkscape:version="0.91 r13725"
   inkscape:export-filename="C:\Users\Adrien\Desktop\Documentation\Visioconsult\serveur\nvp-visioconsult\tablet\src\assets\images\icons\fitness-braceletSelected.png"
   inkscape:export-xdpi="90"
   inkscape:export-ydpi="90"><metadata
     id="metadata45"><rdf:RDF><cc:Work
         rdf:about=""><dc:format>image/svg+xml</dc:format><dc:type
           rdf:resource="http://purl.org/dc/dcmitype/StillImage" /><dc:title></dc:title></cc:Work></rdf:RDF></metadata><defs
     id="defs43" /><sodipodi:namedview
     pagecolor="#ffffff"
     bordercolor="#666666"
     borderopacity="1"
     objecttolerance="10"
     gridtolerance="10"
     guidetolerance="10"
     inkscape:pageopacity="0"
     inkscape:pageshadow="2"
     inkscape:window-width="1920"
     inkscape:window-height="1058"
     id="namedview41"
     showgrid="false"
     inkscape:zoom="0.5"
     inkscape:cx="-127.763"
     inkscape:cy="237.237"
     inkscape:window-x="1592"
     inkscape:window-y="-8"
     inkscape:window-maximized="1"
     inkscape:current-layer="g8" /><g
     id="g8"
     style="fill:#000000"><path
       style="fill:#1c2833;fill-opacity:1"
       d="M 322.86719,1.8378906 C 263.69203,2.5013701 204.39527,1.3410121 145.29297,2.40625 137.7681,5.6616524 139.81034,15.327612 140.0293,21.75 c -0.37255,27.863524 0.1363,56.080048 -0.25196,83.75195 -21.18645,1.79071 -37.54924,23.61228 -34.33955,44.43945 0.42952,62.81318 -0.9291,125.67528 0.72627,188.45704 3.09771,16.01968 17.55603,28.96859 33.75196,30.56054 0.36204,32.93092 -0.79619,65.88041 0.61718,98.79688 4.8944,7.86451 15.07466,3.791 22.5078,4.70665 55.48784,-0.2674 110.98205,0.61235 166.46486,-0.47228 7.69221,-4.06842 4.57614,-13.72468 5.06055,-20.6289 0.0888,-27.42473 -0.17741,-55.17457 0.13281,-82.39649 21.18337,-1.80972 37.52967,-23.59361 34.33843,-44.42577 -0.34722,-62.56394 0.75839,-125.16486 -0.59234,-187.70509 -2.79041,-16.35003 -17.42857,-29.71586 -33.88672,-31.32617 -0.58053,-33.067922 1.22688,-66.367076 -0.94336,-99.2949194 -1.94817,-3.9173401 -6.8475,-4.5224749 -10.74804,-4.375 z M 318.56641,18 c 0,29.143229 0,58.286458 0,87.42969 -54.2194,0 -108.43881,0 -162.65821,0 0,-29.143232 0,-58.286461 0,-87.42969 54.2194,0 108.43881,0 162.65821,0 z M 146.26172,121.18555 c 61.20298,0.84063 122.47673,-0.42686 183.69792,0.61768 14.81399,-1.89886 25.89056,14.47889 23.08138,28.0913 -0.40773,62.13483 0.85469,124.32974 -0.66016,186.42578 -2.91601,12.28789 -16.95323,18.9929 -28.80273,16.71717 -61.80084,-0.39615 -123.66177,0.85316 -185.42383,-0.65662 -12.29019,-2.91798 -18.99323,-16.95281 -16.71734,-28.80468 0.39014,-61.76886 -0.8384,-123.5983 0.64702,-185.32813 2.3826,-10.49291 13.53442,-17.71591 24.17774,-17.0625 z m 172.30469,247.85937 c 0,29.14323 0,58.28646 0,87.42969 -54.2194,0 -108.43881,0 -162.65821,0 0,-29.14323 0,-58.28646 0,-87.42969 54.2194,0 108.43881,0 162.65821,0 z"
       id="path2"
       inkscape:connector-curvature="0" /><path
       style="fill:#1c2833;fill-opacity:1"
       d="m 322.25977,139.75391 c -58.96456,0.61696 -118.04567,-0.4638 -176.94141,0.54882 -7.55597,3.2448 -5.51135,12.94966 -5.28125,19.38477 -0.0845,56.4856 -0.49868,113.00115 0.23828,169.49414 3.85433,7.93169 13.78613,5.06863 20.69141,5.37695 56.16623,-0.27525 112.33855,0.60025 168.5,-0.46484 8.02709,-4.23494 4.42145,-14.47218 5.08793,-21.59959 -0.36236,-55.88635 0.7992,-111.85936 -0.61332,-167.69143 -1.74422,-4.66001 -7.40545,-5.21359 -11.68164,-5.04882 z m -3.69532,16.15429 c 0,54.2181 0,108.4362 0,162.6543 -54.2181,0 -108.43619,0 -162.65429,0 0,-54.2181 0,-108.4362 0,-162.6543 54.2181,0 108.43619,0 162.65429,0 z"
       id="path4"
       inkscape:connector-curvature="0" /><path
       style="fill:#ff0000"
       d="m 218.48828,175.95117 c -8.37367,0.6389 -9.28151,10.38937 -12.06445,16.39453 -5.47396,12.15334 -9.98038,25.25926 -15.68164,37.00977 -8.09004,0.83947 -18.55901,-3.2707 -24.77735,3.85742 -3.80067,6.40866 3.82732,14.49851 10.55078,11.86914 8.35182,-0.73145 18.6464,2.84711 25.72071,-2.80469 6.05266,-7.94979 6.80821,-18.6974 12.1289,-26.87695 2.42527,-1.43622 0.92073,4.98568 1.922,5.97951 4.08307,26.11842 7.20059,52.54473 12.703,78.34666 4.26239,6.85355 15.59539,2.2604 15.30665,-5.31445 6.95247,-22.4043 13.90494,-44.80859 20.85742,-67.21289 2.94379,6.15065 4.00481,15.99113 11.81054,17.69336 8.43645,0.0327 17.0062,1.41923 25.26563,-0.22461 6.94516,-1.3518 7.44563,-11.45213 1.49414,-14.44727 -6.78171,-3.64139 -15.67484,2.34714 -21.65234,-3.05273 -4.66037,-9.86381 -6.84029,-21.53637 -14.24219,-29.86328 -6.41186,-3.62682 -13.11619,3.39206 -13.18164,9.70508 -5.40069,17.15928 -10.36952,34.46006 -16.29297,51.45117 -5.275,-26.22428 -7.15125,-53.38932 -13.53516,-79.32813 -1.47745,-1.95192 -3.87702,-3.18396 -6.33203,-3.18164 z"
       id="path6"
       inkscape:connector-curvature="0" /></g><g
     id="g10"
     style="fill:#000000" /><g
     id="g12"
     style="fill:#000000" /><g
     id="g14"
     style="fill:#000000" /><g
     id="g16"
     style="fill:#000000" /><g
     id="g18"
     style="fill:#000000" /><g
     id="g20"
     style="fill:#000000" /><g
     id="g22"
     style="fill:#000000" /><g
     id="g24"
     style="fill:#000000" /><g
     id="g26"
     style="fill:#000000" /><g
     id="g28"
     style="fill:#000000" /><g
     id="g30"
     style="fill:#000000" /><g
     id="g32"
     style="fill:#000000" /><g
     id="g34"
     style="fill:#000000" /><g
     id="g36"
     style="fill:#000000" /><g
     id="g38"
     style="fill:#000000" /></svg>