<?xml version="1.0" encoding="UTF-8" standalone="no"?>
<!-- Generator: Adobe Illustrator 15.0.0, SVG Export Plug-In . SVG Version: 6.00 Build 0)  -->

<svg
   xmlns:dc="http://purl.org/dc/elements/1.1/"
   xmlns:cc="http://creativecommons.org/ns#"
   xmlns:rdf="http://www.w3.org/1999/02/22-rdf-syntax-ns#"
   xmlns:svg="http://www.w3.org/2000/svg"
   xmlns="http://www.w3.org/2000/svg"
   xmlns:sodipodi="http://sodipodi.sourceforge.net/DTD/sodipodi-0.dtd"
   xmlns:inkscape="http://www.inkscape.org/namespaces/inkscape"
   version="1.1"
   id="Capa_1"
   style="fill:white"
   x="0px"
   y="0px"
   viewBox="0 246.613 595.281 595.277"
   xml:space="preserve"
   sodipodi:docname="fitness.svg"
   inkscape:version="0.91 r13725"
   inkscape:export-filename="C:\Users\Adrien\Desktop\Documentation\Visioconsult\serveur\nvp-visioconsult\tablet\src\assets\images\icons\fitness.png"
   inkscape:export-xdpi="90"
   inkscape:export-ydpi="90"><metadata
     id="metadata21"><rdf:RDF><cc:Work
         rdf:about=""><dc:format>image/svg+xml</dc:format><dc:type
           rdf:resource="http://purl.org/dc/dcmitype/StillImage" /><dc:title /></cc:Work></rdf:RDF></metadata><defs
     id="defs19" /><sodipodi:namedview
     pagecolor="#ffffff"
     bordercolor="#666666"
     borderopacity="1"
     objecttolerance="10"
     gridtolerance="10"
     guidetolerance="10"
     inkscape:pageopacity="0"
     inkscape:pageshadow="2"
     inkscape:window-width="756"
     inkscape:window-height="403"
     id="namedview17"
     showgrid="false"
     inkscape:zoom="0.5"
     inkscape:cx="-432.3595"
     inkscape:cy="297.63849"
     inkscape:window-x="2669"
     inkscape:window-y="306"
     inkscape:window-maximized="0"
     inkscape:current-layer="g14" /><g
     id="g6"
     style="fill:#ffffff"><path
       style="fill:#ffffff"
       d="m 448.79688,559.71875 c -24.78091,-0.43895 -51.25557,14.74505 -57.89649,39.69141 -3.61861,17.68495 -0.045,35.93506 -1.7832,53.73828 -3.72007,7.14 -12.71964,3.11764 -18.88084,3.94997 -54.73467,0.27873 -109.4701,0.0353 -164.2051,0.12034 -1.89356,-21.53741 3.56363,-43.92079 -3.98242,-64.66992 -11.12343,-24.66935 -41.06754,-36.34318 -66.48242,-32.0293 -22.62188,3.44659 -44.331612,20.30252 -48.208988,43.68359 -27.78889,-9.73962 -63.814417,0.79026 -77.148438,28.45508 -7.8070033,18.07094 -2.8066176,38.13429 -4.0976559,57.125 0.4978595,22.20899 -1.8899721,44.85217 1.6484375,66.69336 8.0726304,26.63472 38.2110984,41.50495 64.6660154,38.09571 5.068422,-0.51425 10.048469,-1.65327 14.949219,-3.01758 4.425387,26.52513 31.73494,44.32593 57.29667,44.40315 25.9046,1.1097 54.33699,-14.92949 60.12612,-41.55624 3.15426,-17.36373 -0.96625,-35.47748 2.02057,-52.64769 5.60122,-6.65986 14.84072,-1.83699 22.05078,-3.31055 53.46224,0 106.92448,0 160.38672,0 1.78548,21.12366 -3.23028,42.91509 3.47266,63.4043 11.07045,26.48921 43.58509,38.81857 70.30468,32.63086 20.06872,-4.17276 38.53734,-18.5937 43.98242,-38.77735 4.41606,-5.99382 11.80304,-0.46144 17.48243,-0.91992 26.16609,2.44486 55.53279,-12.30711 63.09375,-38.72852 3.91185,-19.07874 0.54402,-38.68044 1.56103,-58.041 -0.35995,-19.94111 1.95095,-40.19312 -1.94385,-59.81642 -7.92156,-23.98235 -33.61286,-38.19596 -57.88867,-37.47265 -7.3059,0.0398 -14.57215,1.42813 -21.41406,3.38672 -4.66192,-27.2996 -32.61112,-44.89372 -59.10937,-44.39063 z m -0.87305,13.98633 c 20.95831,-1.23527 43.25007,15.93533 42.22851,37.98633 -0.32132,59.8337 0.70961,119.7166 -0.54101,179.51953 -4.28722,22.65984 -30.69607,35.32285 -51.97461,29.47656 -17.99418,-4.0052 -32.82757,-21.73709 -30.25941,-40.60936 0.39877,-58.76971 -0.87391,-117.59635 0.66957,-176.33009 3.63638,-18.08058 22.16509,-29.94393 39.87695,-30.04297 z m -302.2461,0.002 c 20.93766,-1.23335 43.21576,15.89868 42.23047,37.92774 -0.31228,59.85319 0.71041,119.75575 -0.54101,179.57812 -4.28769,22.65985 -30.69816,35.32382 -51.97657,29.47461 -17.9916,-4.00754 -32.82495,-21.73552 -30.2539,-40.60741 0.39924,-58.76907 -0.87075,-117.59511 0.66797,-176.32814 3.63185,-18.08119 22.16179,-29.94804 39.87304,-30.04492 z M 531.6875,614.6875 c 20.44904,-0.0228 41.22633,17.49197 39.61997,38.92379 -0.52081,32.86002 1.23235,65.83765 -0.95981,98.62309 -5.90049,23.05553 -34.34157,34.50065 -55.68946,26.125 -3.99047,-0.61922 -8.26793,-4.23829 -6.54297,-8.64063 0,-49.87891 0,-99.75781 0,-149.63672 7.26612,-3.71675 15.40383,-5.64598 23.57227,-5.39453 z m -465.777344,0.0137 c 7.390371,0.0612 14.688107,2.05493 21.263672,5.38281 -6.13e-4,51.80013 -0.0013,103.60026 -0.002,155.4004 -21.115059,12.34572 -53.265858,3.3735 -61.425781,-20.66797 -4.140894,-15.81261 -0.618781,-32.1576 -1.688236,-48.20898 0.404156,-21.45382 -1.532974,-43.13649 1.21558,-64.45118 4.970147,-17.20838 23.311346,-27.92961 40.636718,-27.45508 z m 141.960934,56.4961 c 60.51498,0 121.02995,0 181.54493,0 0,17.75585 0,35.51171 0,53.26757 -61.18165,0 -122.36329,0 -183.54493,0 0,-17.75586 0,-35.51172 0,-53.26757 h 1 z"
       id="path2"
       inkscape:connector-curvature="0" /><path
       d="M462.943,598.404c-7.174,0-12.988,5.813-12.988,12.988v5.012c0,7.175,5.814,12.989,12.988,12.989   c7.176,0,12.99-5.814,12.99-12.989v-5.012C475.933,604.219,470.119,598.404,462.943,598.404z"
       id="path4"
       style="fill:#ffffff" /></g><g
     class="blue"
     style="fill:#000000"
     id="g14"
     transform="translate(0,-4)"><path
       d="m 191.961,524.294 h 23.437 c 7.175,0 12.99,-5.813 12.99,-12.989 0,-7.175 -5.815,-12.988 -12.99,-12.988 h -23.437 c -7.174,0 -12.989,5.813 -12.989,12.988 0,7.175 5.815,12.989 12.989,12.989 z"
       id="path8"
       style="fill:#ffffff"
       inkscape:connector-curvature="0" /><path
       d="m 191.961,482.427 h 23.437 c 7.175,0 12.99,-5.814 12.99,-12.988 0,-7.176 -5.815,-12.99 -12.99,-12.99 h -23.437 c -7.174,0 -12.989,5.814 -12.989,12.99 0,7.173 5.815,12.988 12.989,12.988 z"
       id="path10"
       style="fill:#ffffff"
       inkscape:connector-curvature="0" /><path
       style="fill:#ff0000"
       d="m 222.99219,284.48047 c -15.88388,0.87355 -32.18031,-1.12102 -47.80274,1.03711 -6.50991,4.99338 -2.59232,14.26163 -3.54492,21.19922 v 23.82812 c -6.05024,-0.0923 -15.92468,-2.96391 -19.17578,4.16992 -1.48981,15.50356 -0.044,31.22894 -0.65625,46.85157 -24.85241,3.52782 -44.4171,28.22259 -42.65625,53.29882 -1.28132,5.94611 1.68068,13.13669 8.28906,13.95899 20.41984,9.72423 26.80283,39.87512 11.27539,56.63672 -4.86949,6.1452 -13.00248,8.62548 -18.375,13.74609 -2.83102,8.06997 -0.008,16.76372 -0.79297,25.11914 0.11412,7.04254 -2.93475,16.94197 3.80665,21.77735 5.69269,2.30193 11.92884,-3.6392 9.90658,-9.39062 0.06,-9.89445 -0.003,-19.78907 0.0211,-29.6836 26.6431,-12.37255 36.89063,-49.75092 19.48047,-73.6543 -4.89459,-7.27092 -11.53371,-13.11445 -19.2832,-17.16016 -3.53609,-22.13189 17.5569,-43.93231 39.79291,-41.21234 31.01011,0.57486 62.15829,-1.3768 93.08209,1.04633 14.75232,3.60274 26.40599,17.19834 27.64843,32.3457 -20.55724,20.41168 -36.16438,49.39271 -32.20312,79.10938 2.64712,15.07479 13.25538,29.50985 28.50976,33.42382 6.91675,5.10986 2.52503,14.39975 3.81406,21.43352 0.41914,28.44239 0.91769,69.66314 0.76365,95.63292 0,0 13.36234,8.50544 11.87237,-5.52293 0.79429,-24.24495 0.82558,-57.42863 1.29016,-81.68608 v -28.82422 c 22.36475,-3.76021 35.89508,-28.13776 32.75586,-49.58008 -1.97255,-24.25577 -15.87234,-46.23434 -31.92383,-63.94336 -2.97625,-6.49206 -2.19194,-14.16675 -6.54688,-20.17773 -7.30978,-13.90167 -21.23537,-24.15876 -36.76562,-26.72461 -1.16901,-16.15014 1.85318,-32.77967 -1.52149,-48.56641 -4.80287,-4.77286 -12.16424,-2.52264 -18.14843,-2.46484 -1.49133,-14.37842 1.9992,-29.31082 -1.6875,-43.33594 -2.75016,-3.09711 -7.48389,-2.63335 -11.22461,-2.6875 z M 187.625,298.58984 h 34.10938 c -10e-6,10.53776 0,21.07552 0,31.61328 H 185.625 v -31.61328 h 1 z m -19.76562,45.5918 h 73.63867 v 36.80664 h -75.63867 c -10e-6,-12.26888 0,-24.53776 0,-36.80664 h 1 z m 124.74218,98.2793 c 15.04102,17.81769 28.12109,41.14019 23.39298,65.23607 -2.99102,14.30574 -19.29928,25.29475 -33.42227,19.35963 -14.43343,-5.60564 -20.03576,-23.27711 -16.84097,-37.50529 2.74526,-18.61023 13.33984,-34.91951 25.33315,-48.96541 z"
       id="path12"
       inkscape:connector-curvature="0"
       sodipodi:nodetypes="ccccccccccccccccccccccccccccccccccccccccccccccccccccccc" /></g></svg>