<?xml version="1.0" encoding="UTF-8" standalone="no"?>
<!-- Generator: Adobe Illustrator 15.0.0, SVG Export Plug-In . SVG Version: 6.00 Build 0)  -->

<svg
   xmlns:dc="http://purl.org/dc/elements/1.1/"
   xmlns:cc="http://creativecommons.org/ns#"
   xmlns:rdf="http://www.w3.org/1999/02/22-rdf-syntax-ns#"
   xmlns:svg="http://www.w3.org/2000/svg"
   xmlns="http://www.w3.org/2000/svg"
   xmlns:sodipodi="http://sodipodi.sourceforge.net/DTD/sodipodi-0.dtd"
   xmlns:inkscape="http://www.inkscape.org/namespaces/inkscape"
   version="1.1"
   id="Layer_1"
   x="0px"
   y="0px"
   viewBox="0 123.307 595.281 595.275"
   enable-background="new 0 123.307 595.281 595.275"
   xml:space="preserve"
   sodipodi:docname="glycemiaSelected.svg"
   inkscape:version="0.92.3 (2405546, 2018-03-11)"><metadata
   id="metadata27"><rdf:RDF><cc:Work
       rdf:about=""><dc:format>image/svg+xml</dc:format><dc:type
         rdf:resource="http://purl.org/dc/dcmitype/StillImage" /><dc:title></dc:title></cc:Work></rdf:RDF></metadata><defs
   id="defs25" /><sodipodi:namedview
   pagecolor="#ffffff"
   bordercolor="#666666"
   borderopacity="1"
   objecttolerance="10"
   gridtolerance="10"
   guidetolerance="10"
   inkscape:pageopacity="0"
   inkscape:pageshadow="2"
   inkscape:window-width="1853"
   inkscape:window-height="1025"
   id="namedview23"
   showgrid="false"
   inkscape:zoom="1.5858216"
   inkscape:cx="233.01091"
   inkscape:cy="346.9464"
   inkscape:window-x="67"
   inkscape:window-y="27"
   inkscape:window-maximized="1"
   inkscape:current-layer="g16" />
<g
   id="g20">
	<g
   id="g18">
		<g
   id="g16">
			
			<path
   d="M556.875,228.92c-7.027,0-13.527,2.035-19.201,5.338v-14.939c0-21.181-17.225-38.405-38.406-38.405     c-7.959,0-15.361,2.438-21.496,6.596c-5.252-14.968-19.367-25.799-36.111-25.799s-30.869,10.831-36.111,25.799     c-6.135-4.157-13.537-6.596-21.496-6.596c-17.85,0-32.75,12.289-37.043,28.804h-59.615c1.78,6.272,0.45,12.966,1.281,19.203     h76.174v19.202h-75.617c-0.119,6.917-3.2,12.955-4.512,19.202h60.926v178.45l-9.602-9.602v-48.832     c0-23.821-19.385-43.206-43.205-43.206c-23.821,0-43.206,19.385-43.206,43.206v93.661l50.127,91.894     c6.607,12.117,16.611,21.776,28.949,27.939l16.936,8.469v109.282h19.203V597.436l-27.555-13.778     c-8.805-4.406-15.959-11.3-20.672-19.951l-47.786-87.602v-88.765c0-13.24,10.763-24.003,24.003-24.003     s24.004,10.763,24.004,24.003v56.782l24.828,24.829h23.178V267.324h19.203v-57.607h-16.533c3.33-5.713,9.457-9.602,16.533-9.602     c10.58,0,19.201,8.622,19.201,19.203V382.54h19.203V219.318v-19.203c0-10.58,8.613-19.202,19.203-19.202     c10.58,0,19.203,8.622,19.203,19.202v19.203v9.602v153.62h19.201V228.92v-9.602c0-10.581,8.613-19.203,19.203-19.203     c10.58,0,19.203,8.622,19.203,19.203v48.006v9.602V382.54h19.203V276.926v-9.602c0-10.58,8.611-19.202,19.201-19.202     c10.582,0,19.203,8.622,19.203,19.202v288.039c0,18.301-10.168,34.757-26.537,42.938l-11.867,5.934v114.352h19.201V616.101     l1.258-0.624c22.918-11.454,37.148-34.488,37.148-60.114V267.324C595.281,246.144,578.056,228.92,556.875,228.92z"
   id="path2"
   style="fill:#1c2833;fill-opacity:1" />
							<path
   d="M400.441,442.961l-13.576,13.576l23.859,23.859c19.941,19.961,30.936,46.471,30.936,74.688v38.684h19.203v-38.684     c0-33.345-12.99-64.684-36.563-88.255L400.441,442.961z"
   id="path4"
   style="fill:#1c2833;fill-opacity:1" />
<g
   class="red"
   id="g14">
			<path
   d="M287.549,248.122c0.269-3.178,0.49-6.365,0.49-9.602c0-3.235-0.221-6.423-0.49-9.601h1.126     c-0.831-6.237,0.499-12.931-1.281-19.203h-3.148c-4.589-17.733-13.259-33.797-25.011-47.152v-0.854h-0.778     c-21.104-23.504-51.626-38.404-85.634-38.404H48.006C21.536,123.305,0,144.841,0,171.311v134.418     c0,26.471,21.536,48.007,48.006,48.007h124.817c34.008,0,64.53-14.901,85.634-38.405h0.778v-0.854     c11.752-13.355,20.422-29.418,25.011-47.152h0.474c1.312-6.248,4.393-12.285,4.512-19.202H287.549z M172.823,334.533H48.006     c-15.88,0-28.804-12.923-28.804-28.804V171.311c0-15.881,12.923-28.804,28.804-28.804h124.817     c21.517,0,41.333,7.201,57.358,19.202h-9.352c-15.88,0-28.804,12.924-28.804,28.805v96.013c0,15.881,12.923,28.804,28.804,28.804     h9.352C214.157,327.333,194.34,334.533,172.823,334.533z M249.451,296.129H220.83c-5.3,0-9.601-4.302-9.601-9.602v-96.013     c0-5.301,4.301-9.602,9.601-9.602h28.622c12.107,16.072,19.385,35.985,19.385,57.607S261.559,280.055,249.451,296.129z"
   id="path6"
   style="fill:#1c2833;fill-opacity:1" />

			<path
   d="M38.405,315.331h134.418V161.71H38.405V315.331z M57.608,180.913h96.013v115.216H57.608V180.913z"
   id="path8"
   style="fill:#ff0000;fill-opacity:1" />
			<rect
   x="76.811"
   y="257.723"
   width="19.203"
   height="19.202"
   id="rect10"
   style="fill:#ff0000" />
			<rect
   x="115.215"
   y="257.723"
   width="19.203"
   height="19.202"
   id="rect12"
   style="fill:#ff0000" />
		</g>
		</g>

	</g>
</g>
</svg>