<?xml version="1.0" encoding="UTF-8" standalone="no"?>
<!-- Generator: Adobe Illustrator 15.0.0, SVG Export Plug-In . SVG Version: 6.00 Build 0)  -->

<svg
   xmlns:dc="http://purl.org/dc/elements/1.1/"
   xmlns:cc="http://creativecommons.org/ns#"
   xmlns:rdf="http://www.w3.org/1999/02/22-rdf-syntax-ns#"
   xmlns:svg="http://www.w3.org/2000/svg"
   xmlns="http://www.w3.org/2000/svg"
   xmlns:sodipodi="http://sodipodi.sourceforge.net/DTD/sodipodi-0.dtd"
   xmlns:inkscape="http://www.inkscape.org/namespaces/inkscape"
   version="1.1"
   id="Capa_1"
   x="0px"
   y="0px"
   style="fill:white"
   viewBox="0 126.536 595.281 588.816"
   enable-background="new 0 126.536 595.281 588.816"
   xml:space="preserve"
   sodipodi:docname="healthy-nutrition-2.svg"
   inkscape:version="0.91 r13725"><metadata
     id="metadata12"><rdf:RDF><cc:Work
         rdf:about=""><dc:format>image/svg+xml</dc:format><dc:type
           rdf:resource="http://purl.org/dc/dcmitype/StillImage" /><dc:title></dc:title></cc:Work></rdf:RDF></metadata><defs
     id="defs10" /><sodipodi:namedview
     pagecolor="#ffffff"
     bordercolor="#666666"
     borderopacity="1"
     objecttolerance="10"
     gridtolerance="10"
     guidetolerance="10"
     inkscape:pageopacity="0"
     inkscape:pageshadow="2"
     inkscape:window-width="1920"
     inkscape:window-height="1058"
     id="namedview8"
     showgrid="false"
     inkscape:zoom="0.40080434"
     inkscape:cx="-157.69389"
     inkscape:cy="294.40799"
     inkscape:window-x="1592"
     inkscape:window-y="-8"
     inkscape:window-maximized="1"
     inkscape:current-layer="Capa_1" /><path
     style="fill:#ffffff"
     d="m 160.50195,130.53516 c -9.0291,0.0819 -11.37512,10.67263 -10.16441,17.82915 -0.64507,21.17674 -1.29007,42.35348 -1.9352,63.53022 -41.11952,-2.3032 -83.894446,-1.77425 -122.695309,13.40039 -10.672936,4.37841 -23.3962732,13.55979 -21.4306823,26.84262 3.0854972,108.88522 7.0043093,217.72003 10.3983943,326.61321 0.928308,19.60477 0.872933,39.40901 2.530335,58.88402 5.236697,9.46573 17.252788,11.39219 26.646201,14.61713 26.528756,6.80793 54.228116,8.43083 81.601841,6.91412 8.96102,-2.68017 8.97408,-18.23081 -1.14062,-19.36914 -8.81542,-1.23973 -17.77891,0.60412 -26.645942,-0.6204 C 76.993116,638.33116 55.961726,636.26328 36.589844,628.50977 32.752159,510.36458 28.917029,392.2193 25.076172,274.07422 c 37.445951,14.32602 77.960558,15.60552 117.486328,13.75976 5.75457,0.77106 2.88278,7.83321 3.19541,11.40807 -1.53936,59.73674 -4.25512,119.50598 -4.98838,179.22475 2.2457,9.28523 18.4635,9.50673 19.39063,-0.82422 1.82341,-11.45546 0.33149,-23.33845 1.50742,-34.98951 1.59455,-52.37459 3.18894,-104.74919 4.78359,-157.12377 15.60963,-2.22335 31.14994,-5.54616 45.60938,-11.50782 -1.12759,46.797 -3.56091,93.60246 -3.89063,140.36914 2.28527,9.24107 18.40183,9.44907 19.3711,-0.80078 1.8226,-11.46149 0.37889,-23.31494 1.53147,-34.97795 1.11898,-44.1603 3.37653,-88.36096 3.6736,-132.49275 -2.90507,-12.46544 -15.88678,-19.7369 -27.30664,-22.50976 -9.14771,-0.22801 -13.85889,13.93958 -5.39843,18.54492 4.5222,2.72302 9.77416,4.18222 13.76953,7.78711 -13.91212,9.17995 -30.61423,12.23802 -46.73243,15.08984 0.90186,-42.49134 3.34309,-85.04663 3.29688,-127.49023 -1.31583,-4.12756 -5.51874,-7.1878 -9.87305,-7.00586 z m 196.76758,24.36718 c -9.91434,-0.43928 -13.57966,15.82621 -3.88672,19.13282 8.81261,4.74149 14.44223,15.23044 11.38831,25.15107 -4.57741,22.91082 -18.57235,42.3434 -27.0296,63.83838 -7.67652,17.20003 -12.63372,39.3501 -0.513,55.79961 5.35906,7.09869 13.21242,14.24225 22.47851,14.4668 8.37955,-1.43857 11.51729,-14.54028 3.23242,-18.4375 -6.90696,-4.14011 -13.47687,-10.76404 -12.72851,-19.4961 0.16141,-15.43592 8.80901,-28.96148 14.66015,-42.74219 10.26166,-21.42225 23.89013,-43.77268 19.97461,-68.2832 -3.00725,-13.53937 -13.85362,-26.7401 -27.57617,-29.42969 z m -238.71484,76.16797 c 9.75491,-0.0128 19.50593,0.41435 29.23242,1.14258 -0.35685,11.69271 -0.71225,23.38546 -1.07031,35.07813 -37.79419,2.11171 -76.942033,1.72106 -112.849612,-11.6211 -3.845836,-1.67623 -7.436106,-3.85915 -11.007813,-6.04297 24.117226,-14.67437 53.230854,-16.39622 80.661295,-18.25585 5.00865,-0.2013 10.0212,-0.29649 15.03402,-0.30079 z m 411.20703,65.06055 c -56.33214,0.93897 -106.95296,46.00032 -116.98633,101.14258 -4.90058,25.21949 -1.45411,52.92881 11.00977,75.50781 -6.47893,4.37463 -10.1121,15.46895 -2.29297,20.37695 6.48908,4.29607 14.02466,-1.13096 17.35547,-6.58984 5.33787,-1.88867 10.637,2.17329 16.0664,1.99219 6.41436,1.30308 13.98271,-0.59362 19.61336,2.75203 13.63083,13.63083 27.26167,27.26166 40.8925,40.8925 -104.97925,13.66955 -211.73014,13.67269 -316.70898,-0.004 46.1015,-45.63804 91.33938,-92.20046 137.95312,-137.28711 11.70739,-8.71358 28.19809,-7.96023 40.50391,-0.97851 9.25442,2.21772 16.63844,-11.95121 8.22461,-17.54297 -11.80307,-8.25716 -27.34367,-9.85657 -41.05255,-6.70837 -14.89506,3.11288 -26.51517,13.52825 -36.30612,24.54621 -42.1195,42.43829 -84.97931,84.20591 -126.54758,127.14263 -1.7272,3.9797 -5.66989,9.39415 -10.64453,6.60742 -11.91915,-1.20717 -23.77603,-5.86551 -35.64258,-5.16406 -8.90005,3.60125 -6.68306,14.50223 -5.50496,21.92825 6.97245,50.57553 41.59282,93.34822 84.20808,119.42331 21.00475,13.10474 44.07615,22.7059 67.83594,29.2168 -6.19668,6.52342 -0.74733,19.3369 8.50195,17.96093 45.99717,-0.32694 92.08633,0.66603 138.02539,-0.51172 7.10071,-2.29299 8.81428,-12.04249 4.19141,-17.46875 54.93787,-14.83758 107.3841,-47.82261 135.2207,-98.46679 10.60789,-19.90566 18.1966,-42.77278 17.44141,-65.66992 -2.72807,-8.34897 -13.05066,-7.66725 -19.69955,-5.18931 -9.29503,1.79002 -18.62786,3.37817 -27.97232,4.89243 -9.35187,-15.89007 -24.71279,-26.71623 -36.84375,-40.25976 -0.32328,-6.24603 8.26079,-4.95938 11.89257,-7.61915 50.91797,-19.70296 85.72096,-76.43087 77.70508,-130.74609 -2.45662,-16.321 -7.56721,-33.55835 -18.44922,-46.29297 -12.63712,-6.39323 -27.98488,-7.83742 -41.99023,-7.88281 z m 2.10742,20.24414 c 9.40105,0.51935 20.06089,0.28665 28.08594,5.56641 20.51361,36.59118 11.02894,84.99801 -17.57222,114.5851 -21.14292,22.88327 -53.36595,36.05568 -84.45903,31.91294 -4.63759,-3.07603 1.54692,-8.12531 3.75586,-10.58203 17.93098,-23.36308 37.72939,-45.47847 54.8789,-69.4082 3.30024,-9.0334 -10.16474,-18.11192 -16.64648,-10.01367 -8.9383,9.14993 -15.74637,20.15318 -24.32286,29.65327 -12.65156,15.71188 -25.30255,31.42421 -37.95448,47.13579 -16.1806,-39.22136 -2.13862,-86.90206 29.83579,-113.86584 17.68782,-15.43256 40.81425,-24.91755 64.39858,-24.98377 z M 69.798828,326.98242 c -9.194994,-0.61244 -13.668966,13.22759 -6.101562,18.30664 3.966207,6.66185 14.701081,10.24634 19.716796,2.83399 4.386566,-6.42225 -0.330782,-13.81206 -5.736328,-17.66211 -2.102821,-2.02018 -4.883578,-3.61705 -7.878906,-3.47852 z m 26.734375,61.64649 c -7.391932,1.09007 -13.820141,7.93979 -15.275391,15.10937 -0.259522,8.58452 11.87011,14.23156 17.69336,7.16211 6.169288,-4.10404 11.316058,-13.89333 4.515628,-19.6543 -1.88191,-1.68274 -4.398965,-2.68179 -6.933597,-2.61718 z m -21.714844,55.75781 c -9.216725,-0.68653 -13.730605,13.21581 -6.15625,18.30664 3.958089,6.67562 14.718337,10.25121 19.726563,2.81836 4.383671,-6.42649 -0.386968,-13.83054 -5.785156,-17.69336 -2.090115,-1.98486 -4.826286,-3.54585 -7.785157,-3.43164 z M 563.41602,547.84961 c -8.73499,45.20736 -42.49173,81.87239 -81.83594,103.71094 -65.74576,36.69916 -147.71422,40.74272 -217.90093,14.61142 -44.68347,-16.91154 -86.27617,-48.54174 -105.35358,-93.43048 -3.76384,-8.91158 -6.38504,-18.26877 -8.20252,-27.76102 120.64819,21.37345 244.75686,22.98659 366.23124,7.50291 15.93498,-2.12235 31.79805,-4.64119 47.6379,-7.50682 -0.19206,0.95768 -0.38412,1.91537 -0.57617,2.87305 z M 18.974609,675.5625 c -9.8586641,-0.41583 -13.6164513,15.56026 -4.074241,19.16882 20.385828,11.71902 44.745432,13.09945 67.51896,15.39273 35.272912,2.39458 71.367542,1.92297 105.947862,-6.42483 8.17742,-4.25823 5.37062,-19.43208 -4.58985,-18.72656 -9.65607,0.50354 -18.96504,3.83375 -28.71577,3.94874 -39.13352,3.80581 -79.227576,3.29286 -117.536179,-6.23976 -6.255474,-1.48196 -11.627814,-5.62484 -17.748047,-7.11914 l -0.392578,-0.008 z"
     id="XMLID_1375_"
     inkscape:connector-curvature="0" /><path
     style="fill:#ff0000;stroke-miterlimit:10"
     d="m 529.76367,296.13086 c -53.63214,0.74855 -102.62605,42.346 -115.33203,93.625 -7.10931,27.43181 -4.39878,57.8196 9.35352,83.0293 -6.74284,4.46163 -10.08828,16.14468 -1.75391,20.70703 6.60302,3.74563 13.48331,-1.85528 16.91602,-6.94922 5.82541,-1.6926 11.54627,2.3003 17.44335,2.26172 15.8865,1.87271 31.55444,-2.03865 47.12789,-4.90458 30.53018,-8.67712 56.49569,-31.01129 71.94633,-58.48214 18.61847,-33.20488 21.71462,-75.25 4.20899,-109.57031 -2.78013,-6.4417 -6.82102,-13.3875 -14.3711,-14.64258 -11.38767,-3.82334 -23.44375,-5.23909 -35.53906,-5.07422 z m 2.10742,20.24414 c 9.40134,0.51857 20.06066,0.28487 28.08594,5.56445 20.5121,36.58922 11.03059,84.99409 -17.56761,114.58186 -21.14422,22.886 -53.3689,36.06133 -84.46559,31.91814 -4.63759,-3.07603 1.54692,-8.12531 3.75586,-10.58203 17.93098,-23.36308 37.72939,-45.47847 54.8789,-69.4082 3.30024,-9.0334 -10.16474,-18.11192 -16.64648,-10.01367 -8.9383,9.14993 -15.74637,20.15318 -24.32286,29.65327 -12.65228,15.71247 -25.3034,31.42588 -37.95644,47.13774 -16.17074,-39.22397 -2.14623,-86.89201 29.8397,-113.86974 17.68755,-15.43212 40.81443,-24.91741 64.39858,-24.98182 z"
     id="path3"
     inkscape:connector-curvature="0" /></svg>