<?xml version="1.0" encoding="UTF-8" standalone="no"?>
<!-- Generator: Adobe Illustrator 15.0.0, SVG Export Plug-In . SVG Version: 6.00 Build 0)  -->

<svg
   xmlns:dc="http://purl.org/dc/elements/1.1/"
   xmlns:cc="http://creativecommons.org/ns#"
   xmlns:rdf="http://www.w3.org/1999/02/22-rdf-syntax-ns#"
   xmlns:svg="http://www.w3.org/2000/svg"
   xmlns="http://www.w3.org/2000/svg"
   xmlns:sodipodi="http://sodipodi.sourceforge.net/DTD/sodipodi-0.dtd"
   xmlns:inkscape="http://www.inkscape.org/namespaces/inkscape"
   version="1.1"
   id="Layer_1"
   x="0px"
   y="0px"
   style="fill:white"
   viewBox="0 123.307 595.281 595.275"
   enable-background="new 0 123.307 595.281 595.275"
   xml:space="preserve"
   inkscape:version="0.91 r13725"
   sodipodi:docname="medicine.svg"
   inkscape:export-filename="C:\Users\Adrien\Desktop\Documentation\Visioconsult\serveur\nvp-visioconsult\tablet\src\assets\images\icons\medicine.png"
   inkscape:export-xdpi="90"
   inkscape:export-ydpi="90"><metadata
     id="metadata17"><rdf:RDF><cc:Work
         rdf:about=""><dc:format>image/svg+xml</dc:format><dc:type
           rdf:resource="http://purl.org/dc/dcmitype/StillImage" /><dc:title /></cc:Work></rdf:RDF></metadata><defs
     id="defs15" /><sodipodi:namedview
     pagecolor="#ffffff"
     bordercolor="#666666"
     borderopacity="1"
     objecttolerance="10"
     gridtolerance="10"
     guidetolerance="10"
     inkscape:pageopacity="0"
     inkscape:pageshadow="2"
     inkscape:window-width="1920"
     inkscape:window-height="1058"
     id="namedview13"
     showgrid="false"
     inkscape:zoom="0.5"
     inkscape:cx="-214.75579"
     inkscape:cy="312.41475"
     inkscape:window-x="1592"
     inkscape:window-y="-8"
     inkscape:window-maximized="1"
     inkscape:current-layer="g5" /><g
     id="g3"><g
       id="g5"><path
         style="fill:#ffffff"
         d="M 281.07031,154.85547 C 182.71455,155.58957 86.976654,219.88976 51.408203,312.25391 17.126372,396.3389 31.277686,499.75997 91.372381,569.0803 c 33.820869,37.27181 80.198469,61.17252 127.998689,74.75684 3.31048,-0.0443 9.01425,4.45822 10.61526,0.80348 2.19841,-6.80324 -0.19362,-14.44107 3.17578,-20.98437 C 168.4278,606.60691 108.47425,564.14171 78.708984,503.1543 44.459598,433.53709 50.81813,345.54009 96.088211,282.29274 135.69122,225.08877 200.57266,182.64945 271.17578,179.67383 c 46.06218,-2.75033 93.49088,6.65542 132.99359,31.12158 30.71013,18.62371 55.80444,46.07975 72.06567,78.05898 13.11787,19.21627 23.05758,41.0196 29.65168,62.99522 7.38893,-4.61455 17.1378,-2.78822 24.67578,-5.7168 C 513.01077,280.60775 468.31168,222.49591 410.04688,187.66016 371.22791,164.69095 325.64542,154.56115 281.07031,154.85547 Z"
         id="path9"
         inkscape:connector-curvature="0" /><path
         style="fill:#ffffff"
         d="m 277.93359,251.72251 c -10.2629,0.54894 -14.21312,7.94958 -11.27761,17.01172 2.57837,43.56424 0.11747,108.43142 3.15847,151.84389 5.87277,8.2744 17.52164,4.4697 26.04102,4.82227 21.29366,-0.62871 43.1305,2.31418 63.94726,-1.87891 6.9626,-4.97155 3.64519,-18.14552 -5.45117,-17.97265 -11.52868,-1.39716 -23.12252,1.12594 -34.69524,0.0635 -10.00267,0.32113 -21.86708,0.77337 -26.60995,-9.86162 -4.92006,-11.42495 -2.45071,-24.90477 -3.32371,-36.85815 0.55023,-27.8456 0.74927,-67.67108 -1.07445,-95.36174 -2.45469,-4.79573 -5.39786,-11.91585 -10.71462,-11.80831 z"
         id="path11"
         inkscape:connector-curvature="0"
         sodipodi:nodetypes="ccccccccccc" /><path
         style="fill:#ff0000"
         d="m 503.18359,350.93359 c -28.55311,0.78639 -53.05682,19.54436 -71.1941,40.58168 -54.91054,55.54529 -109.01018,112.30686 -167.13988,164.40661 -10.89215,13.01029 -20.45639,27.51647 -26.74805,43.29882 -11.57934,34.51643 7.22116,76.35382 40.71536,90.46197 28.96186,13.22025 66.45003,7.05375 87.72253,-17.57017 42.6842,-43.19247 84.43382,-87.3673 127.5905,-130.12405 24.74925,-25.14453 50.03142,-49.89443 73.38567,-76.32048 21.84085,-33.11062 10.94616,-83.86922 -23.60937,-103.60938 -12.29597,-7.27241 -26.57316,-11.58927 -40.72266,-11.125 z m -1.30664,21.42774 c 30.91081,-1.06146 59.77161,28.69847 55.00196,59.86523 -2.0543,20.11893 -16.69923,35.7157 -31.24117,48.3903 -22.84341,22.87082 -44.72792,46.80441 -69.42094,67.74642 -11.27572,1.9743 -18.80749,-8.85877 -25.70118,-15.82422 -17.12798,-17.23783 -36.961,-32.37448 -51.21093,-52.13672 -2.04333,-11.3375 8.8011,-18.99143 16.11523,-25.63281 27.52707,-26.22785 52.80316,-55.35026 84.01119,-77.34795 6.99406,-3.29349 14.72108,-4.9928 22.44584,-5.06025 z M 360.17383,494.30859 c 14.08161,1.61353 20.73455,16.09578 30.39062,24.35547 13.99647,15.89376 31.61453,29.3573 42.15821,47.86328 0.0943,11.9659 -12.40465,17.69864 -19.29714,25.52822 -26.47049,24.74231 -50.70056,52.35915 -80.19114,73.62999 -27.66761,13.58309 -66.1438,-2.99654 -72.85352,-33.71875 -5.95794,-21.33409 3.10179,-45.07597 20.10444,-58.76447 25.31188,-26.28375 49.11089,-54.25026 76.72954,-78.16131 0.93077,-0.41742 1.9344,-0.70634 2.95899,-0.73243 z"
         id="path7"
         inkscape:connector-curvature="0" /></g></g></svg>