<?xml version="1.0" encoding="UTF-8" standalone="no"?>
<!-- Generator: Adobe Illustrator 15.0.0, SVG Export Plug-In . SVG Version: 6.00 Build 0)  -->

<svg
   xmlns:dc="http://purl.org/dc/elements/1.1/"
   xmlns:cc="http://creativecommons.org/ns#"
   xmlns:rdf="http://www.w3.org/1999/02/22-rdf-syntax-ns#"
   xmlns:svg="http://www.w3.org/2000/svg"
   xmlns="http://www.w3.org/2000/svg"
   xmlns:sodipodi="http://sodipodi.sourceforge.net/DTD/sodipodi-0.dtd"
   xmlns:inkscape="http://www.inkscape.org/namespaces/inkscape"
   version="1.2"
   id="Layer_1"
   x="0px"
   y="0px"
   viewBox="0 123.307 595.281 595.275"
   xml:space="preserve"
   style="fill:white"
   sodipodi:docname="microphone-2Seleted.svg"
   inkscape:version="0.91 r13725"
   inkscape:export-filename="C:\Users\Adrien\Desktop\Documentation\Visioconsult\serveur\nvp-visioconsult\tablet\src\assets\images\icons\microphone-2Selected.png"
   inkscape:export-xdpi="90"
   inkscape:export-ydpi="90"><metadata
     id="metadata35"><rdf:RDF><cc:Work
         rdf:about=""><dc:format>image/svg+xml</dc:format><dc:type
           rdf:resource="http://purl.org/dc/dcmitype/StillImage" /><dc:title></dc:title></cc:Work></rdf:RDF></metadata><defs
     id="defs33" /><sodipodi:namedview
     pagecolor="#ffffff"
     bordercolor="#666666"
     borderopacity="1"
     objecttolerance="10"
     gridtolerance="10"
     guidetolerance="10"
     inkscape:pageopacity="0"
     inkscape:pageshadow="2"
     inkscape:window-width="1600"
     inkscape:window-height="838"
     id="namedview31"
     showgrid="false"
     inkscape:zoom="0.5"
     inkscape:cx="-67.3595"
     inkscape:cy="297.63751"
     inkscape:window-x="-8"
     inkscape:window-y="-8"
     inkscape:window-maximized="1"
     inkscape:current-layer="g28" /><g
     id="g6"
     style="fill:#1c2833;fill-opacity:1"><g
       id="g4"
       style="fill:#1c2833;fill-opacity:1"><path
         style="fill:#1c2833;fill-opacity:1"
         d="m 115.98633,325.81836 c -8.80927,-0.0267 -11.68561,11.09393 -9.78056,18.1853 1.28744,42.38738 -4.06176,85.54159 5.89384,126.99243 17.10518,66.87189 72.98322,122.89616 140.57812,138.2461 11.5926,2.81501 23.2235,4.4687 34.98633,5.14843 0,26.74219 0,53.48438 0,80.22657 -27.07497,0.77431 -54.40562,-1.46209 -81.26953,1.16601 -8.32756,4.15233 -5.0948,19.99723 5.00982,18.50702 35.5409,0.62221 71.26025,-0.10894 106.87298,0.36004 23.46731,-0.10629 47.16998,0.48763 70.46876,-1.11315 8.39469,-4.18705 5.41762,-20.10264 -4.95898,-18.61133 -21.25232,-0.73628 -42.72173,0.20834 -64.05664,-0.28906 -5.48046,-0.55796 -14.84205,2.76523 -12.11524,-6 0,-24.75391 0,-49.50781 0,-74.26172 78.07387,-2.98822 151.13511,-59.78987 173.10743,-134.99219 9.32345,-29.49892 9.19938,-60.60962 8.27696,-91.25974 -0.14597,-19.3279 1.50751,-39.03871 -1.43907,-58.0176 -4.71359,-7.44328 -19.40239,-4.09774 -18.11568,5.62024 -1.2624,33.41865 1.19383,67.32787 -0.99175,100.88757 -3.24022,57.46653 -39.47164,110.68469 -89.82608,137.71523 -52.46656,29.182 -120.08249,26.38641 -170.90324,-5.07382 -52.95369,-31.87331 -85.09634,-94.21461 -81.67107,-155.7586 -0.51573,-27.46914 1.46049,-55.23252 -1.13085,-82.45312 -1.73727,-3.17606 -5.29366,-5.3337 -8.93555,-5.22461 z"
         id="path2"
         inkscape:connector-curvature="0" /></g></g><g
     id="g28"
     style="fill:#000000"
     transform="translate(0,6)"><g
       class="red"
       style="fill:#000000"
       id="g24"
       transform="matrix(1.1033991,0,0,1.0370351,-32.270111,-10.360103)"><path
         style="fill:#ff0000"
         d="m 240.23047,346.13867 c -11.52199,0.63758 -23.07843,-0.14747 -34.57031,0.33008 0.0435,6.59115 1.43073,13.13039 0.97656,19.73242 16.34624,-0.50578 33.00525,1.28521 49.03906,-0.97851 8.31606,-3.6941 6.21558,-18.96011 -3.50781,-18.52735 -3.93461,-0.49789 -7.8589,-0.59025 -11.9375,-0.55664 z"
         id="path8"
         inkscape:connector-curvature="0" /><path
         style="fill:#ff0000"
         d="m 278.84261,152.97281 c -6.241,1.23141 -12.75701,1.29651 -18.56641,4.21484 0.67246,13.87003 -1.58097,28.10909 1.18945,41.74805 4.21605,8.46283 19.87519,5.1769 18.41602,-5.04297 1.03927,-13.71224 -0.17957,-27.49677 0.31836,-41.20312 l -0.97892,0.20423 z"
         id="path10"
         inkscape:connector-curvature="0" /><path
         style="fill:#ff0000"
         d="m 355.74023,413.14453 c -6.62959,0.47571 -16.69341,-2.46652 -20.21679,5.32617 -3.49259,6.04393 0.7237,14.44977 8.04687,14.53711 9.65445,0.57557 19.35357,-0.50814 29.03709,0.0813 6.07739,0.0222 12.15668,0.0894 18.23244,-0.091 0.89409,-6.63782 -0.0771,-13.24648 -0.48632,-19.85352 -11.53776,-8.4e-4 -23.07553,-0.003 -34.61329,0 z"
         id="path12"
         inkscape:connector-curvature="0" /><path
         style="fill:#ff0000"
         d="m 327.09261,193.92007 c -0.94831,10.15837 15.99597,14.15453 19.00586,3.90235 2.60668,-8.60823 -0.017,-17.71125 0.84375,-26.53516 -0.38719,-4.71049 1.45565,-10.48671 -0.94141,-14.59375 -5.74717,-3.39664 -12.41418,-4.67923 -18.9082,-5.8125 0,14.34636 0,28.69271 0,43.03906 z"
         id="path14"
         inkscape:connector-curvature="0" /><path
         style="fill:#ff0000"
         d="m 355.85742,279.44336 c -6.67315,0.48527 -16.79648,-2.50775 -20.3418,5.35352 -3.453,6.00448 0.66645,14.42337 8,14.5 9.69978,0.61473 19.44702,-0.50062 29.17755,0.0742 5.95396,0.062 11.96168,0.26673 17.81269,-0.21291 -0.3543,-6.57458 0.58175,-13.14003 0.29492,-19.71484 -11.64779,-8.5e-4 -23.29557,-0.003 -34.94336,0 z"
         id="path16"
         inkscape:connector-curvature="0" /><path
         style="fill:#ff0000"
         d="m 241.11914,412.98633 c -11.49462,0.70224 -23.0304,-0.17956 -34.48633,0.32031 -1.57361,5.6266 -0.76363,13.4297 -1.375,19.75391 16.79498,-0.49719 33.89609,1.25035 50.37891,-0.96875 8.22858,-3.62502 6.44253,-18.68797 -3.28516,-18.55078 -3.72028,-0.50746 -7.48249,-0.59142 -11.23242,-0.55469 z"
         id="path18"
         inkscape:connector-curvature="0" /><path
         style="fill:#ff0000"
         d="m 356.07617,346.29297 c -6.74266,0.5406 -17.00741,-2.57606 -20.58008,5.375 -3.47596,6.03242 0.74525,14.38378 8.03125,14.48047 10.25351,0.53153 20.55309,-0.50256 30.83789,0.0937 4.89518,-0.31194 10.96397,0.60065 15.18555,-0.41407 0.31772,-6.57585 3.48313,-12.89088 2.44336,-19.53515 -11.97266,-8.2e-4 -23.94531,-0.003 -35.91797,0 z"
         id="path20"
         inkscape:connector-curvature="0" /><path
         style="fill:#ff0000"
         d="m 241.11914,279.2832 c -11.31817,0.61676 -22.64493,-0.10398 -33.95898,0.26172 0.44491,6.64369 -0.78749,13.23546 -1.53711,19.8086 16.66491,-0.49938 33.58267,1.2699 50.01562,-0.96485 8.21149,-3.65823 6.46969,-18.59374 -3.2832,-18.54883 -3.72164,-0.50744 -7.48504,-0.5947 -11.23633,-0.55664 z"
         id="path22"
         inkscape:connector-curvature="0" /></g><path
       style="fill:#1c2833;fill-opacity:1"
       d="m 296.57227,127.11133 c -22.60243,-0.7334 -45.21274,3.76933 -64.69047,15.59227 -31.71111,18.07384 -53.27735,52.93181 -55.17282,89.40578 -0.93026,24.44051 0.21066,49.16896 -0.22212,73.71874 0.17515,46.22839 -0.62267,92.49704 0.58058,138.7002 4.73062,49.44265 46.12487,92.71529 95.66215,98.5993 19.21093,1.95653 39.06174,2.21861 58.23525,-1.34246 44.25208,-9.39398 80.90317,-48.1836 86.62305,-93.11914 2.85214,-24.21628 0.35509,-48.66741 1.19447,-73.0293 -0.31378,-49.81116 0.8683,-99.67151 -0.67321,-149.45122 -5.09587,-48.9944 -46.22016,-91.80084 -95.32985,-97.67573 -8.49762,-1.15907 -17.46245,-1.49493 -26.20703,-1.39844 z m 20.52148,20.43945 c 11.21054,1.35552 22.11288,4.49212 31.97813,10.01222 29.84176,14.95288 49.79458,47.28796 49.8207,80.68505 0.3266,25.16022 -0.77647,50.29892 0.0586,75.29297 -0.28786,11.76373 -0.52697,23.59435 1.30469,35.21679 0.33578,6.5488 -3.44409,13.12146 -2.27344,19.43164 2.61449,6.63681 -0.23618,13.8352 0.87696,20.72461 -1.2e-4,13.7011 -0.34454,27.33265 0.23556,41.0096 0.15204,24.195 -8.5507,48.53778 -25.70576,65.86375 -17.54947,18.65667 -43.02759,29.37551 -68.67043,28.55439 -23.54734,1.38668 -48.53769,-1.72581 -68.10507,-15.95163 -23.5481,-16.26562 -39.94454,-43.93502 -39.90665,-72.85501 1.20697,-7.78226 1.11051,-15.96248 1.19336,-23.66016 -3.79592,-5.87208 -0.19853,-13.25506 -1.48242,-19.73047 0,-8.73763 0,-17.47526 0,-26.21289 4.47479,1.93661 1.43825,-4.16952 2.14492,-6.46071 -0.86028,-4.99451 -0.31183,-10.50947 -1.38906,-15.34398 -2.32939,-6.72481 0.29646,-13.90355 -0.75586,-20.83398 0.58486,-7.76842 -1.16403,-16.44701 0.86133,-23.65235 1.01757,-6.75017 2.56614,-13.90164 1.60742,-20.75195 -5.52343,-4.93717 -0.96087,-13.12932 -2.48676,-19.40999 -0.82874,-22.25627 -0.0711,-45.87965 11.8852,-65.4611 11.55999,-19.91154 30.58488,-36.91886 53.47851,-41.91797 5.14388,-1.11353 11.07529,-0.58005 15.13867,-4.11523 13.29738,-0.93311 26.82734,-0.0272 40.19141,-0.4336 z"
       id="path26"
       inkscape:connector-curvature="0" /></g></svg>