<?xml version="1.0" encoding="UTF-8" standalone="no"?>
<svg
   xmlns:dc="http://purl.org/dc/elements/1.1/"
   xmlns:cc="http://creativecommons.org/ns#"
   xmlns:rdf="http://www.w3.org/1999/02/22-rdf-syntax-ns#"
   xmlns:svg="http://www.w3.org/2000/svg"
   xmlns="http://www.w3.org/2000/svg"
   xmlns:sodipodi="http://sodipodi.sourceforge.net/DTD/sodipodi-0.dtd"
   xmlns:inkscape="http://www.inkscape.org/namespaces/inkscape"
   version="1.1"
   x="0px"
   y="0px"
   viewBox="0 0 512 512"
   style="enable-background:new 0 0 512 512;fill:white"
   xml:space="preserve"
   id="svg12"
   sodipodi:docname="pharmacien.svg"
   inkscape:version="0.91 r13725"
   inkscape:export-filename="C:\Users\Adrien\Desktop\Documentation\Visioconsult\serveur\nvp-visioconsult\tablet\src\assets\images\icons\pharmacien.png"
   inkscape:export-xdpi="90"
   inkscape:export-ydpi="90"><metadata
     id="metadata18"><rdf:RDF><cc:Work
         rdf:about=""><dc:format>image/svg+xml</dc:format><dc:type
           rdf:resource="http://purl.org/dc/dcmitype/StillImage" /><dc:title></dc:title></cc:Work></rdf:RDF></metadata><defs
     id="defs16" /><sodipodi:namedview
     pagecolor="#ffffff"
     bordercolor="#666666"
     borderopacity="1"
     objecttolerance="10"
     gridtolerance="10"
     guidetolerance="10"
     inkscape:pageopacity="0"
     inkscape:pageshadow="2"
     inkscape:window-width="1920"
     inkscape:window-height="1058"
     id="namedview14"
     showgrid="false"
     inkscape:zoom="0.5"
     inkscape:cx="-109"
     inkscape:cy="256"
     inkscape:window-x="1592"
     inkscape:window-y="-8"
     inkscape:window-maximized="1"
     inkscape:current-layer="g10" /><g
     id="g10"
     style="fill:#000000"><g
       id="g4"
       style="fill:#000000"><rect
         class="red"
         style="fill:#ff0000"
         x="89.154"
         y="429.959"
         width="77.203"
         height="30.001"
         id="rect2" /></g><g
       id="g8"
       style="fill:#ffffff"><path
         style="fill:#ffffff"
         d="M 254.04297,6.0136719 C 190.98532,5.8495604 130.34369,50.151409 111.5,110.61523 c -8.31427,24.73745 -8.2518,50.75751 -7.55078,76.44922 0,33.403 0,66.80599 0,100.20899 -38.112552,17.91498 -61.533569,60.71184 -57.830079,102.37109 0,38.78516 0,77.57031 0,116.35547 139.913409,0 279.826819,0 419.740239,0 -0.59105,-47.3466 1.39405,-94.82538 -1.14649,-142.08398 -4.9282,-32.76488 -26.77037,-62.22084 -56.64844,-76.64454 -0.68579,-49.58279 1.3899,-99.28156 -1.19919,-148.78512 C 399.53925,76.666491 349.9492,22.048753 288.89116,9.5909651 277.41093,7.0539087 265.76896,5.8523826 254.04297,6.0136719 Z m -0.50195,17.9765621 c 55.09033,-1.800551 109.25791,34.842117 127.75781,86.730466 -0.86921,5.31774 -7.88831,3.19064 -11.56501,4.51871 -42.37007,5.13666 -86.76672,-12.57687 -113.9096,-45.524566 -8.5445,11.649752 -20.54064,20.573488 -32.76287,28.128553 -26.84504,15.866453 -59.79935,22.396153 -90.38166,15.650743 -4.85155,-2.8615 0.54571,-8.06035 1.47461,-11.52344 20.80083,-45.685878 69.02764,-77.723996 119.38672,-77.980466 z m 3.7246,72.919922 c 34.63739,31.392614 84.88396,43.959684 129.99805,33.605464 12.08073,54.17254 -14.04547,114.19097 -61.88672,142.32618 -43.80975,26.7693 -103.22795,25.60319 -145.26741,-4.24317 -40.46502,-27.69086 -64.10011,-78.59908 -57.09019,-127.40495 0.4235,-3.58429 1.03509,-7.14228 1.63885,-10.69954 45.93236,10.50987 96.68668,-2.54507 131.28125,-34.703124 l 0.76424,0.644932 z M 390.05078,238.29492 c 0,13.98893 0,27.97787 0,41.9668 -12.41971,-3.02023 -25.24558,-3.48253 -37.96484,-3.75391 14.83111,-12.8853 27.27146,-28.26172 37.96484,-44.6914 0,2.1595 0,4.31901 0,6.47851 z m -264.48633,-0.99609 c 9.87994,14.40938 21.18433,27.6289 34.27344,39.2207 -12.66193,0.23678 -25.47243,0.7575 -37.88672,3.73633 0,-15.96289 0,-31.92578 0,-47.88867 1.20443,1.64388 2.40886,3.28776 3.61328,4.93164 z m 31.22852,57.44922 c 4.7212,-0.42178 7.96647,6.41357 3.53515,9.125 -9.09488,7.61045 -17.40496,16.17113 -26.16015,24.24218 9.39976,11.89843 18.79935,23.79698 28.19922,35.69532 -6.22412,8.67306 -12.44789,17.34637 -18.67188,26.01953 34.43468,23.94693 68.87111,47.89134 103.30469,71.83984 0,8.77539 0,17.55078 0,26.32617 -60.96875,0 -121.9375,0 -182.90625,0 0.708904,-40.7374 -1.309985,-81.5688 1.093221,-122.24622 6.039439,-40.10909 44.517299,-72.60611 85.248579,-70.73425 2.12581,-0.0112 4.25015,-0.0206 6.35742,-0.26757 z m 206.57617,0.0937 c 39.35081,-0.27188 76.99162,30.19563 82.99913,69.44586 3.64181,22.63385 0.40938,45.61878 1.51064,68.40375 0,18.43554 0,36.87109 0,55.30664 -60.95899,0 -121.91797,0 -182.87696,0 0,-8.77539 0,-17.55078 0,-26.32617 34.43358,-23.94851 68.87002,-47.89292 103.30469,-71.83985 -6.22461,-8.67317 -12.44919,-17.34638 -18.67383,-26.01953 9.4045,-11.90479 18.80856,-23.80992 28.21289,-35.71484 -11.7308,-11.04717 -23.45854,-22.0976 -35.1914,-33.14258 6.90555,0.10951 13.81065,0.0547 20.71484,-0.11328 z m -174.01758,9.80664 c 16.03525,42.81897 32.0696,85.63829 48.10547,128.45703 C 214.62684,417.2338 191.79814,401.36 168.9707,385.48438 c 5.30826,-7.39515 10.61442,-14.79179 15.92188,-22.1875 -8.79448,-11.13642 -17.5925,-22.27004 -26.38477,-33.40821 9.93018,-9.3517 19.85965,-18.70413 29.78907,-28.05664 0.35156,0.9388 0.70312,1.87761 1.05468,2.81641 z m 136.54102,-0.75391 c 9.19956,8.66504 18.39926,17.32993 27.59961,25.99414 -8.79607,11.13411 -17.59388,22.26682 -26.39063,33.40039 5.3094,7.39833 10.61757,14.79754 15.92774,22.19532 -22.82741,15.87566 -45.65617,31.74938 -68.48633,47.62109 16.38743,-43.75755 32.77334,-87.51566 49.16015,-131.27344 0.72982,0.6875 1.45964,1.375 2.18946,2.0625 z m -23.10352,2.44922 C 287.1926,347.9954 271.59652,389.6472 256,431.29883 239.9517,388.4421 223.90415,345.5851 207.85547,302.72852 c 31.15648,9.68529 65.20297,9.81386 96.32226,-0.0937 -0.46289,1.23632 -0.92578,2.47265 -1.38867,3.70898 z"
         id="path6"
         inkscape:connector-curvature="0" /></g></g></svg>