<?xml version="1.0" encoding="UTF-8" standalone="no"?>
<!-- Generator: Adobe Illustrator 15.0.0, SVG Export Plug-In . SVG Version: 6.00 Build 0)  -->

<svg
   xmlns:dc="http://purl.org/dc/elements/1.1/"
   xmlns:cc="http://creativecommons.org/ns#"
   xmlns:rdf="http://www.w3.org/1999/02/22-rdf-syntax-ns#"
   xmlns:svg="http://www.w3.org/2000/svg"
   xmlns="http://www.w3.org/2000/svg"
   xmlns:sodipodi="http://sodipodi.sourceforge.net/DTD/sodipodi-0.dtd"
   xmlns:inkscape="http://www.inkscape.org/namespaces/inkscape"
   version="1.1"
   id="Capa_1"
   x="0px"
   y="0px"
   style="fill:white"
   viewBox="0.138 124.248 595.281 584"
   enable-background="new 0.138 124.248 595.281 584"
   xml:space="preserve"
   sodipodi:docname="planning-2Selected.svg"
   inkscape:version="0.91 r13725"
   inkscape:export-filename="C:\Users\Adrien\Desktop\Documentation\Visioconsult\serveur\nvp-visioconsult\tablet\src\assets\images\icons\planning-2Selected.png"
   inkscape:export-xdpi="90"
   inkscape:export-ydpi="90"><metadata
     id="metadata13"><rdf:RDF><cc:Work
         rdf:about=""><dc:format>image/svg+xml</dc:format><dc:type
           rdf:resource="http://purl.org/dc/dcmitype/StillImage" /><dc:title></dc:title></cc:Work></rdf:RDF></metadata><defs
     id="defs11" /><sodipodi:namedview
     pagecolor="#ffffff"
     bordercolor="#666666"
     borderopacity="1"
     objecttolerance="10"
     gridtolerance="10"
     guidetolerance="10"
     inkscape:pageopacity="0"
     inkscape:pageshadow="2"
     inkscape:window-width="1600"
     inkscape:window-height="838"
     id="namedview9"
     showgrid="false"
     inkscape:zoom="0.5"
     inkscape:cx="-67.42847"
     inkscape:cy="291.94235"
     inkscape:window-x="-8"
     inkscape:window-y="-8"
     inkscape:window-maximized="1"
     inkscape:current-layer="Capa_1" /><path
     style="fill:#1c2833;fill-opacity:1"
     d="m 121.14844,143.70703 c -8.55519,-0.0246 -10.57205,10.47065 -9.06641,17.19141 0,17.80989 0,35.61979 0,53.42968 -33.559236,0.5854 -67.367115,-1.07795 -100.757811,0.85938 -8.4103067,5.01071 -4.4650229,16.41569 -5.1809932,24.34375 C 6.35138,388.12844 5.686413,536.76577 6.5,685.33789 c 3.2762075,8.93232 14.447123,6.43513 21.822265,6.44341 184.886655,-0.22455 369.815415,0.47058 554.675785,-0.36919 9.26203,-3.53954 6.18078,-15.1722 6.41716,-22.81445 -0.21915,-149.27314 0.47843,-298.59029 -0.37224,-447.83594 -3.5427,-9.26369 -15.18969,-6.19877 -22.81055,-6.41211 -27.5638,0 -55.1276,0 -82.6914,0 -0.91248,-22.09552 1.5202,-44.50241 -1.26172,-66.29102 -4.15967,-7.27442 -17.91568,-4.47229 -16.91016,4.75391 -0.60295,14.05888 0.40586,28.13195 -0.16406,42.25 0,6.42904 0,12.85807 0,19.28711 -111.59701,0 -223.19401,0 -334.79102,0 -0.87407,-21.94509 1.43103,-44.23792 -1.17187,-65.89258 -1.59436,-2.85952 -4.79038,-4.838 -8.09375,-4.75 z m -94.74219,88.91016 c 28.536458,0 57.072917,0 85.60937,0 0.91409,22.09903 -1.52169,44.50233 1.26172,66.30273 4.14327,7.29443 17.89587,4.47998 16.9043,-4.72461 0.61358,-14.07214 -0.40886,-28.16107 0.16797,-42.28906 0,-6.42969 0,-12.85937 0,-19.28906 111.59635,0 223.19271,0 334.78906,0 0.92769,22.11392 -1.54865,44.54523 1.28321,66.34375 4.18388,7.25288 17.85953,4.42023 16.88476,-4.76563 0.61358,-14.07214 -0.40886,-28.16107 0.16797,-42.28906 0,-6.42969 0,-12.85937 0,-19.28906 29.22461,0 58.44922,0 87.67383,0 0,42.07552 0,84.15104 0,126.22656 -182.2474,0 -364.49479,0 -546.74219,0 0,-42.07552 0,-84.15104 0,-126.22656 h 1 z m 339.00391,144.49219 c 30.9108,0 61.82161,-10e-6 92.73242,0 0,28.16145 0,56.32291 0,84.48437 -31.57748,0 -63.15495,0 -94.73242,0 0,-28.16146 0,-56.32292 0,-84.48437 h 1 z m 113,0 c 30.91276,0 61.82552,-10e-6 92.73828,0 0,28.16145 0,56.32291 0,84.48437 -31.57943,0 -63.15886,0 -94.73828,0 0,-28.16146 0,-56.32292 0,-84.48437 h 1 z m -452.00391,0.002 c 68.579427,0 137.15885,0 205.73828,0 0,98.80143 0,197.60286 0,296.40429 -69.24609,10e-6 -138.492186,10e-6 -207.73828,0 0,-98.80143 0,-197.60286 0,-296.40429 h 1 z m 226.00586,0 c 30.91016,0 61.82031,0 92.73047,0 0,28.16146 0,56.32291 0,84.48437 -31.57682,0 -63.15365,0 -94.73047,0 0,-28.16146 0,-56.32291 0,-84.48437 h 1 z m 0,102.75 c 30.91016,0 61.82031,0 92.73047,0 0,28.15885 0,56.31771 0,84.47656 -31.57682,0 -63.15365,0 -94.73047,0 0,-28.15885 0,-56.31771 0,-84.47656 h 1 z m 112.99805,0 c 30.9108,0 61.82161,0 92.73242,0 0,28.15885 0,56.31771 0,84.47656 -31.57748,0 -63.15495,0 -94.73242,0 0,-28.15885 0,-56.31771 0,-84.47656 h 1 z m 113,0 c 30.91276,0 61.82552,0 92.73828,0 0,28.15885 0,56.31771 0,84.47656 -31.57943,0 -63.15886,0 -94.73828,0 0,-28.15885 0,-56.31771 0,-84.47656 h 1 z M 252.41211,582.60547 c 30.91016,0 61.82031,0 92.73047,0 0,30.30338 0,60.60677 0,90.91015 -31.57682,0 -63.15365,10e-6 -94.73047,0 0,-30.30338 0,-60.60677 0,-90.91015 h 1 z m 112.99805,0 c 30.9108,0 61.82161,0 92.73242,0 0,30.30338 0,60.60677 0,90.91015 -31.57748,0 -63.15495,10e-6 -94.73242,0 0,-30.30338 0,-60.60677 0,-90.91015 h 1 z m 113,0 c 30.91276,0 61.82552,0 92.73828,0 0,30.30338 0,60.60677 0,90.91015 -31.57943,0 -63.15886,10e-6 -94.73828,0 0,-30.30338 0,-60.60677 0,-90.91015 h 1 z"
     id="path2"
     inkscape:connector-curvature="0" /><rect
     class="green"
     style="fill:#ff0000"
     x="256.413"
     y="383.112"
     fill="#00A651"
     stroke="#000000"
     stroke-miterlimit="10"
     width="82.73"
     height="72.484"
     id="rect4" /><rect
     class="green"
     style="fill:#ff0000"
     x="369.411"
     y="383.109"
     fill="#00A651"
     stroke="#000000"
     stroke-miterlimit="10"
     width="82.729"
     height="72.485"
     id="rect6" /></svg>