<?xml version="1.0" encoding="UTF-8" standalone="no"?>
<!-- Generator: Adobe Illustrator 15.0.0, SVG Export Plug-In . SVG Version: 6.00 Build 0)  -->

<svg
   xmlns:dc="http://purl.org/dc/elements/1.1/"
   xmlns:cc="http://creativecommons.org/ns#"
   xmlns:rdf="http://www.w3.org/1999/02/22-rdf-syntax-ns#"
   xmlns:svg="http://www.w3.org/2000/svg"
   xmlns="http://www.w3.org/2000/svg"
   xmlns:sodipodi="http://sodipodi.sourceforge.net/DTD/sodipodi-0.dtd"
   xmlns:inkscape="http://www.inkscape.org/namespaces/inkscape"
   version="1.1"
   style="fill:white"
   x="0px"
   y="0px"
   viewBox="0 123.307 595.281 595.275"
   xml:space="preserve"
   id="svg8"
   sodipodi:docname="security.svg"
   inkscape:version="0.91 r13725"
   inkscape:export-filename="C:\Users\Adrien\Desktop\Documentation\Visioconsult\serveur\nvp-visioconsult\tablet\src\assets\images\icons\security.png"
   inkscape:export-xdpi="90"
   inkscape:export-ydpi="90"><metadata
     id="metadata14"><rdf:RDF><cc:Work
         rdf:about=""><dc:format>image/svg+xml</dc:format><dc:type
           rdf:resource="http://purl.org/dc/dcmitype/StillImage" /><dc:title /></cc:Work></rdf:RDF></metadata><defs
     id="defs12" /><sodipodi:namedview
     pagecolor="#ffffff"
     bordercolor="#666666"
     borderopacity="1"
     objecttolerance="10"
     gridtolerance="10"
     guidetolerance="10"
     inkscape:pageopacity="0"
     inkscape:pageshadow="2"
     inkscape:window-width="1920"
     inkscape:window-height="1058"
     id="namedview10"
     showgrid="false"
     inkscape:zoom="0.6752173"
     inkscape:cx="-18.986914"
     inkscape:cy="-40.994949"
     inkscape:window-x="1592"
     inkscape:window-y="-8"
     inkscape:window-maximized="1"
     inkscape:current-layer="g6" /><g
     id="g6"><path
       style="fill:#ffffff"
       d="m 279.14648,137.78516 c -92.55493,86.22485 -185.838479,171.7348 -277.7792925,258.5625 -5.7256265,9.01206 5.1896816,22.63611 15.2187505,17.21093 8.656541,-4.15776 13.485007,-13.16482 21.441406,-18.33789 3.523571,-2.54406 6.157507,-9.13584 11.259765,-8.09961 3.789472,3.08817 0.443128,9.35003 1.566407,13.4961 V 720.58203 H 544.41797 V 383.08008 c 12.2886,9.96623 22.14973,23.10809 35.77734,31.26953 9.96838,2.86004 20.15235,-10.28181 12.94531,-18.76563 -5.97158,-8.00271 -15.00585,-13.00628 -21.49018,-20.57602 L 297.63672,120.57422 c -6.16341,5.73698 -12.32682,11.47396 -18.49024,17.21094 z m 19.85157,17.34375 c 73.67469,68.41253 147.34769,136.82688 221.02343,205.23828 v 335.81836 c -51.29562,0.13393 -102.6192,-0.3645 -153.89555,0.43637 -11.37188,-1.69215 -23.14156,0.39075 -34.79777,-0.40866 -31.90005,0.11586 -63.96146,-0.60156 -95.7598,0.56604 0,0 -28.45819,0.48767 -35.31732,-1.59571 -6.89264,2.9587 -1.16864,-0.26483 -8.3526,1.00196 H 75.251953 V 360.36719 C 149.38154,291.53464 223.50781,222.69852 297.63672,153.86523 l 0.7329,0.68033 z"
       id="path2"
       inkscape:connector-curvature="0"
       sodipodi:nodetypes="ccccccccccccccccccccccccccc" /><path
       class="red"
       style="fill:red"
       d="M229.043,375.007v48.015c-18.252,2.706-32.317,18.432-32.317,37.426v123.53c0,20.887,16.995,37.882,37.881,37.882h126.066  c20.887,0,37.881-16.995,37.881-37.882v-123.53c0-20.887-16.994-37.879-37.881-37.879h-95.931V375.01  c0-18.141,14.759-32.896,32.896-32.896c18.138,0,32.896,14.759,32.896,32.896v19.858c0,9.858,7.992,17.85,17.85,17.85  c9.859,0,17.85-7.991,17.85-17.85V375.01c0-37.823-30.771-68.596-68.595-68.596C259.816,306.414,229.043,337.183,229.043,375.007  L229.043,375.007z M362.855,460.447v123.53c0,1.204-0.979,2.183-2.182,2.183H234.607c-1.204,0-2.183-0.979-2.183-2.183v-123.53  c0-1.204,0.979-2.181,2.183-2.181h126.066C361.878,458.264,362.855,459.243,362.855,460.447z"
       id="path4" /></g></svg>