<?xml version="1.0" encoding="UTF-8" standalone="no"?>
<!-- Generator: Adobe Illustrator 19.0.0, SVG Export Plug-In . SVG Version: 6.00 Build 0)  -->

<svg
   xmlns:dc="http://purl.org/dc/elements/1.1/"
   xmlns:cc="http://creativecommons.org/ns#"
   xmlns:rdf="http://www.w3.org/1999/02/22-rdf-syntax-ns#"
   xmlns:svg="http://www.w3.org/2000/svg"
   xmlns="http://www.w3.org/2000/svg"
   xmlns:sodipodi="http://sodipodi.sourceforge.net/DTD/sodipodi-0.dtd"
   xmlns:inkscape="http://www.inkscape.org/namespaces/inkscape"
   version="1.1"
   id="Layer_1"
   x="0px"
   y="0px"
   viewBox="0 0 511.999 511.999"
   style="enable-background:new 0 0 511.999 511.999;fill:white"
   xml:space="preserve"
   sodipodi:docname="shopping-cart.svg"
   inkscape:version="0.91 r13725"><metadata
     id="metadata67"><rdf:RDF><cc:Work
         rdf:about=""><dc:format>image/svg+xml</dc:format><dc:type
           rdf:resource="http://purl.org/dc/dcmitype/StillImage" /><dc:title></dc:title></cc:Work></rdf:RDF></metadata><defs
     id="defs65" /><sodipodi:namedview
     pagecolor="#ffffff"
     bordercolor="#666666"
     borderopacity="1"
     objecttolerance="10"
     gridtolerance="10"
     guidetolerance="10"
     inkscape:pageopacity="0"
     inkscape:pageshadow="2"
     inkscape:window-width="1600"
     inkscape:window-height="838"
     id="namedview63"
     showgrid="false"
     inkscape:zoom="0.5"
     inkscape:cx="255.9995"
     inkscape:cy="255.9995"
     inkscape:window-x="-8"
     inkscape:window-y="-8"
     inkscape:window-maximized="1"
     inkscape:current-layer="Layer_1" /><g
     id="g6"
     style="fill:#ffffff"><g
       id="g4"
       style="fill:#ffffff"><path
         style="fill:#ffffff"
         d="m 213.60938,406.8418 c -23.75969,-0.13213 -43.82387,23.86675 -39.56055,47.23828 3.04942,22.2215 26.51853,39.09342 48.57812,34.11523 22.06589,-4.09651 37.76974,-27.79108 32.07032,-49.72461 -4.31926,-18.35016 -22.03053,-32.54731 -41.08789,-31.6289 z m 1.75195,17.11132 c 16.46631,-0.28318 28.7117,19.6248 20.94336,34.20313 -6.3777,14.65596 -28.42429,18.34245 -39.00977,6.17969 -11.46506,-11.30597 -6.83988,-33.54108 8.65235,-38.71289 2.98634,-1.19378 6.20546,-1.7075 9.41406,-1.66993 z"
         id="path2"
         inkscape:connector-curvature="0" /></g></g><g
     id="g12"
     style="fill:#ffffff"><g
       id="g10"
       style="fill:#ffffff"><path
         style="fill:#ffffff"
         d="m 371.55859,406.8418 c -24.03559,-0.13843 -44.24561,24.41405 -39.45312,48.01367 3.51335,21.77216 26.47666,38.14269 48.23047,33.39258 21.45898,-3.84818 37.30947,-26.53737 32.69336,-48.01758 -3.59279,-19.07332 -21.85729,-34.43087 -41.47071,-33.38867 z m 1.7461,17.11132 c 16.42647,-0.27907 28.66851,19.53014 20.99219,34.10938 -6.3309,14.72334 -28.45279,18.47001 -39.0625,6.26953 -11.45599,-11.30902 -6.83263,-33.53275 8.65429,-38.70898 2.9878,-1.19161 6.20645,-1.70804 9.41602,-1.66993 z"
         id="path8"
         inkscape:connector-curvature="0" /></g></g><g
     id="g18"
     style="fill:#000000"><g
       class="green"
       style="fill:#000000"
       id="g16"><path
         style="fill:#ff0000"
         d="m 372.12305,169.61328 c -56.94801,0.54055 -113.95108,-0.27623 -170.88282,0.34961 -8.28739,1.88094 -8.20385,16.52631 1.24024,16.63281 10.68175,1.16787 21.49271,-0.47122 32.22655,0.28618 50.61082,-0.21626 101.28657,0.53139 151.85743,-0.3975 8.21386,-2.27792 7.01741,-17.17384 -2.30859,-16.37696 -3.99938,-0.44607 -8.02437,-0.52475 -12.13281,-0.49414 z"
         id="path14"
         inkscape:connector-curvature="0" /></g></g><g
     id="g24"
     style="fill:#000000"><g
       class="green"
       style="fill:#000000"
       id="g22"><path
         style="fill:#ff0000"
         d="m 362.30859,234.89453 c -50.41109,0.55165 -100.87849,-0.29438 -151.27148,0.35547 -7.89939,1.81579 -8.37378,15.70827 0.50586,16.4668 10.57173,1.50981 21.32788,-0.37346 31.97655,0.44596 44.5213,-0.28714 89.15649,0.68153 133.60743,-0.51432 7.91999,-2.62299 6.39449,-17.08854 -2.65625,-16.25977 -4.01002,-0.44652 -8.04347,-0.52876 -12.16211,-0.49414 z"
         id="path20"
         inkscape:connector-curvature="0" /></g></g><g
     id="g30"
     style="fill:#ffffff"><g
       id="g28"
       style="fill:#ffffff"><path
         style="fill:#ffffff"
         d="M 12.181641,23.123047 C 3.2037463,22.793153 0.81543054,38.113058 10.181904,39.83119 28.724234,48.327478 47.597858,56.071026 66.244141,64.332031 87.216929,164.79429 107.13085,265.52204 128.77539,365.81055 c 4.48727,11.11076 17.67816,14.20786 28.46094,12.68513 98.33156,-0.26711 196.7296,0.55307 295.01953,-0.42146 8.226,-2.30305 6.8762,-17.20993 -2.33203,-16.36328 -17.35963,-1.05757 -35.11985,0.18652 -52.63281,-0.35352 -84.11849,0 -168.23698,0 -252.35547,0 -3.01316,-14.63826 -6.02999,-29.27576 -9.04297,-43.91406 106.70232,-0.26768 213.44734,0.53231 320.12304,-0.41211 11.77477,-2.1418 17.5572,-14.43545 18.20253,-25.322 11.13548,-55.54365 23.49475,-110.9103 33.82091,-166.56277 0.0238,-12.65578 -12.88802,-22.82641 -25.21484,-20.66015 -130.25716,0 -260.51432,0 -390.771486,0 C 87.864259,88.449511 86.88645,71.445225 80.740234,56.019531 73.45554,45.386983 59.674137,44.043356 49.058338,38.230836 36.72552,33.392808 24.985842,26.454474 12.181641,23.123047 Z m 85.822265,98.503903 c 131.251304,6.3e-4 262.502604,0.001 393.753904,0.002 -12.26643,59.55779 -24.5393,119.11426 -36.80664,178.67187 -107.53125,0 -215.0625,0 -322.59375,0 -12.26735,-59.55826 -24.54019,-119.11538 -36.806639,-178.67383 0.817709,0 1.635417,0 2.453125,0 z"
         id="path26"
         inkscape:connector-curvature="0" /></g></g><g
     id="g32"
     style="fill:#000000" /><g
     id="g34"
     style="fill:#000000" /><g
     id="g36"
     style="fill:#000000" /><g
     id="g38"
     style="fill:#000000" /><g
     id="g40"
     style="fill:#000000" /><g
     id="g42"
     style="fill:#000000" /><g
     id="g44"
     style="fill:#000000" /><g
     id="g46"
     style="fill:#000000" /><g
     id="g48"
     style="fill:#000000" /><g
     id="g50"
     style="fill:#000000" /><g
     id="g52"
     style="fill:#000000" /><g
     id="g54"
     style="fill:#000000" /><g
     id="g56"
     style="fill:#000000" /><g
     id="g58"
     style="fill:#000000" /><g
     id="g60"
     style="fill:#000000" /></svg>