<?xml version="1.0" encoding="UTF-8" standalone="no"?>
<svg
   xmlns:dc="http://purl.org/dc/elements/1.1/"
   xmlns:cc="http://creativecommons.org/ns#"
   xmlns:rdf="http://www.w3.org/1999/02/22-rdf-syntax-ns#"
   xmlns:svg="http://www.w3.org/2000/svg"
   xmlns="http://www.w3.org/2000/svg"
   xmlns:sodipodi="http://sodipodi.sourceforge.net/DTD/sodipodi-0.dtd"
   xmlns:inkscape="http://www.inkscape.org/namespaces/inkscape"
   version="1.1"
   viewBox="0 0 512 512"
   style="fill:white"
   enable-background="new 0 0 512 512"
   id="svg20"
   sodipodi:docname="sirenSelected.svg"
   inkscape:version="0.91 r13725"
   inkscape:export-filename="C:\Users\Adrien\Desktop\Documentation\Visioconsult\serveur\nvp-visioconsult\tablet\src\assets\images\icons\sirenSelected.png"
   inkscape:export-xdpi="90"
   inkscape:export-ydpi="90">
  <metadata
     id="metadata26">
    <rdf:RDF>
      <cc:Work
         rdf:about="">
        <dc:format>image/svg+xml</dc:format>
        <dc:type
           rdf:resource="http://purl.org/dc/dcmitype/StillImage" />
        <dc:title></dc:title>
      </cc:Work>
    </rdf:RDF>
  </metadata>
  <defs
     id="defs24" />
  <sodipodi:namedview
     pagecolor="#ffffff"
     bordercolor="#666666"
     borderopacity="1"
     objecttolerance="10"
     gridtolerance="10"
     guidetolerance="10"
     inkscape:pageopacity="0"
     inkscape:pageshadow="2"
     inkscape:window-width="1600"
     inkscape:window-height="838"
     id="namedview22"
     showgrid="false"
     showguides="false"
     inkscape:zoom="0.4609375"
     inkscape:cx="-139.9322"
     inkscape:cy="256"
     inkscape:window-x="-8"
     inkscape:window-y="-8"
     inkscape:window-maximized="1"
     inkscape:current-layer="g18" />
  <g
     id="g18"
     style="fill:#000000">
    <path
       style="fill:#1c2833;fill-opacity:1"
       d="m 254.42188,118.00977 c -53.72508,-0.26849 -104.39644,39.84893 -116.72852,92.0332 -6.76887,28.44418 -2.52589,57.96458 -3.69336,87.01758 0,30.92317 0,61.84635 0,92.76953 -14.27752,1.40664 -29.06537,-1.92787 -43.011719,1.59765 -7.914836,6.48452 -7.208476,17.84384 -11.465865,26.49124 -8.382332,26.39943 -18.562983,52.35872 -25.545854,79.12205 1.08192,8.40291 11.11528,10.52562 18.082031,8.9575 126.293077,-0.22954 252.621887,0.47658 378.892577,-0.37157 8.18276,-2.58684 8.27551,-13.29545 4.29266,-19.45631 -10.75474,-30.85167 -19.71114,-62.4703 -31.7575,-92.78392 -8.27166,-6.90431 -19.60554,-1.71501 -29.27149,-3.63281 -5.21439,-0.18507 -13.27924,2.79098 -16.21289,-3.30079 -0.5683,-54.1938 1.1947,-108.4498 -0.99576,-162.60157 -6.25694,-51.4337 -49.07622,-96.37482 -100.6976,-104.15819 -7.28016,-1.22624 -14.5689,-1.77671 -21.88671,-1.68359 z m 1.52734,19.98242 c 49.88966,-1.06299 96.98635,40.17248 101.21236,90.15206 2.35422,24.23067 -0.0895,48.62693 0.83842,72.85575 0,29.66667 0,59.33333 0,89 -68.00586,0 -136.01172,0 -204.01758,0 0.56936,-54.53933 -1.06394,-109.12635 0.86133,-163.63477 5.63313,-46.92638 47.90851,-86.59746 95.33984,-88.19726 1.92017,-0.10641 3.84259,-0.16147 5.76563,-0.17578 z M 104.64844,410 c 101.38151,0 202.76302,0 304.14453,0 8.44499,25.33366 16.89007,50.66729 25.33789,76 -118.75391,0 -237.50781,0 -356.261719,0 8.447822,-25.33271 16.892892,-50.66635 25.337889,-76 h 1 z"
       id="path2"
       inkscape:connector-curvature="0" />
    <g
       class="red"
       style="fill:#000000"
       id="g16">
      <path
         style="fill:#ff0000"
         d="m 255.83203,5.9980469 c -8.75366,-0.088143 -11.64933,10.8871961 -9.76269,17.9566301 0.69928,15.179124 -1.89754,30.904035 1.46386,45.639073 4.40209,7.187078 18.31414,4.784561 18.06446,-4.318359 1.22435,-15.316271 -0.41104,-30.717025 0.56682,-46.050738 0.36804,-6.424671 -3.09617,-13.4492561 -10.33245,-13.2266061 z"
         id="path4"
         inkscape:connector-curvature="0" />
      <path
         style="fill:#ff0000"
         d="m 467.89301,229.83789 c -14.19193,1.18309 -28.71204,-1.28633 -42.71484,1.13086 -7.73912,3.86053 -6.77567,18.15768 2.90625,18.60742 12.34185,1.47806 24.83169,-0.69205 37.23437,0.5293 6.75151,-0.25467 15.77905,1.53954 20.7207,-4.19727 4.19978,-6.08678 0.0594,-16.49109 -8.0332,-15.6289 -3.35598,-0.38723 -6.7379,-0.46483 -10.11328,-0.44141 z"
         id="path6"
         inkscape:connector-curvature="0" />
      <path
         style="fill:#ff0000"
         d="m 70.0625,229.83789 c -14.19193,1.18309 -28.712036,-1.28633 -42.714844,1.13086 -7.739114,3.86053 -6.775669,18.15768 2.90625,18.60742 12.341851,1.47806 24.831694,-0.69205 37.234375,0.5293 6.751511,-0.25467 15.779046,1.53954 20.720703,-4.19727 4.199773,-6.08678 0.0594,-16.49109 -8.033203,-15.6289 -3.355979,-0.38723 -6.737906,-0.46483 -10.113281,-0.44141 z"
         id="path8"
         inkscape:connector-curvature="0" />
      <path
         style="fill:#ff0000"
         d="m 414.09375,71.613281 c -10.7263,2.674545 -15.70759,13.695198 -23.80664,20.259766 -6.88315,7.538232 -17.28723,13.410923 -19.98828,23.773433 0.0716,8.36504 12.2424,13.88343 17.5332,6.35547 11.94845,-10.97173 22.76992,-23.137959 34.63086,-34.240231 4.59938,-6.683852 0.0301,-16.635603 -8.36914,-16.148438 z"
         id="path10"
         inkscape:connector-curvature="0" />
      <path
         style="fill:#ff0000"
         d="m 96.501953,71.630859 c -9.270077,0.477007 -12.138868,14.952174 -3.821249,19.117968 12.259726,11.374633 22.715946,25.024553 36.411096,34.647653 8.31527,2.36422 16.95748,-9.32513 10.10351,-15.88671 -9.81524,-11.436393 -21.79279,-20.818088 -31.54492,-32.345708 -2.99454,-2.942467 -6.75341,-5.649846 -11.148437,-5.533203 z"
         id="path12"
         inkscape:connector-curvature="0" />
      <path
         style="fill:#ff0000;stroke-width:1.08443069"
         d="m 243.61797,162.93639 c -37.25343,1.15634 -69.03873,39.01992 -64.4877,77.28384 -0.34366,44.76208 -0.005,89.52558 -0.13195,134.28824 22.77415,0 45.5483,0 68.32245,0 -0.0792,-70.48096 0.15849,-141.29489 -0.11884,-211.56777 -1.19485,-0.0366 -2.38904,-0.0361 -3.58396,-0.004 z"
         id="path14"
         inkscape:connector-curvature="0" />
    </g>
  </g>
</svg>
