<?xml version="1.0" encoding="UTF-8" standalone="no"?>
<!-- Generator: Adobe Illustrator 19.0.0, SVG Export Plug-In . SVG Version: 6.00 Build 0)  -->

<svg
   xmlns:dc="http://purl.org/dc/elements/1.1/"
   xmlns:cc="http://creativecommons.org/ns#"
   xmlns:rdf="http://www.w3.org/1999/02/22-rdf-syntax-ns#"
   xmlns:svg="http://www.w3.org/2000/svg"
   xmlns="http://www.w3.org/2000/svg"
   xmlns:sodipodi="http://sodipodi.sourceforge.net/DTD/sodipodi-0.dtd"
   xmlns:inkscape="http://www.inkscape.org/namespaces/inkscape"
   version="1.1"
   id="Layer_1"
   x="0px"
   y="0px"
   viewBox="0 0 512 512"
   style="enable-background:new 0 0 512 512;fill:white"
   xml:space="preserve"
   inkscape:version="0.91 r13725"
   sodipodi:docname="speaker.svg"
   inkscape:export-filename="C:\Users\Adrien\Desktop\Documentation\Visioconsult\serveur\nvp-visioconsult\tablet\src\assets\images\icons\speaker.png"
   inkscape:export-xdpi="90"
   inkscape:export-ydpi="90"><metadata
     id="metadata55"><rdf:RDF><cc:Work
         rdf:about=""><dc:format>image/svg+xml</dc:format><dc:type
           rdf:resource="http://purl.org/dc/dcmitype/StillImage" /><dc:title></dc:title></cc:Work></rdf:RDF></metadata><defs
     id="defs53" /><sodipodi:namedview
     pagecolor="#ffffff"
     bordercolor="#666666"
     borderopacity="1"
     objecttolerance="10"
     gridtolerance="10"
     guidetolerance="10"
     inkscape:pageopacity="0"
     inkscape:pageshadow="2"
     inkscape:window-width="1600"
     inkscape:window-height="838"
     id="namedview51"
     showgrid="false"
     inkscape:zoom="0.5"
     inkscape:cx="-143.10204"
     inkscape:cy="254.43555"
     inkscape:window-x="-8"
     inkscape:window-y="-8"
     inkscape:window-maximized="1"
     inkscape:current-layer="Layer_1" /><g
     id="g3"
     style="fill:#ffffff"><g
       id="g5"
       style="fill:#ffffff"><path
         style="fill:#ffffff"
         d="m 287.42578,38.648438 c -12.06018,1.620082 -25.28551,-2.464733 -36.6543,3.064453 -33.0563,29.566519 -65.6714,59.872049 -98.72836,89.508089 -13.79888,12.18399 -27.33891,24.90135 -41.5275,36.49191 -12.310569,2.66694 -25.135365,0.28686 -37.767573,1.38477 -15.580314,0.20615 -32.934292,-2.24236 -46.888672,6.30664 -13.661436,8.9685 -19.7421415,26.38816 -17.5618493,42.20698 0.4257312,32.41826 -1.9798788,64.95661 0.5305993,97.30083 4.723425,19.04691 25.036904,31.862 44.253697,29.43842 18.930688,0.45127 37.902344,-1.12032 56.724818,0.96783 20.31654,15.68017 38.07276,34.31404 57.71458,50.85805 28.5926,25.45555 56.61145,51.84784 85.95925,76.27867 11.90991,2.27459 23.9891,0.0669 35.97474,0.85964 17.94428,-0.72566 35.41265,-13.4311 38.8514,-31.53332 2.99738,-15.28362 -0.0776,-30.84727 0.87762,-46.13275 -0.93756,-107.35772 -0.1232,-214.7359 -0.11392,-322.084197 -2.3181,-20.014284 -21.77889,-35.582811 -41.64453,-34.916015 z m -7.2793,17.898437 c 10.45665,-0.478893 23.37961,1.148839 28.87305,11.507813 6.88496,12.524779 2.33965,27.166391 3.73328,40.693292 0.70908,109.55356 1.58169,219.1525 -1.14539,328.67585 -2.76948,13.0348 -17.82178,20.21809 -30.22656,17.58398 -5.68023,0.59238 -15.81982,0.43993 -15.11513,-7.68924 -1.19933,-107.86744 -0.69944,-215.74686 -0.71264,-323.6193 0.32079,-21.14701 -0.24247,-42.518718 0.86293,-63.527395 2.81905,-4.833113 9.11151,-3.340166 13.73046,-3.625 z M 242.00781,74.84375 c 8.33013,1.322201 7.34911,11.563322 6.86904,17.796853 0.33184,113.316277 1.36447,226.707037 -1.37685,339.972677 -2.92194,6.06761 -11.76883,3.14991 -14.47372,-1.69785 -36.75064,-32.75772 -74.32058,-64.6008 -110.57316,-97.91934 -3.53336,-13.04086 -0.5091,-26.61632 -1.79113,-39.91203 -0.0195,-37.40894 -1.25581,-74.9739 0.0704,-112.28914 5.98303,-10.32534 17.34767,-15.65925 25.26415,-24.285 31.51921,-27.1669 62.11559,-55.85102 94.64601,-81.535311 0.44779,-0.09515 0.90744,-0.139904 1.36523,-0.130859 z M 49.09375,182.89844 c 17.698175,0.89474 36.008383,-1.67516 53.22852,1.78906 6.81798,6.9787 2.60838,17.5519 3.59387,26.22626 -0.46267,37.50669 0.3178,75.1665 -1.48059,112.56671 -4.786836,7.45619 -14.921535,4.04896 -22.285159,4.46094 -15.69284,-0.44635 -31.793292,2.15254 -46.708985,-2.76368 -11.403367,-6.13351 -14.750645,-20.41484 -12.899207,-32.35936 0.06622,-30.906 -1.877492,-62.04015 0.590613,-92.7754 3.559956,-10.61164 14.765019,-18.13865 25.960938,-17.14453 z"
         id="path7"
         inkscape:connector-curvature="0" /></g></g><g
     id="g9"
     style="fill:#000000"><g
       id="g11"
       style="fill:#000000"><path
         style="fill:#ff0000"
         d="m 425.75391,77.304688 c -8.56491,0.529298 -10.20655,13.486127 -3.05664,17.25 57.61614,57.770092 80.26209,147.284842 56.95898,225.496092 -10.92287,38.40666 -32.41059,73.31726 -60.44727,101.68945 -4.63377,7.11542 5.37259,16.68031 12.11524,11.31836 9.62639,-7.84138 16.84535,-18.07594 24.70092,-27.60222 47.39412,-62.67215 62.48837,-148.42062 38.55884,-223.36067 -12.22344,-39.3463 -34.02035,-76.25126 -64.4746,-104.132809 -1.37609,-0.555378 -2.88092,-0.72704 -4.35547,-0.658203 z"
         id="path13"
         inkscape:connector-curvature="0" /></g></g><g
     id="g15"
     style="fill:#000000"><g
       id="g17"
       style="fill:#000000"><path
         style="fill:#ff0000"
         d="m 380.86133,123.36914 c -8.56497,0.18409 -9.59633,13.01178 -2.64453,16.44727 47.83687,48.43399 60.96042,127.14044 30.66601,188.21484 -8.75867,18.65298 -21.81557,34.94156 -35.31836,50.21875 -2.94925,7.98633 9.92497,14.60871 14.30274,7.07812 47.86785,-47.01644 65.40451,-121.60198 44.46244,-185.22113 -9.23276,-28.85126 -25.18579,-56.29201 -48.2144,-76.18707 -1.02232,-0.43456 -2.1499,-0.57563 -3.2539,-0.55078 z"
         id="path19"
         inkscape:connector-curvature="0" /></g></g><g
     id="g21"
     style="fill:#000000" /><g
     id="g23"
     style="fill:#000000" /><g
     id="g25"
     style="fill:#000000" /><g
     id="g27"
     style="fill:#000000" /><g
     id="g29"
     style="fill:#000000" /><g
     id="g31"
     style="fill:#000000" /><g
     id="g33"
     style="fill:#000000" /><g
     id="g35"
     style="fill:#000000" /><g
     id="g37"
     style="fill:#000000" /><g
     id="g39"
     style="fill:#000000" /><g
     id="g41"
     style="fill:#000000" /><g
     id="g43"
     style="fill:#000000" /><g
     id="g45"
     style="fill:#000000" /><g
     id="g47"
     style="fill:#000000" /><g
     id="g49"
     style="fill:#000000" /><g
     inkscape:groupmode="layer"
     id="layer1"
     inkscape:label="Layer 1" /></svg>