<?xml version="1.0" encoding="UTF-8" standalone="no"?>
<!-- Generator: Adobe Illustrator 15.0.0, SVG Export Plug-In . SVG Version: 6.00 Build 0)  -->

<svg
   xmlns:dc="http://purl.org/dc/elements/1.1/"
   xmlns:cc="http://creativecommons.org/ns#"
   xmlns:rdf="http://www.w3.org/1999/02/22-rdf-syntax-ns#"
   xmlns:svg="http://www.w3.org/2000/svg"
   xmlns="http://www.w3.org/2000/svg"
   xmlns:sodipodi="http://sodipodi.sourceforge.net/DTD/sodipodi-0.dtd"
   xmlns:inkscape="http://www.inkscape.org/namespaces/inkscape"
   version="1.1"
   id="Capa_1"
   x="0px"
   y="0px"
   style="fill:white"
   viewBox="0 123.307 595.281 595.275"
   enable-background="new 0 123.307 595.281 595.275"
   xml:space="preserve"
   sodipodi:docname="stopwatch.svg"
   inkscape:version="0.91 r13725"><metadata
     id="metadata33"><rdf:RDF><cc:Work
         rdf:about=""><dc:format>image/svg+xml</dc:format><dc:type
           rdf:resource="http://purl.org/dc/dcmitype/StillImage" /><dc:title /></cc:Work></rdf:RDF></metadata><defs
     id="defs31" /><sodipodi:namedview
     pagecolor="#ffffff"
     bordercolor="#666666"
     borderopacity="1"
     objecttolerance="10"
     gridtolerance="10"
     guidetolerance="10"
     inkscape:pageopacity="0"
     inkscape:pageshadow="2"
     inkscape:window-width="1920"
     inkscape:window-height="1058"
     id="namedview29"
     showgrid="false"
     inkscape:zoom="0.5"
     inkscape:cx="-432.3595"
     inkscape:cy="297.63751"
     inkscape:window-x="1592"
     inkscape:window-y="-8"
     inkscape:window-maximized="1"
     inkscape:current-layer="g26" /><g
     id="g26"><path
       style="fill:#ffffff"
       d="m 297.45117,268.92969 c -9.13539,-0.20601 -13.68681,10.56243 -11.73633,18.36328 0,30.86784 0,61.73568 0,92.60351 -13.15542,3.95423 -23.99716,14.80355 -27.93945,27.9629 -24.71426,0.5095 -49.59628,-1.23074 -74.20703,0.95898 -10.50365,3.80916 -8.10081,22.19513 3.25,22.6875 23.65617,0.58011 47.41209,-0.34678 71.00586,0.45312 6.46131,22.9808 34.96578,36.46722 56.66797,26.06641 21.69354,-9.21713 32.16442,-38.72866 19.28515,-58.97656 -5.31144,-9.10167 -14.14116,-16.09665 -24.23632,-19.13477 -0.47966,-34.47854 1.07199,-69.10737 -0.82813,-103.49218 -1.75234,-4.48147 -6.44053,-7.63668 -11.26172,-7.49219 z"
       id="path2"
       inkscape:connector-curvature="0" /><path
       style="fill:#ffffff"
       d="m 297.45117,189.55859 c -9.45494,-0.2057 -13.31764,10.78701 -12.01367,18.64453 -2.15037,9.6374 9.99146,19.45103 18.4668,13.31836 8.08914,-5.50722 6.06676,-16.83862 4.60156,-24.96484 -1.89529,-4.22058 -6.4138,-7.13573 -11.05469,-6.99805 z"
       id="path4"
       inkscape:connector-curvature="0" /><path
       style="fill:#ffffff"
       d="m 506.99805,407.71094 c -8.5664,-0.86925 -15.48058,8.60101 -12.04297,16.46679 2.26491,7.05532 10.3325,8.01738 16.65984,7.72837 7.36978,0.88791 16.59349,-3.50267 16.13508,-11.97837 0.15355,-7.25609 -6.76301,-13.50621 -14.01172,-12.07812 -2.20316,-0.0503 -4.48188,-0.213 -6.74023,-0.13867 z"
       id="path6"
       inkscape:connector-curvature="0" /><path
       style="fill:#ffffff"
       d="m 80.386719,407.71094 c -8.564479,-0.86747 -15.470258,8.60234 -12.039063,16.46484 2.261563,7.05411 10.32861,8.01055 16.651989,7.74148 7.372444,0.88856 16.593045,-3.51478 16.139025,-11.98757 0.15375,-7.25778 -6.763018,-13.50869 -14.01367,-12.08008 -2.202477,-0.0504 -4.480597,-0.21296 -6.738281,-0.13867 z"
       id="path8"
       inkscape:connector-curvature="0" /><path
       style="fill:#ffffff"
       d="m 452.22852,253.48047 c -9.07638,0.87224 -15.62578,9.22777 -19.16211,16.89453 -2.30923,10.27028 12.62334,18.84954 19.92968,10.84375 6.20054,-4.97332 14.32085,-13.30287 9.30274,-21.78906 -2.03735,-3.53604 -5.98271,-5.89167 -10.07031,-5.94922 z"
       id="path10"
       inkscape:connector-curvature="0" /><path
       style="fill:#ffffff"
       d="m 150.18359,555.15039 c -8.79201,1.00426 -14.76023,9.12363 -18.63671,16.25781 -2.83164,10.0532 11.41356,19.45166 19.17187,11.96875 5.92456,-5.00918 14.25034,-12.19152 10.5918,-20.91211 -1.76235,-4.39471 -6.39113,-7.45454 -11.12696,-7.31445 z"
       id="path12"
       inkscape:connector-curvature="0" /><path
       style="fill:#ffffff"
       d="m 142.35938,253.45117 c -10.0875,0.12017 -14.91232,15.25641 -6.73438,21.17774 4.65976,6.70716 14.49,13.37473 22.14453,7.15039 7.41791,-5.45247 4.43646,-17.49976 -2.86133,-21.64649 -3.17616,-3.64032 -7.39305,-7.19497 -12.54882,-6.68164 z"
       id="path14"
       inkscape:connector-curvature="0" /><path
       style="fill:#ffffff"
       d="m 292.87109,121.26562 c -111.02801,0.74575 -218.511986,69.49551 -265.498043,170.14844 -41.342867,85.64397 -39.168684,191.29744 7.695787,274.3317 38.897585,70.45327 107.011786,125.42748 185.626476,144.38901 5.72898,1.34767 14.28741,3.47253 17.41016,-3.39258 4.30759,-6.57127 0.62159,-17.93408 -8.07813,-17.93555 C 152.67587,668.91568 84.274436,614.82661 49.743404,542.33373 13.638282,468.56599 12.117933,378.88272 47.614895,304.46481 82.161792,229.85553 151.59877,172.27276 231.5203,153.12613 c 68.5991,-17.14062 143.61973,-6.70077 204.634,29.36996 66.41022,38.39304 115.88038,105.70525 131.22656,180.95703 11.34214,53.07561 6.53916,109.04572 -13.0625,159.62305 -2.22142,9.81819 10.51466,17.03822 18.4082,11.56445 6.18756,-4.88363 6.25746,-13.7132 9.59961,-20.35742 35.15158,-103.52527 7.02308,-225.67703 -70.60152,-302.85173 -56.72892,-58.00025 -137.55127,-92.06725 -218.85356,-90.16585 z"
       id="path16"
       inkscape:connector-curvature="0" /><g
       class="red"
       style="fill:none;stroke:red"
       id="g24"><path
         fill="none"
         stroke-width="20"
         stroke-miterlimit="10"
         d="M516.878,632.291    c-2.525-2.343-4.91-4.557-5.995-6.624c-0.098-0.188-0.205-0.381-0.325-0.595l-0.057-0.098c-4.407-7.471-6.104-26.593-7.12-38.063    c-0.152-1.719-0.3-3.365-0.445-4.905c-0.015-0.168-0.035-0.335-0.056-0.506l-0.013-0.095    c-2.366-17.536-8.251-42.833-22.846-63.757c-9.98-14.308-22.349-24.053-36.817-29.026c-1.919-11.404-11.351-20.091-22.661-20.091    c-11.316,0-20.752,8.694-22.664,20.104c-14.337,4.976-26.99,14.927-36.817,29.019c-14.594,20.919-20.479,46.215-22.846,63.753    l-0.012,0.094c-0.021,0.172-0.041,0.339-0.057,0.505c-0.148,1.561-0.296,3.218-0.449,4.952    c-1.015,11.427-2.71,30.551-7.116,38.017l-0.057,0.099c-0.087,0.151-0.171,0.301-0.293,0.533    c-1.116,2.126-3.503,4.342-6.029,6.688c-6.671,6.191-20.548,19.078-9.059,41.676c2.352,4.631,6.896,7.506,11.861,7.506h32.001    c1.318,15.906,13.956,28.426,29.31,28.426c15.354,0,27.99-12.52,29.31-28.426h96.449c4.959,0,9.504-2.874,11.862-7.504    C537.426,651.375,523.553,638.489,516.878,632.291z"
         id="path18"
         style="fill:none" /><line
         fill="none"
         stroke-width="20"
         stroke-miterlimit="10"
         x1="359.007"
         y1="681.475"
         x2="417.626"
         y2="681.475"
         id="line20"
         style="fill:none" /><path
         fill="none"
         stroke-width="20"
         stroke-linecap="round"
         stroke-miterlimit="10"
         d="M465.825,570.567  c0-25.658-15.535-46.42-34.734-46.42"
         id="path22"
         style="fill:none" /></g></g></svg>