<?xml version="1.0" encoding="UTF-8" standalone="no"?>
<!-- Generator: Adobe Illustrator 19.0.0, SVG Export Plug-In . SVG Version: 6.00 Build 0)  -->

<svg
   xmlns:dc="http://purl.org/dc/elements/1.1/"
   xmlns:cc="http://creativecommons.org/ns#"
   xmlns:rdf="http://www.w3.org/1999/02/22-rdf-syntax-ns#"
   xmlns:svg="http://www.w3.org/2000/svg"
   xmlns="http://www.w3.org/2000/svg"
   xmlns:sodipodi="http://sodipodi.sourceforge.net/DTD/sodipodi-0.dtd"
   xmlns:inkscape="http://www.inkscape.org/namespaces/inkscape"
   version="1.1"
   id="Layer_1"
   x="0px"
   y="0px"
   viewBox="0 0 512.001 512.001"
   style="enable-background:new 0 0 512.001 512.001;fill:white"
   xml:space="preserve"
   inkscape:version="0.91 r13725"
   sodipodi:docname="telephoneSelected.svg"
   inkscape:export-filename="C:\Users\Adrien\Desktop\Documentation\Visioconsult\serveur\nvp-visioconsult\tablet\src\assets\images\icons\telephone.png"
   inkscape:export-xdpi="90"
   inkscape:export-ydpi="90"><metadata
     id="metadata109"><rdf:RDF><cc:Work
         rdf:about=""><dc:format>image/svg+xml</dc:format><dc:type
           rdf:resource="http://purl.org/dc/dcmitype/StillImage" /><dc:title></dc:title></cc:Work></rdf:RDF></metadata><defs
     id="defs107" /><sodipodi:namedview
     pagecolor="#ffffff"
     bordercolor="#666666"
     borderopacity="1"
     objecttolerance="10"
     gridtolerance="10"
     guidetolerance="10"
     inkscape:pageopacity="0"
     inkscape:pageshadow="2"
     inkscape:window-width="1600"
     inkscape:window-height="838"
     id="namedview105"
     showgrid="false"
     inkscape:zoom="0.92187324"
     inkscape:cx="395.2733"
     inkscape:cy="305.90723"
     inkscape:window-x="-8"
     inkscape:window-y="-8"
     inkscape:window-maximized="1"
     inkscape:current-layer="Layer_1" /><g
     id="g3"
     style="fill:#ff0000;fill-opacity:1"><g
       class="red"
       style="fill:#ff0000;fill-opacity:1"
       id="g5"><path
         style="fill:#ff0000;fill-opacity:1"
         d="m 411.98242,167.36914 c -47.65774,0.99904 -95.41532,-0.5721 -143.01562,0.81836 -8.38247,4.22597 -5.11119,15.4492 -5.33049,22.97436 0.38105,23.11344 -1.5779,46.48932 1.17228,69.34986 6.00713,7.11225 16.29739,3.21597 24.28124,3.96108 43.48213,-0.44446 87.16616,1.19444 130.51759,-0.89663 7.42616,-4.8798 4.1989,-15.15989 4.49219,-22.49023 -0.4181,-23.18208 1.57665,-46.57845 -1.16602,-69.55664 -2.37516,-3.45632 -7.07665,-4.21326 -10.95117,-4.16016 z m -129.42969,17.32617 c 41.54167,0 83.08334,0 124.625,0 0,20.92969 0,41.85938 0,62.78907 -42.20833,0 -84.41666,0 -126.625,0 0,-20.92969 0,-41.85938 0,-62.78907 l 1,0 1,0 z"
         id="path7"
         inkscape:connector-curvature="0" /></g></g><g
     id="g9"
     style="fill:#1c2833;fill-opacity:1"><g
       id="g11"
       style="fill:#1c2833;fill-opacity:1"><path
         style="fill:#1c2833;fill-opacity:1"
         d="m 168.6582,39.695312 c -20.10086,1.589516 -41.20517,-1.873647 -61.04297,1.71875 -23.745768,5.3632 -39.475946,31.303083 -35.476558,54.669922 0.565178,16.652016 -2.666217,34.004906 2.662109,50.109376 3.422492,7.68291 12.411384,12.92729 13.136719,21.59961 0,39.39713 0,78.79427 0,118.19141 -9.513752,9.77264 -18.711245,22.71685 -15.82326,37.15161 1.064439,20.89501 -4.375824,43.20315 6.196307,62.40307 10.253504,16.83485 30.964353,25.36631 50.175783,22.45117 21.1324,-0.80604 43.25098,3.70283 63.29101,-4.65625 17.81311,-8.89475 27.81079,-29.86304 24.73085,-49.36114 -0.60087,-17.05217 2.77283,-34.52485 -2.71131,-50.86932 -4.95131,-8.63406 -15.18744,-15.82456 -13.04688,-27.0918 0,-37.5013 0,-75.00261 0,-112.50391 9.54865,-9.70217 18.72856,-23.01877 15.78194,-37.18864 -1.06078,-21.8845 4.78872,-45.786609 -7.58663,-65.442217 -8.79065,-13.151608 -24.5854,-21.491835 -40.28711,-21.181641 z m -48.82812,17.064454 c 19.58789,1.411585 39.53811,-1.606546 59.0332,1.550781 15.6866,4.360086 23.36746,22.462669 20.82021,37.637568 -0.75941,14.329445 1.53258,29.027175 -1.43935,43.126105 -6.25165,9.16692 -16.92323,18.09939 -14.51212,30.4238 0.49945,40.52208 -1.12629,81.21588 0.87736,121.62112 4.24261,9.97473 16.64719,16.94116 14.98437,29.08398 -1.00869,18.26714 2.77569,37.29946 -2.75,55.05469 -6.45161,13.19318 -22.82163,18.17785 -36.54297,15.75391 -17.89629,-0.64833 -36.35305,2.39465 -53.86133,-2.30469 -13.575183,-5.61688 -20.017867,-21.7217 -17.332871,-35.63049 0.34979,-14.16904 -1.513558,-28.71032 1.309437,-42.64881 6.270123,-9.17146 17.019184,-18.09973 14.539464,-30.44137 -0.5051,-40.53194 1.13827,-81.2405 -0.88712,-121.65238 C 99.799795,148.4045 87.391448,141.41313 89.0625,129.28711 90.073543,110.96238 86.226912,91.83733 91.943359,74.052734 96.967758,63.609812 108.35947,56.931302 119.83008,56.759766 Z"
         id="path13"
         inkscape:connector-curvature="0" /></g></g><g
     id="g15"
     style="fill:#1c2833;fill-opacity:1"><g
       id="g17"
       style="fill:#1c2833;fill-opacity:1"><path
         style="fill:#1c2833;fill-opacity:1"
         d="m 462.03125,103.49805 c -52.5594,0.98677 -105.18771,0.011 -157.77344,0.23828 -33.39504,0.19719 -66.96145,-0.22692 -100.24609,0.9707 -6.9969,3.6063 -4.76264,16.96882 3.99609,15.89844 14.15403,0.88056 28.30792,-0.49804 42.49801,0.30075 73.25874,0.32313 146.58506,-0.97354 219.80082,0.74808 12.98249,3.17102 19.32045,18.3001 16.65589,30.60156 -0.42769,95.68914 0.91464,191.45929 -0.71058,287.09766 -3.58763,12.70331 -18.79925,17.6889 -30.73633,15.63867 -137.94967,-0.3625 -275.94287,0.75725 -413.865229,-0.59766 -12.744621,-2.70718 -19.236605,-17.50205 -16.504316,-29.47645 1.638707,-96.05748 1.585816,-192.19986 4.355878,-288.20324 3.337243,-12.77879 18.71705,-18.5154 30.703125,-15.52343 24.873012,-0.51605 16.061203,-0.77738 18.138672,-8.15821 -2.810098,-9.097 0.471715,-9.56801 -22.361328,-9.46679 -13.131149,-0.33582 -27.080793,3.57245 -35.347065,14.43304 -8.55728,10.00584 -10.133021,23.74424 -9.048795,36.38119 -0.888699,95.31019 -3.2356105,190.63552 -3.0357808,285.93772 3.5237018,20.67228 25.3511338,34.83903 45.6874998,31.70193 138.916179,-0.27924 277.852449,0.60733 416.755859,-0.48123 20.51115,-2.86084 36.46714,-24.07659 33.00002,-44.46484 -0.31831,-97.07698 0.6989,-194.185 -0.54885,-291.24219 -3.25217,-19.10307 -22.4639,-32.92579 -41.41406,-32.33398 z"
         id="path19"
         inkscape:connector-curvature="0"
         sodipodi:nodetypes="ccccccccccccccccccccccc" /></g></g><g
     id="g21"
     style="fill:#1c2833;fill-opacity:1"><g
       id="g23"
       style="fill:#1c2833;fill-opacity:1"><path
         style="fill:#1c2833;fill-opacity:1"
         d="m 283.57812,295.27344 c -6.45092,0.81964 -16.48955,-2.28069 -19.4746,5.57031 -2.90931,6.97321 4.77549,13.30016 11.45117,11.61719 6.09957,-0.38007 13.8882,1.48987 18.86523,-2.82032 4.42826,-5.20391 0.92857,-14.90968 -6.41015,-14.2832 -1.46671,-0.12858 -2.96579,-0.26683 -4.43165,-0.084 z"
         id="path25"
         inkscape:connector-curvature="0" /></g></g><g
     id="g27"
     style="fill:#1c2833;fill-opacity:1"><g
       id="g29"
       style="fill:#1c2833;fill-opacity:1"><path
         style="fill:#1c2833;fill-opacity:1"
         d="m 347.42969,295.27539 c -6.39873,0.88036 -16.10162,-2.32617 -19.35157,5.24805 -3.1641,6.72489 4.04791,13.52323 10.7754,11.92383 6.22005,-0.18446 13.82199,1.25476 19.1914,-2.55274 4.70483,-5.09631 1.29202,-15.17477 -6.18945,-14.53711 -1.46415,-0.12501 -2.96333,-0.26884 -4.42578,-0.082 z"
         id="path31"
         inkscape:connector-curvature="0" /></g></g><g
     id="g33"
     style="fill:#1c2833;fill-opacity:1"><g
       id="g35"
       style="fill:#1c2833;fill-opacity:1"><path
         style="fill:#1c2833;fill-opacity:1"
         d="m 411.29102,295.27539 c -6.49987,0.90366 -16.09525,-2.36245 -19.36524,5.27539 -3.29765,7.13107 4.73323,13.73278 11.58203,11.92383 6.00424,-0.4162 13.65863,1.41971 18.57422,-2.79297 4.44188,-5.17112 0.95647,-14.94068 -6.37891,-14.32422 -1.45931,-0.11632 -2.95428,-0.27601 -4.4121,-0.082 z"
         id="path37"
         inkscape:connector-curvature="0" /></g></g><g
     id="g39"
     style="fill:#1c2833;fill-opacity:1"><g
       id="g41"
       style="fill:#1c2833;fill-opacity:1"><path
         style="fill:#1c2833;fill-opacity:1"
         d="m 283.57617,343.16797 c -6.47972,0.81808 -16.52014,-2.27109 -19.48242,5.62891 -3.00438,7.57535 5.76242,13.47265 12.60547,11.58789 5.77921,-0.51089 13.40772,1.48976 17.89062,-3.08399 4.21575,-5.28898 0.59902,-14.67159 -6.60351,-14.05469 -1.45944,-0.11913 -2.95194,-0.26363 -4.41016,-0.0781 z"
         id="path43"
         inkscape:connector-curvature="0" /></g></g><g
     id="g45"
     style="fill:#1c2833;fill-opacity:1"><g
       id="g47"
       style="fill:#1c2833;fill-opacity:1"><path
         style="fill:#1c2833;fill-opacity:1"
         d="m 347.39453,343.16797 c -6.46716,0.81056 -16.48089,-2.2687 -19.45117,5.61328 -2.99427,7.42435 5.44888,13.4309 12.25195,11.58984 5.9116,-0.45413 13.5779,1.47171 18.22852,-3.03906 4.45033,-5.59511 0.23113,-15.06912 -7.21875,-14.14258 -1.26478,-0.0667 -2.55069,-0.19719 -3.81055,-0.0215 z"
         id="path49"
         inkscape:connector-curvature="0" /></g></g><g
     id="g51"
     style="fill:#1c2833;fill-opacity:1"><g
       id="g53"
       style="fill:#1c2833;fill-opacity:1"><path
         style="fill:#1c2833;fill-opacity:1"
         d="m 411.26172,343.16797 c -6.44282,0.83498 -16.40758,-2.2816 -19.44727,5.54297 -2.92914,6.92527 4.68793,13.35567 11.36914,11.63672 6.10847,-0.39154 13.83093,1.49587 18.85547,-2.75 4.5224,-5.17384 1.02127,-15.01308 -6.36718,-14.35157 -1.45944,-0.11913 -2.95194,-0.26363 -4.41016,-0.0781 z"
         id="path55"
         inkscape:connector-curvature="0" /></g></g><g
     id="g57"
     style="fill:#1c2833;fill-opacity:1"><g
       id="g59"
       style="fill:#1c2833;fill-opacity:1"><path
         style="fill:#1c2833;fill-opacity:1"
         d="m 283.90234,390.98242 c -6.51512,1.07727 -16.27772,-2.36926 -19.66015,5.31055 -3.31074,7.12865 4.74936,13.75141 11.59765,11.95117 6.0247,-0.38541 13.68754,1.44414 18.58594,-2.83789 4.41228,-5.19218 0.91639,-14.8623 -6.39258,-14.26172 -1.3702,-0.16411 -2.75271,-0.17951 -4.13086,-0.16211 z"
         id="path61"
         inkscape:connector-curvature="0" /></g></g><g
     id="g63"
     style="fill:#1c2833;fill-opacity:1"><g
       id="g65"
       style="fill:#1c2833;fill-opacity:1"><path
         style="fill:#1c2833;fill-opacity:1"
         d="m 347.81445,390.97852 c -6.74738,0.34898 -17.41069,-1.93616 -20.16797,6.36914 -2.17897,7.20335 6.48683,13.03495 13.00391,10.79882 6.28911,-0.50102 15.99851,2.20789 19.0625,-5.3125 2.46714,-6.33681 -3.33789,-13.15305 -9.91601,-11.84375 -0.66056,-0.0294 -1.32166,-0.0187 -1.98243,-0.0117 z"
         id="path67"
         inkscape:connector-curvature="0" /></g></g><g
     id="g69"
     style="fill:#1c2833;fill-opacity:1"><g
       id="g71"
       style="fill:#1c2833;fill-opacity:1"><path
         style="fill:#1c2833;fill-opacity:1"
         d="m 411.51758,390.98633 c -6.64711,1.02183 -16.50168,-2.37043 -19.75586,5.66601 -2.78741,6.94624 4.77429,13.28735 11.45117,11.58399 6.06232,-0.32252 13.50534,1.29895 18.66016,-2.54102 4.71748,-5.10839 1.29135,-15.14801 -6.15821,-14.55078 -1.39194,-0.16824 -2.79718,-0.18065 -4.19726,-0.1582 z"
         id="path73"
         inkscape:connector-curvature="0" /></g></g><g
     id="g75"
     style="fill:#1c2833;fill-opacity:1" /><g
     id="g77"
     style="fill:#1c2833;fill-opacity:1" /><g
     id="g79"
     style="fill:#1c2833;fill-opacity:1" /><g
     id="g81"
     style="fill:#1c2833;fill-opacity:1" /><g
     id="g83"
     style="fill:#1c2833;fill-opacity:1" /><g
     id="g85"
     style="fill:#1c2833;fill-opacity:1" /><g
     id="g87"
     style="fill:#1c2833;fill-opacity:1" /><g
     id="g89"
     style="fill:#1c2833;fill-opacity:1" /><g
     id="g91"
     style="fill:#1c2833;fill-opacity:1" /><g
     id="g93"
     style="fill:#1c2833;fill-opacity:1" /><g
     id="g95"
     style="fill:#1c2833;fill-opacity:1" /><g
     id="g97"
     style="fill:#1c2833;fill-opacity:1" /><g
     id="g99"
     style="fill:#1c2833;fill-opacity:1" /><g
     id="g101"
     style="fill:#1c2833;fill-opacity:1" /><g
     id="g103"
     style="fill:#1c2833;fill-opacity:1" /></svg>