<?xml version="1.0" encoding="UTF-8" standalone="no"?>
<!-- Generator: Adobe Illustrator 19.0.0, SVG Export Plug-In . SVG Version: 6.00 Build 0)  -->

<svg
   xmlns:dc="http://purl.org/dc/elements/1.1/"
   xmlns:cc="http://creativecommons.org/ns#"
   xmlns:rdf="http://www.w3.org/1999/02/22-rdf-syntax-ns#"
   xmlns:svg="http://www.w3.org/2000/svg"
   xmlns="http://www.w3.org/2000/svg"
   xmlns:sodipodi="http://sodipodi.sourceforge.net/DTD/sodipodi-0.dtd"
   xmlns:inkscape="http://www.inkscape.org/namespaces/inkscape"
   version="1.1"
   id="Layer_1"
   x="0px"
   y="0px"
   viewBox="0 0 512.001 512.001"
   style="enable-background:new 0 0 512.001 512.001;fill:white"
   xml:space="preserve"
   inkscape:version="0.91 r13725"
   sodipodi:docname="telephone.svg"
   inkscape:export-filename="C:\Users\Adrien\Desktop\Documentation\Visioconsult\serveur\nvp-visioconsult\tablet\src\assets\images\icons\telephone.png"
   inkscape:export-xdpi="90"
   inkscape:export-ydpi="90"><metadata
     id="metadata109"><rdf:RDF><cc:Work
         rdf:about=""><dc:format>image/svg+xml</dc:format><dc:type
           rdf:resource="http://purl.org/dc/dcmitype/StillImage" /></cc:Work></rdf:RDF></metadata><defs
     id="defs107" /><sodipodi:namedview
     pagecolor="#ffffff"
     bordercolor="#666666"
     borderopacity="1"
     objecttolerance="10"
     gridtolerance="10"
     guidetolerance="10"
     inkscape:pageopacity="0"
     inkscape:pageshadow="2"
     inkscape:window-width="1600"
     inkscape:window-height="838"
     id="namedview105"
     showgrid="false"
     inkscape:zoom="0.92187321"
     inkscape:cx="183.57814"
     inkscape:cy="175.98339"
     inkscape:window-x="-8"
     inkscape:window-y="-8"
     inkscape:window-maximized="1"
     inkscape:current-layer="Layer_1" /><g
     id="g3"
     style="fill:#ff0000"><g
       class="red"
       style="fill:#ff0000"
       id="g5"><path
         style="fill:#ff0000"
         d="m 410.16992,165.36133 c -47.5447,1.28455 -95.13689,-1.10785 -142.66015,1.25195 -8.57893,5.74839 -6.203,17.45635 -5.72657,26.11328 0.10521,22.99214 -1.88252,46.14787 1.34961,69.01953 8.15547,8.54647 20.85594,3.67163 31.0488,4.69182 42.18057,-0.41188 84.40908,1.4094 126.55081,-1.10588 8.59382,-6.50908 5.14322,-18.35822 5.3125,-27.44922 -0.62619,-22.64748 2.45433,-45.89529 -1.98242,-68.1582 -3.32286,-4.06516 -9.02956,-4.48258 -13.89258,-4.36328 z m -4.99219,21.33398 c 0,19.59636 0,39.19271 0,58.78907 -40.875,0 -81.75,0 -122.625,0 0,-19.59636 0,-39.19271 0,-58.78907 40.875,0 81.75,0 122.625,0 z"
         id="path7"
         inkscape:connector-curvature="0" /></g></g><g
     id="g9"
     style="fill:#ffffff"><g
       id="g11"
       style="fill:#ffffff"><path
         style="fill:#ffffff"
         d="M 166.4668,37.654297 C 142.86348,40.126843 117.40738,32.885021 95.214844,44.105469 75.571247,54.904634 66.281802,79.339514 70.25,100.89648 c 0.237308,16.75485 -3.68519,35.51619 5.557319,50.71173 5.493716,6.55103 12.444061,14.13934 10.130181,23.46015 0,36.69596 0,73.39193 0,110.08789 -10.931075,10.51468 -18.97719,25.89876 -15.722732,41.36891 0.324005,20.63272 -4.203026,43.73224 7.820388,62.18382 11.830327,17.79103 35.118114,24.54105 55.498044,21.16993 21.5492,-0.13664 45.71877,4.22403 64.96875,-8.23047 16.49476,-11.47337 23.21385,-33.20185 19.89453,-52.50196 -0.2793,-16.61724 3.68949,-35.09505 -5.10024,-50.31016 -6.30578,-7.48359 -13.02801,-16.59387 -10.53191,-27.02185 0.17596,-35.94305 -0.44618,-71.89121 0.33528,-107.83009 10.78703,-10.47808 18.54397,-25.76988 15.3378,-41.07208 -0.24561,-21.07015 4.15088,-44.681365 -8.10733,-63.513862 C 200.81194,45.15109 183.46736,36.979889 166.4668,37.654297 Z m -45.19922,21.035156 c 19.5038,1.938989 39.5058,-2.402037 58.71484,2.332031 14.60352,4.695753 19.52597,22.09993 18.02539,35.935547 -1.9649,14.281849 2.5096,29.355169 -2.8391,42.906109 -7.41619,8.88132 -16.02726,19.60288 -13.4055,32.00784 0.76221,40.34541 -1.88968,80.90907 1.50241,121.1134 4.99899,9.62738 16.68542,17.35685 14.26752,29.51585 -1.25622,18.50741 4.18388,38.51449 -4.8515,55.73024 -8.62523,11.36983 -24.48921,12.6316 -37.41992,10.63086 -17.62992,-0.49673 -36.69779,3.76769 -53.06641,-4.79688 -11.553921,-8.30208 -13.005061,-24.16634 -11.012315,-37.13864 0.27732,-12.45091 -2.266684,-25.61493 2.31668,-37.2871 7.459205,-8.86762 16.078775,-19.61153 13.424625,-32.03313 -0.77231,-40.35564 1.91179,-80.93202 -1.52,-121.14464 -5.09827,-9.64026 -16.72583,-17.44281 -14.31055,-29.64063 1.197101,-18.46225 -3.959184,-38.269499 4.767578,-55.531248 5.586982,-8.218948 15.650312,-12.547941 25.406252,-12.599609 z"
         id="path13"
         inkscape:connector-curvature="0" /></g></g><g
     id="g15"
     style="fill:#ffffff"><g
       id="g17"
       style="fill:#ffffff"><path
         style="fill:#ffffff"
         d="m 460.97266,101.29102 c -85.84827,1.83006 -171.73158,-0.99684 -257.57227,1.4375 -9.22957,3.9319 -6.03842,20.73244 4.30859,20.02539 86.54015,0.82781 173.14265,-1.21222 259.66211,1.0957 12.70299,-0.1304 19.24961,14.71535 18.21094,25.88672 -1.52187,20.99348 -0.34497,42.18803 -0.7164,63.25976 0.0451,75.61388 0.90731,151.27648 -0.87735,226.85743 -4.16533,11.27463 -18.58776,15.27994 -29.6289,13.13671 -137.80414,-0.49056 -275.64628,1.04173 -413.425786,-0.83593 -12.387478,-3.69869 -16.470715,-18.97395 -13.735383,-30.40221 1.740856,-95.20468 1.250922,-190.51399 4.579133,-285.64857 4.135327,-11.78027 18.870212,-15.68195 30.005859,-12.94532 7.253574,-0.029 16.920168,-2.13862 18.642578,-10.4707 -3.460877,-10.14833 -15.623322,-12.03176 -24.960937,-11.29492 -18.382301,-0.83399 -38.179845,9.79294 -43.517578,28.16211 -5.2303184,18.76759 -1.117384,38.40128 -2.6922997,57.5387 -0.8627118,85.2189 -3.4314462,170.45443 -2.2530132,255.67223 4.9461579,21.81664 29.1776099,35.15341 50.5410129,31.24751 138.606694,-0.47147 277.232444,1.0551 415.826174,-0.84711 21.83403,-4.16767 36.86841,-27.84002 32.61502,-49.41992 -0.53503,-96.75322 1.21755,-193.53725 -0.97049,-290.26954 -4.41798,-19.5396 -24.56354,-32.72253 -44.04101,-32.18554 z"
         id="path19"
         inkscape:connector-curvature="0" /></g></g><g
     id="g21"
     style="fill:#ffffff"><g
       id="g23"
       style="fill:#ffffff"><path
         style="fill:#ffffff"
         d="m 288.36523,293.16797 c -8.48956,0.98729 -20.12172,-2.685 -25.78906,5.94922 -4.4367,8.00029 5.20131,18.09582 13.53516,15.33008 7.35713,0.19607 18.37513,1.54228 21.75195,-7.00391 2.30693,-6.24901 -2.58569,-14.34671 -9.49805,-14.27539 z"
         id="path25"
         inkscape:connector-curvature="0" /></g></g><g
     id="g27"
     style="fill:#ffffff"><g
       id="g29"
       style="fill:#ffffff"><path
         style="fill:#ffffff"
         d="m 352.17383,293.17383 c -8.38251,1.01774 -19.60687,-2.61876 -25.51367,5.50195 -4.8929,7.92899 4.53817,18.55929 13.10156,15.75 7.38674,0.21522 18.27575,1.55292 21.84766,-6.8418 2.51805,-6.23585 -2.50142,-14.50638 -9.43555,-14.41015 z"
         id="path31"
         inkscape:connector-curvature="0" /></g></g><g
     id="g33"
     style="fill:#ffffff"><g
       id="g35"
       style="fill:#ffffff"><path
         style="fill:#ffffff"
         d="m 416.04883,293.17383 c -8.41793,1.00927 -19.99254,-2.67236 -25.70313,5.77734 -4.61402,8.11473 5.2663,18.46484 13.73438,15.50781 7.27857,0.15535 18.12649,1.46587 21.45898,-6.97851 2.2939,-6.24859 -2.56108,-14.37886 -9.49023,-14.30664 z"
         id="path37"
         inkscape:connector-curvature="0" /></g></g><g
     id="g39"
     style="fill:#ffffff"><g
       id="g41"
       style="fill:#ffffff"><path
         style="fill:#ffffff"
         d="m 287.98438,341.07227 c -8.26958,0.90475 -19.58006,-2.51363 -25.23829,5.69726 -4.78172,8.3842 5.57818,18.72514 14.21485,15.64453 7.11328,-0.0312 17.35983,1.33626 20.80664,-6.73437 2.57279,-6.41567 -2.55137,-15.01892 -9.7832,-14.60742 z"
         id="path43"
         inkscape:connector-curvature="0" /></g></g><g
     id="g45"
     style="fill:#ffffff"><g
       id="g47"
       style="fill:#ffffff"><path
         style="fill:#ffffff"
         d="m 351.66797,340.99609 c -8.28098,1.01714 -19.71348,-2.53696 -25.19141,5.98829 -4.69658,8.36721 5.84952,18.48049 14.32813,15.37304 7.1314,0.23595 17.78204,1.24276 20.91797,-7.05078 2.41716,-6.46881 -3.01424,-14.59891 -10.05469,-14.31055 z"
         id="path49"
         inkscape:connector-curvature="0" /></g></g><g
     id="g51"
     style="fill:#ffffff"><g
       id="g53"
       style="fill:#ffffff"><path
         style="fill:#ffffff"
         d="m 416.02734,341.05664 c -8.41175,1.00297 -20.18607,-2.66084 -25.77148,5.9707 -4.32863,7.97053 5.16757,18.10381 13.49805,15.30469 7.34886,0.18487 18.35035,1.58201 21.77148,-6.93555 2.34779,-6.26134 -2.54311,-14.4401 -9.49805,-14.33984 z"
         id="path55"
         inkscape:connector-curvature="0" /></g></g><g
     id="g57"
     style="fill:#ffffff"><g
       id="g59"
       style="fill:#ffffff"><path
         style="fill:#ffffff"
         d="m 275.23633,388.9707 c -6.68766,-0.4894 -15.23112,4.42263 -13.60156,12.04102 1.35482,6.92799 9.12908,11.19419 15.74023,9.20117 7.20773,0.49247 18.04183,0.95391 20.70898,-7.63477 2.20968,-7.51536 -5.25878,-15.70212 -13.01757,-13.38867 -3.27899,0.0571 -6.55068,-0.30795 -9.83008,-0.21875 z"
         id="path61"
         inkscape:connector-curvature="0" /></g></g><g
     id="g63"
     style="fill:#ffffff"><g
       id="g65"
       style="fill:#ffffff"><path
         style="fill:#ffffff"
         d="m 351.56055,388.82031 c -8.2358,0.83741 -19.59015,-2.3757 -24.95508,6.01563 -5.10193,8.57008 6.00394,18.41877 14.56641,15.48828 7.02102,-0.15257 17.3561,1.25868 20.50585,-7.06641 2.62071,-6.57864 -3.11151,-14.53999 -10.11718,-14.4375 z"
         id="path67"
         inkscape:connector-curvature="0" /></g></g><g
     id="g69"
     style="fill:#ffffff"><g
       id="g71"
       style="fill:#ffffff"><path
         style="fill:#ffffff"
         d="m 416.08594,388.95703 c -8.30392,0.93309 -20.34081,-2.68572 -25.88672,6.05078 -4.25881,8.17329 5.51721,18.08751 13.90625,15.19727 7.21616,0.19982 17.97897,1.46807 21.35547,-6.83594 2.44575,-6.22634 -2.45695,-14.43892 -9.375,-14.41211 z"
         id="path73"
         inkscape:connector-curvature="0" /></g></g><g
     id="g75"
     style="fill:#ffffff" /><g
     id="g77"
     style="fill:#ffffff" /><g
     id="g79"
     style="fill:#ffffff" /><g
     id="g81"
     style="fill:#ffffff" /><g
     id="g83"
     style="fill:#ffffff" /><g
     id="g85"
     style="fill:#ffffff" /><g
     id="g87"
     style="fill:#ffffff" /><g
     id="g89"
     style="fill:#ffffff" /><g
     id="g91"
     style="fill:#ffffff" /><g
     id="g93"
     style="fill:#ffffff" /><g
     id="g95"
     style="fill:#ffffff" /><g
     id="g97"
     style="fill:#ffffff" /><g
     id="g99"
     style="fill:#ffffff" /><g
     id="g101"
     style="fill:#ffffff" /><g
     id="g103"
     style="fill:#ffffff" /></svg>