<?xml version="1.0" encoding="UTF-8" standalone="no"?>
<!-- Generator: Adobe Illustrator 15.0.0, SVG Export Plug-In . SVG Version: 6.00 Build 0)  -->

<svg
   xmlns:dc="http://purl.org/dc/elements/1.1/"
   xmlns:cc="http://creativecommons.org/ns#"
   xmlns:rdf="http://www.w3.org/1999/02/22-rdf-syntax-ns#"
   xmlns:svg="http://www.w3.org/2000/svg"
   xmlns="http://www.w3.org/2000/svg"
   xmlns:sodipodi="http://sodipodi.sourceforge.net/DTD/sodipodi-0.dtd"
   xmlns:inkscape="http://www.inkscape.org/namespaces/inkscape"
   version="1.1"
   id="Capa_1"
   x="0px"
   y="0px"
   viewBox="0 123.307 595.281 595.275"
   style="fill:white"
   xml:space="preserve"
   sodipodi:docname="visioconseilSelected.svg"
   inkscape:version="0.91 r13725"
   inkscape:export-filename="C:\Users\Adrien\Desktop\Documentation\Visioconsult\serveur\nvp-visioconsult\tablet\src\assets\images\icons\visioconseilSelected.png"
   inkscape:export-xdpi="90"
   inkscape:export-ydpi="90"><metadata
     id="metadata31"><rdf:RDF><cc:Work
         rdf:about=""><dc:format>image/svg+xml</dc:format><dc:type
           rdf:resource="http://purl.org/dc/dcmitype/StillImage" /><dc:title></dc:title></cc:Work></rdf:RDF></metadata><defs
     id="defs29" /><sodipodi:namedview
     pagecolor="#ffffff"
     bordercolor="#666666"
     borderopacity="1"
     objecttolerance="10"
     gridtolerance="10"
     guidetolerance="10"
     inkscape:pageopacity="0"
     inkscape:pageshadow="2"
     inkscape:window-width="1920"
     inkscape:window-height="1058"
     id="namedview27"
     showgrid="false"
     showguides="true"
     inkscape:guide-bbox="true"
     inkscape:zoom="0.70710678"
     inkscape:cx="35.892158"
     inkscape:cy="240.16793"
     inkscape:window-x="1592"
     inkscape:window-y="-8"
     inkscape:window-maximized="1"
     inkscape:current-layer="g24"><sodipodi:guide
       position="-474.68354,337.97467"
       orientation="1,0"
       id="guide51"
       inkscape:locked="false" /></sodipodi:namedview><g
     id="g10"
     style="fill:#1c2833;fill-opacity:1"><g
       id="g8"
       style="fill:#1c2833;fill-opacity:1"><path
         style="fill:#1c2833;fill-opacity:1"
         d="m 218.39648,651.21484 c 54.17123,0 108.34245,0 162.51368,0 0,-7.42968 0,-14.85937 0,-22.28906 -54.17123,0 -108.34245,0 -162.51368,0 0,7.42969 0,14.85938 0,22.28906 z"
         id="rect2"
         inkscape:connector-curvature="0" /><path
         style="fill:#1c2833;fill-opacity:1"
         d="m 126.11133,694.58203 c 115.69466,0 231.38932,0 347.08398,0 -1.89062,-7.41732 -3.78125,-14.83463 -5.67187,-22.25195 -111.91341,0 -223.82683,0 -335.74024,0 -1.89062,7.41732 -3.78125,14.83463 -5.67187,22.25195 z"
         id="polygon4"
         inkscape:connector-curvature="0" /><path
         style="fill:#1c2833;fill-opacity:1"
         d="m 567.5918,174.20312 c -108.409,0.49336 -216.86284,0.0658 -325.28907,0.21091 -73.2245,0.15803 -146.480268,-0.30341 -219.685542,0.23636 -12.418616,1.80621 -20.719946,14.97133 -18.6164664,27.03711 0.1475267,129.56828 -0.3046052,259.15281 0.2356065,388.71094 1.5841625,12.51902 15.0691849,20.92894 27.0117189,18.80612 180.426323,-0.15201 360.869223,0.31302 541.285153,-0.24362 12.52903,-1.62502 20.79858,-15.10648 18.74733,-27.03516 -0.15139,-129.58056 0.31235,-259.17812 -0.24147,-388.74805 -1.43751,-11.14326 -12.45955,-19.39283 -23.44726,-18.97461 z m -546.394534,24.5 c 184.977864,10e-6 369.955724,0 554.933594,0 0,128.72917 0,257.45834 0,386.1875 -185.64453,0 -371.28906,0 -556.933594,0 0,-128.72916 0,-257.45833 0,-386.1875 h 1 z"
         id="path6"
         inkscape:connector-curvature="0" /></g></g><g
     class="red"
     style="fill:#000000"
     id="g24"><g
       id="g16"
       style="fill:#000000"><g
         id="g14"
         style="fill:#000000"><path
           style="fill:#ff0000"
           d="m 355.29492,272.58789 c -21.80375,-0.0616 -41.37472,12.63142 -55.0396,28.82231 -38.44011,38.90162 -77.88291,76.85564 -115.63032,116.41402 -21.18219,26.81399 -16.97264,69.6531 9.46826,91.61927 25.10148,22.20211 66.76035,21.80432 90.4775,-2.30437 21.09631,-20.3689 41.5944,-41.83982 62.65011,-62.44677 21.459,-21.76308 43.81669,-42.73705 64.31819,-65.38962 20.07934,-26.76053 15.79768,-68.36543 -10.00781,-90.01367 -12.58807,-11.09929 -29.44689,-17.25772 -46.23633,-16.70117 z m 2.91406,12.04297 c 27.97843,-0.12919 53.25986,24.3694 53.97266,52.36523 1.17052,18.97583 -8.79374,37.11493 -23.23858,48.91437 -15.91722,15.91722 -31.83444,31.83443 -47.75165,47.75165 -26.02535,-26.02478 -52.05083,-52.04944 -78.07618,-78.07422 20.82771,-20.02905 40.1932,-41.62809 61.84571,-60.76172 9.5983,-6.89335 21.45309,-10.42464 33.24804,-10.19531 z m -102.20703,80.92578 c 25.554,25.55343 51.10812,51.10673 76.66211,76.66016 -21.06434,20.26253 -40.65516,42.10453 -62.56054,61.45898 -22.83267,16.75717 -58.27707,11.76825 -75.32422,-10.97461 -17.63133,-21.78977 -14.86596,-57.03448 6.62728,-75.30901 17.63601,-17.84032 35.48291,-35.46879 53.17936,-53.25154 0.472,0.47201 0.94401,0.94402 1.41601,1.41602 z"
           id="path12"
           inkscape:connector-curvature="0" /></g></g><g
       id="g22"
       style="fill:#1c2833;fill-opacity:1"><g
         id="g20"
         style="fill:#1c2833;fill-opacity:1"><path
           d="M389.093,308.795c-3.92-3.92-10.277-3.92-14.197,0s-3.92,10.276,0,14.197c9.793,9.793,9.793,25.729,0,35.521     c-3.92,3.921-3.92,10.276,0,14.197c1.961,1.96,4.529,2.939,7.099,2.939c2.567,0,5.138-0.979,7.099-2.94     C406.714,355.09,406.714,326.417,389.093,308.795z"
           id="path18"
           style="fill:#1c2833;fill-opacity:1" /></g></g></g></svg>