<?xml version="1.0" encoding="UTF-8" standalone="no"?>
<!-- Generator: Adobe Illustrator 15.0.0, SVG Export Plug-In . SVG Version: 6.00 Build 0)  -->

<svg
   xmlns:dc="http://purl.org/dc/elements/1.1/"
   xmlns:cc="http://creativecommons.org/ns#"
   xmlns:rdf="http://www.w3.org/1999/02/22-rdf-syntax-ns#"
   xmlns:svg="http://www.w3.org/2000/svg"
   xmlns="http://www.w3.org/2000/svg"
   xmlns:sodipodi="http://sodipodi.sourceforge.net/DTD/sodipodi-0.dtd"
   xmlns:inkscape="http://www.inkscape.org/namespaces/inkscape"
   version="1.1"
   id="Capa_1"
   x="0px"
   y="0px"
   viewBox="0 123.307 595.281 595.275"
   style="fill:white"
   xml:space="preserve"
   sodipodi:docname="visioETPSelected.svg"
   inkscape:version="0.91 r13725"
   inkscape:export-filename="C:\Users\Adrien\Desktop\Documentation\Visioconsult\serveur\nvp-visioconsult\tablet\src\assets\images\icons\visioETPSelected.png"
   inkscape:export-xdpi="90"
   inkscape:export-ydpi="90"><metadata
     id="metadata31"><rdf:RDF><cc:Work
         rdf:about=""><dc:format>image/svg+xml</dc:format><dc:type
           rdf:resource="http://purl.org/dc/dcmitype/StillImage" /><dc:title></dc:title></cc:Work></rdf:RDF></metadata><defs
     id="defs29" /><sodipodi:namedview
     pagecolor="#ffffff"
     bordercolor="#666666"
     borderopacity="1"
     objecttolerance="10"
     gridtolerance="10"
     guidetolerance="10"
     inkscape:pageopacity="0"
     inkscape:pageshadow="2"
     inkscape:window-width="1920"
     inkscape:window-height="1058"
     id="namedview27"
     showgrid="false"
     showguides="true"
     inkscape:guide-bbox="true"
     inkscape:zoom="0.66"
     inkscape:cx="21.125348"
     inkscape:cy="297.63751"
     inkscape:window-x="1592"
     inkscape:window-y="-8"
     inkscape:window-maximized="1"
     inkscape:current-layer="Capa_1"><sodipodi:guide
       position="-474.68354,337.97467"
       orientation="1,0"
       id="guide51"
       inkscape:locked="false" /></sodipodi:namedview><g
     id="g10"
     style="fill:#1c2833;fill-opacity:1"><g
       id="g8"
       style="fill:#1c2833;fill-opacity:1"><path
         style="fill:#1c2833;fill-opacity:1"
         d="m 218.39648,651.21484 c 54.17123,0 108.34245,0 162.51368,0 0,-7.42968 0,-14.85937 0,-22.28906 -54.17123,0 -108.34245,0 -162.51368,0 0,7.42969 0,14.85938 0,22.28906 z"
         id="rect2"
         inkscape:connector-curvature="0" /><path
         style="fill:#1c2833;fill-opacity:1"
         d="m 126.11133,694.58203 c 115.69466,0 231.38932,0 347.08398,0 -1.89062,-7.41732 -3.78125,-14.83463 -5.67187,-22.25195 -111.91341,0 -223.82683,0 -335.74024,0 -1.89062,7.41732 -3.78125,14.83463 -5.67187,22.25195 z"
         id="polygon4"
         inkscape:connector-curvature="0" /><path
         style="fill:#1c2833;fill-opacity:1"
         d="m 567.5918,174.20312 c -108.409,0.49336 -216.86284,0.0658 -325.28907,0.21091 -73.2245,0.15803 -146.480268,-0.30341 -219.685542,0.23636 -12.418616,1.80621 -20.719946,14.97133 -18.6164664,27.03711 0.1475267,129.56828 -0.3046052,259.15281 0.2356065,388.71094 1.5841625,12.51902 15.0691849,20.92894 27.0117189,18.80612 180.426323,-0.15201 360.869223,0.31302 541.285153,-0.24362 12.52903,-1.62502 20.79858,-15.10648 18.74733,-27.03516 -0.15139,-129.58056 0.31235,-259.17812 -0.24147,-388.74805 -1.43751,-11.14326 -12.45955,-19.39283 -23.44726,-18.97461 z m -546.394534,24.5 c 184.977864,10e-6 369.955724,0 554.933594,0 0,128.72917 0,257.45834 0,386.1875 -185.64453,0 -371.28906,0 -556.933594,0 0,-128.72916 0,-257.45833 0,-386.1875 h 1 z"
         id="path6"
         inkscape:connector-curvature="0" /></g></g><path
     style="fill:#ff0000;stroke-width:0.66829067"
     d="m 318.14758,345.35214 c -4.6657,0.0862 -9.19868,1.65743 -13.11659,4.06061 -12.6293,-9.15976 -33.35988,-1.98423 -36.97448,12.94357 -2.89393,9.85753 1.75125,20.51196 10.07559,26.61692 8.98089,8.69923 17.96177,17.39847 26.94265,26.0977 11.58751,-11.76535 24.56622,-22.35173 35.01827,-35.10411 7.59385,-12.62875 -0.46351,-31.14866 -15.49721,-33.95568 -2.10625,-0.49569 -4.28122,-0.7238 -6.44823,-0.65901 z m -26.87244,11.76176 c 6.00361,-0.0437 10.14609,4.72995 13.80094,8.68128 4.06167,-4.74686 9.83292,-10.19099 16.82081,-8.355 8.4731,1.97697 12.22991,14.14394 5.04491,19.62558 -7.09383,7.31224 -14.69976,14.13498 -21.8949,21.35169 -7.92274,-8.8526 -18.13477,-15.82562 -24.88572,-25.61095 -3.07679,-7.07703 3.2307,-15.86711 11.11396,-15.6926 z"
     id="path2"
     inkscape:connector-curvature="0" /><path
     style="fill:#1c2833;stroke-width:0.66829067;fill-opacity:1"
     d="m 179.6143,225.08842 c -26.15434,-0.0259 -48.98495,23.91991 -46.94699,49.17094 1.07105,20.84987 18.04997,40.22898 39.57173,43.3494 4.44147,1.75826 2.29919,7.29358 3.47367,10.70842 4.92912,29.31309 31.7411,53.9454 62.50852,56.28061 3.9201,1.06185 1.70664,5.81589 2.28029,8.52581 0.26974,13.03097 -1.17114,26.31543 1.01411,39.13778 3.08101,8.01016 12.55351,12.07786 20.9587,10.75077 35.71145,0 71.4229,0 107.13435,0 -0.5824,-3.62202 1.40251,-8.75827 6.00539,-8.06562 8.71747,0.32419 18.64498,2.07374 26.17603,-3.4315 6.67764,-5.37669 6.91852,-14.39709 6.25366,-22.09113 -0.11433,-8.09481 0.0547,-16.19029 -0.0296,-24.2853 28.23683,2.42628 52.06149,27.52921 52.0526,55.01661 0.95843,25.81845 -18.52344,51.17103 -44.8829,56.42195 -16.01884,3.1834 -32.48246,0.77868 -48.6269,1.51711 -33.90642,0 -67.81285,0 -101.71927,0 -2.52637,-25.63348 -28.64472,-46.54638 -55.2302,-43.89019 -17.4583,0.22133 -36.31772,-2.66906 -51.80576,6.95098 -18.94413,10.97102 -29.48047,33.94096 -23.67644,54.76424 5.27082,20.87293 25.45907,37.64838 47.83248,37.87883 12.28816,0.51084 24.86289,-0.0399 37.08589,-0.045 22.24749,-2.26722 42.18103,-19.72911 45.27148,-41.37423 2.32067,-4.49814 8.58771,-1.74768 12.44814,-2.46482 44.79095,-0.25298 89.61702,0.65623 134.38511,-0.52057 31.4771,-3.67572 58.15424,-30.19557 60.7688,-60.69723 3.07789,-26.92117 -11.84052,-55.26101 -37.01865,-67.64402 -8.28805,-4.28668 -17.52353,-6.92572 -26.80613,-7.79107 -0.84053,-13.30529 1.38165,-26.80105 -1.20556,-39.92776 -3.18214,-8.17519 -13.07173,-12.09007 -21.59265,-10.63773 -5.11755,0 -10.2351,0 -15.35265,0 -0.8335,-2.65608 0.58269,-5.4467 -0.26657,-8.05441 -26.81382,0.81196 -53.64967,0.0462 -80.47278,0.28581 -12.10143,0.14332 -24.29488,-0.30043 -36.33656,0.64296 -8.93299,2.37871 -14.03426,12.13251 -12.44021,20.7462 0,12.21263 0,24.42527 0,36.63791 -26.56603,-1.68253 -49.92077,-23.34504 -53.01943,-48.9135 -1.23188,-3.30329 1.28773,-7.38784 5.14556,-6.94085 24.48799,-5.34824 41.49541,-31.55681 35.56101,-55.25404 -4.71581,-21.15639 -25.9097,-37.95916 -48.49826,-36.75738 z m 1.30503,11.81313 c 20.21267,-0.59564 38.17378,18.28675 35.92277,37.75937 -1.32643,18.23423 -19.36755,33.70014 -38.32725,31.96199 -17.73724,-1.04266 -33.4884,-16.18936 -33.64826,-33.587 -0.67022,-16.51027 12.04603,-32.75154 29.09657,-35.47151 2.29004,-0.43388 4.62329,-0.64881 6.95617,-0.66285 z m 76.7447,89.89463 c 33.29414,0 66.58828,0 99.88242,0 0,34.7941 0,69.58819 0,104.38229 -33.88127,-0.21823 -67.89543,0.41056 -101.69673,-0.31602 -5.15349,-2.58185 -2.66348,-8.7931 -3.19597,-13.14909 0.33254,-29.40007 -0.70734,-58.90987 0.54082,-88.24137 0.83131,-1.59738 2.61783,-2.6817 4.46946,-2.67581 z m 127.54398,7.64077 c 3.88443,-0.20835 10.08369,-0.18857 10.62988,4.78897 -0.30407,26.99708 0.29331,54.03091 -0.23209,81.04249 -2.88889,5.04145 -9.42066,2.81477 -14.11924,2.95456 -3.8297,0.36021 -9.98253,1.68376 -11.49592,-3.07275 -0.55392,-28.54218 -0.0249,-57.09579 -0.22016,-85.64262 5.14548,0.14134 10.29311,0.079 15.43753,-0.0707 z M 208.53979,465.80856 c 11.07896,-0.3079 22.83416,2.01061 31.09522,9.64987 13.27951,11.1534 17.52196,31.32247 8.80629,46.30321 -7.26309,13.26556 -22.93966,21.86535 -38.47578,20.24724 -12.57483,-0.26204 -25.50368,1.39489 -37.82198,-1.681 -18.85457,-5.6927 -31.34251,-26.4754 -26.25175,-45.13294 4.2578,-17.73955 22.88204,-31.17787 41.74095,-29.18235 6.96978,0.0633 13.93731,-0.2005 20.90705,-0.20403 z"
     id="path8"
     inkscape:connector-curvature="0" /><path
     style="fill:#1c2833;stroke-width:0.66829067;fill-opacity:1"
     d="m 166.63829,282.95041 c 9.72714,0 19.45429,0 29.18145,0 0,-5.70061 0,-11.40121 0,-17.10181 -3.50152,-0.76798 -10.24516,1.60434 -11.5251,-1.31542 -1.00777,-3.1834 2.47012,-10.71159 -2.71616,-9.8477 -4.98007,0 -9.96013,0 -14.94019,0 0,9.42164 0,18.84328 0,28.26493 z"
     id="polygon14"
     inkscape:connector-curvature="0" /></svg>